<?xml version="1.0" encoding="iso-8859-1"?>
<!-- Generator: Adobe Illustrator 16.0.0, SVG Export Plug-In . SVG Version: 6.00 Build 0)  -->
<!DOCTYPE svg PUBLIC "-//W3C//DTD SVG 1.1//EN" "http://www.w3.org/Graphics/SVG/1.1/DTD/svg11.dtd">
<svg version="1.1" id="Capa_1" xmlns="http://www.w3.org/2000/svg" xmlns:xlink="http://www.w3.org/1999/xlink" x="0px" y="0px"
	 width="61.839px" height="61.838px" viewBox="0 0 61.839 61.838" style="enable-background:new 0 0 61.839 61.838;"
	 xml:space="preserve">
<g>
	<path d="M56.384,28.921c-1.999-1.357-4.314-2.09-6.719-2.142l-0.64-5.135c0.933,1.224,2.422,1.99,4.074,1.92l-0.412-9.717
		c-1.938,0.082-3.554,1.297-4.263,2.973l-0.646-5.198c-0.069-0.562-0.407-1.057-0.905-1.325c-0.498-0.27-1.099-0.28-1.604-0.029
		c-0.029,0.017-3.226,1.539-5.828,0.987c-0.938-0.194-1.875,0.405-2.072,1.351c-0.199,0.946,0.402,1.874,1.354,2.074
		c2.102,0.443,4.286,0.041,5.858-0.428l0.508,4.102c-2.858-0.898-7.366-2.005-11.771-2.005c-1.277,0-2.481,0.094-3.604,0.279
		c-0.153,0.587-0.43,1.282-0.845,1.965c-0.938,1.546-2.597,3.027-5.246,3.027c-0.884,0-1.836-0.168-2.847-0.498
		c-0.353-0.115-0.715-0.256-1.083-0.411c-0.581-0.245-1.179-0.538-1.794-0.882c-0.072-0.04-0.143-0.076-0.215-0.117
		c-1.637-0.94-2.7-1.65-3.33-2.259c-4.836-1.055-8.79-2.724-8.847-2.747C4.79,14.4,3.954,14.606,3.462,15.214
		c-0.492,0.607-0.523,1.468-0.073,2.107c0.153,0.22,3.828,5.371,9.331,7.016c0.359,0.106,0.748,0.162,1.154,0.162
		c1.313,0,2.646-0.548,3.946-1.136l-1.686,4.034c-1.182-0.367-2.418-0.556-3.675-0.556c-4.137,0-7.992,2.041-10.313,5.46
		C-1.711,37.983-0.227,45.744,5.455,49.6c2.073,1.407,4.488,2.151,6.985,2.151c4.137,0,7.992-2.041,10.312-5.459
		c1.062-1.563,1.705-3.289,1.981-5.043c1.009-0.166,1.976-0.39,2.869-0.687c5.503-1.834,9.595-7.735,13.283-11.854
		c0.104-0.115,0.175-0.231,0.229-0.348c1.634-0.363,3.354-1.155,4.892-2.68l0.188,1.514c-2.862,0.763-5.399,2.521-7.104,5.032
		c-3.855,5.685-2.373,13.439,3.311,17.297c2.07,1.408,4.484,2.151,6.982,2.151c4.139,0,7.992-2.041,10.312-5.46
		C63.548,40.54,62.065,32.776,56.384,28.921z M19.855,44.329c-1.669,2.457-4.441,3.924-7.417,3.924c-1.793,0-3.529-0.533-5.02-1.547
		c-4.084-2.771-5.152-8.354-2.379-12.438c1.669-2.457,4.442-3.926,7.417-3.926c0.788,0,1.56,0.121,2.309,0.323l-2.043,4.888
		c-2.318-0.332-4.54-0.427-6.505,0.149c-0.898,0.264-1.227,1.113-1.108,1.842c-0.148,0.634,0.125,1.201,0.921,1.504
		c4.26,1.619,9.943,2.685,15.06,2.541C20.842,42.542,20.439,43.469,19.855,44.329z M15.754,36.081l1.745-4.174
		c1.861,1.271,3.084,3.131,3.606,5.158C19.347,36.815,17.543,36.434,15.754,36.081z M29.287,36.274
		c-1.383,0.727-2.929,1.002-4.563,1.037c-0.529-3.267-2.335-6.316-5.281-8.317c-0.188-0.129-0.382-0.243-0.575-0.36l0.766-1.832
		l0.068-0.163l1.191-2.849l2.037,2.149c0.327,0.346,0.779,0.542,1.254,0.546l6.525,0.062c0.979,0.514,3.472,1.678,6.4,2
		C34.732,31.296,32.277,34.227,29.287,36.274z M56.796,44.254c-1.668,2.457-4.439,3.926-7.418,3.926
		c-1.793,0-3.525-0.535-5.021-1.547c-4.084-2.773-5.149-8.354-2.377-12.438c1.133-1.668,2.776-2.863,4.646-3.471l1.051,8.443
		c0.109,0.888,0.863,1.535,1.734,1.535c0.071,0,0.146-0.006,0.217-0.016c0.959-0.119,1.643-0.994,1.521-1.953l-1.043-8.414
		c1.539,0.122,3.021,0.617,4.312,1.495C58.503,34.59,59.568,40.168,56.796,44.254z M15.629,15.685c1.636,0,4.683,0.771,4.683,0.771
		l7.369-0.829l1.134,0.444c0,0-0.065,0.328-0.237,0.803c-0.222,0.612-0.63,1.47-1.327,2.215c-0.788,0.842-1.943,1.534-3.628,1.534
		c-0.838,0-1.81-0.178-2.927-0.584c-0.768-0.28-1.601-0.666-2.515-1.191c-0.632-0.363-1.155-0.683-1.602-0.972
		C13.938,16.167,14.341,15.685,15.629,15.685z M29.335,27.965c0.469,0.342,2.086,1.426,4.262,1.854
		c0.178,0.035,0.361,0.067,0.557,0.094c0.039,0.006,0.07,0.012,0.097,0.018c-0.271,0.851-3.657,3.501-6.823,5.562
		c-0.503,0.18-1.315,0.432-1.844,0.519c-0.256-1.162-1.149-4.359-3.703-7.474c-0.109-0.133-0.123-0.255-0.142-0.497
		c-0.008-0.102-0.017-0.214-0.039-0.334L29.335,27.965z M8.338,23.152l-4.853-0.144l0.109-3.687L8.338,23.152z"/>
</g>
<g>
</g>
<g>
</g>
<g>
</g>
<g>
</g>
<g>
</g>
<g>
</g>
<g>
</g>
<g>
</g>
<g>
</g>
<g>
</g>
<g>
</g>
<g>
</g>
<g>
</g>
<g>
</g>
<g>
</g>
</svg>
