<?xml version="1.0" encoding="iso-8859-1"?>
<!-- Generator: Adobe Illustrator 16.0.0, SVG Export Plug-In . SVG Version: 6.00 Build 0)  -->
<!DOCTYPE svg PUBLIC "-//W3C//DTD SVG 1.1//EN" "http://www.w3.org/Graphics/SVG/1.1/DTD/svg11.dtd">
<svg version="1.1" id="Capa_1" xmlns="http://www.w3.org/2000/svg" xmlns:xlink="http://www.w3.org/1999/xlink" x="0px" y="0px"
	 width="57.168px" height="57.168px" viewBox="0 0 57.168 57.168" style="enable-background:new 0 0 57.168 57.168;"
	 xml:space="preserve">
<g>
	<g>
		<path d="M43.298,36.297l-1.688,9.188c8.974,2.68-0.962,20.496,9.313,6.172C59.412,39.827,48.658,36.98,43.298,36.297z"/>
		<path d="M15.511,45.502l-1.963-9.162c-5.453,0.758-15.624,3.721-7.305,15.317C16.5,65.955,6.621,48.23,15.511,45.502z"/>
		<path d="M44.202,19.002C43.459,12.12,35.568,0,29.258,0h-1.167c-6.309,0-15.106,12.12-15.936,19.002
			c-0.066,0.548,0.03,1.436,0.146,1.976l3.247,15.152l1.939,9.048l1.395,6.512c0.116,0.539,0.657,0.978,1.21,0.978h17.167
			c0.553,0,1.081-0.44,1.182-0.983l1.195-6.51l1.665-9.064l2.778-15.126C44.177,20.44,44.261,19.551,44.202,19.002z M28.508,43.288
			c-3.36,0-6.083-10.968-6.083-19.561c0-8.594,2.724-11.561,6.083-11.561s6.083,2.967,6.083,11.561
			C34.592,32.32,31.868,43.288,28.508,43.288z"/>
	</g>
</g>
<g>
</g>
<g>
</g>
<g>
</g>
<g>
</g>
<g>
</g>
<g>
</g>
<g>
</g>
<g>
</g>
<g>
</g>
<g>
</g>
<g>
</g>
<g>
</g>
<g>
</g>
<g>
</g>
<g>
</g>
</svg>
