<?xml version="1.0" encoding="iso-8859-1"?>
<!-- Generator: Adobe Illustrator 16.0.0, SVG Export Plug-In . SVG Version: 6.00 Build 0)  -->
<!DOCTYPE svg PUBLIC "-//W3C//DTD SVG 1.1//EN" "http://www.w3.org/Graphics/SVG/1.1/DTD/svg11.dtd">
<svg version="1.1" id="Capa_1" xmlns="http://www.w3.org/2000/svg" xmlns:xlink="http://www.w3.org/1999/xlink" x="0px" y="0px"
	 width="57.681px" height="57.681px" viewBox="0 0 57.681 57.681" style="enable-background:new 0 0 57.681 57.681;"
	 xml:space="preserve">
<g>
	<path d="M18.248,43.425c6.647,0,12.193-4.688,13.531-10.934c0.033-0.15,0.059-0.311,0.084-0.463
		c0.028-0.152,0.051-0.311,0.072-0.465l25.745-0.75l-1.627-4.099l-0.178-0.662l-0.125-0.475l-1.521-5.755h-1.906l0.716,5.511
		l0.062,0.469l0.062,0.469l-22.121-1.988c-0.066-0.164-0.146-0.322-0.223-0.484c-0.076-0.163-0.15-0.325-0.232-0.485
		c-1.869-3.678-5.323-6.413-9.47-7.288v-3.075h-4.155v2.866C9.469,16.812,0,26.017,0,33.243C0,40.892,10.601,43.425,18.248,43.425z
		 M2.791,31.931c2.594-7.669,8.903-11.435,11.709-12.16c3.537-0.917,6.73,2.25,8.131,5.953c0.191,0.504,0.341,1.017,0.462,1.533
		c0.183,0.782,0.292,1.567,0.292,2.321c0,0.77-0.108,1.412-0.292,1.973c-0.112,0.34-0.246,0.65-0.418,0.926
		c-1.355,2.135-4.505,2.295-8.175,2.295C9.593,34.769,1.219,36.579,2.791,31.931z M55.244,31.808l0.498,5.828h-2.102l-1.346-5.74
		l-0.076-0.336l2.996-0.09L55.244,31.808z M31.968,47.866c-5.854,0.145-11.642,0.936-17.515,0.756
		c-4.297-0.133-10.495-0.59-12.763-4.904c-0.831-1.578,1.559-2.979,2.391-1.396c2.269,4.314,10.466,3.619,14.525,3.562
		c4.466-0.063,8.901-0.674,13.362-0.785C33.755,45.054,33.751,47.821,31.968,47.866z M0.462,10.417c0-0.765,0.62-1.385,1.385-1.385
		h34.931c0.766,0,1.385,0.62,1.385,1.385c0,0.765-0.617,1.385-1.385,1.385H1.847C1.082,11.801,0.462,11.182,0.462,10.417z"/>
</g>
<g>
</g>
<g>
</g>
<g>
</g>
<g>
</g>
<g>
</g>
<g>
</g>
<g>
</g>
<g>
</g>
<g>
</g>
<g>
</g>
<g>
</g>
<g>
</g>
<g>
</g>
<g>
</g>
<g>
</g>
</svg>
