<?xml version="1.0" encoding="iso-8859-1"?>
<!-- Generator: Adobe Illustrator 18.1.1, SVG Export Plug-In . SVG Version: 6.00 Build 0)  -->
<svg version="1.1" id="Capa_1" xmlns="http://www.w3.org/2000/svg" xmlns:xlink="http://www.w3.org/1999/xlink" x="0px" y="0px"
	 viewBox="0 0 22.789 22.789" style="enable-background:new 0 0 22.789 22.789;" xml:space="preserve">
<g>
	<g>
		<rect x="3.87" y="9.728" style="fill:#030104;" width="1.097" height="6.629"/>
		<rect x="14.517" y="12.493" style="fill:#030104;" width="6.629" height="1.098"/>
		<path style="fill:#030104;" d="M12.056,16.796v-5.659c2.902-0.82,4.215-3.118,4.589-6.589h4.639V3.475h-4.696
			c-0.011-1.38-0.262-2.517-0.69-3.475c-0.521,0-1.045,0-1.565,0c0.302,1.03,0.731,2.159,0.589,3.475H7.967
			C7.979,2.118,8.321,1.085,8.602,0c-0.64,0-1.274,0-1.913,0C6.181,0.854,6.043,2.339,5.951,3.475H1.085v1.074h4.914
			c0.444,3.385,1.786,5.878,4.85,6.642v5.67c-4.607,0.393-8.11,1.968-8.863,5.928h2.655c0-2.64,3.136-4.48,6.208-4.517v4.517h1.207
			v-4.49c3.719,0.202,6.974,1.586,7.271,4.49h2.376C20.646,18.798,16.666,16.993,12.056,16.796z M10.801,9.727
			c-1.798-0.489-2.489-2.97-2.778-5.04C8.021,4.617,8.05,4.576,8.09,4.548h6.819c-0.207,2.109-0.973,4.703-2.834,5.178
			C11.631,9.839,11.207,9.833,10.801,9.727z"/>
	</g>
</g>
<g>
</g>
<g>
</g>
<g>
</g>
<g>
</g>
<g>
</g>
<g>
</g>
<g>
</g>
<g>
</g>
<g>
</g>
<g>
</g>
<g>
</g>
<g>
</g>
<g>
</g>
<g>
</g>
<g>
</g>
</svg>
