<?xml version="1.0" encoding="iso-8859-1"?>
<!-- Generator: Adobe Illustrator 18.1.1, SVG Export Plug-In . SVG Version: 6.00 Build 0)  -->
<svg version="1.1" id="Capa_1" xmlns="http://www.w3.org/2000/svg" xmlns:xlink="http://www.w3.org/1999/xlink" x="0px" y="0px"
	 viewBox="0 0 64.758 64.758" style="enable-background:new 0 0 64.758 64.758;" xml:space="preserve">
<g>
	<path style="fill:#030104;" d="M1.322,34.037c-1.421-1.511-1.773-3.866,2.537-7.23c2.148,3.892,6.442,3.224,6.442,3.224h44.158
		c0,0,4.297,0.669,6.445-3.224c4.395,3.437,3.941,5.812,2.449,7.316c-0.865-0.418-1.703-0.561-2.496-0.42
		c-1.646,0.289-2.432,1.67-2.465,1.729l-0.087,0.234c-0.002,0.01-0.058,0.223-0.267,0.312c-0.188,0.08-0.888,0.209-2.545-0.838
		c-1.623-1.02-3.033-1.355-4.162-0.996c-1.151,0.369-1.562,1.336-1.569,1.363c-0.002,0.008-0.193,0.424-0.562,0.506
		c-0.392,0.09-0.994-0.199-1.654-0.791c-0.903-0.807-1.856-1.221-2.836-1.221c-0.071,0-0.147,0.002-0.226,0.01
		c-1.592,0.094-2.604,1.232-2.646,1.281l-0.098,0.139c-0.004,0.008-0.371,0.637-1.062,0.758c-0.022,0.008-0.049,0.008-0.074,0.01
		h-0.358c-0.541-0.062-1.158-0.391-1.838-0.98c-1.25-1.09-2.474-1.545-3.611-1.344c-1.467,0.262-2.166,1.523-2.163,1.523
		c-0.006,0.01-0.398,0.605-1.021,0.688c-0.519,0.064-1.11-0.221-1.769-0.846c-0.998-0.945-2.045-1.375-3.087-1.283
		c-1.479,0.141-2.338,1.287-2.441,1.432c-0.124,0.188-0.466,0.6-0.887,0.812h-1.006c-0.37-0.189-0.706-0.547-0.953-0.867
		c-0.908-1.174-1.851-1.719-2.835-1.609c-1.441,0.168-2.144,1.738-2.18,1.822c-0.053,0.137-0.224,0.469-0.457,0.656h-0.775
		c-0.306-0.162-0.659-0.473-1.03-0.9c-0.975-1.127-2.015-1.66-3.093-1.58c-1.646,0.119-2.606,1.645-2.657,1.73
		c-0.002,0.006-0.309,0.553-0.805,0.752h-0.77c-0.392-0.137-0.826-0.445-1.288-0.932c-1.017-1.064-2.097-1.572-3.215-1.494
		C1.982,33.809,1.632,33.906,1.322,34.037z M60.957,34.506c-1.449,0.256-2.154,1.479-2.186,1.529l-0.043,0.125
		c-0.004,0.018-0.092,0.42-0.5,0.6c-0.342,0.146-1.178,0.229-2.918-0.867c-1.521-0.957-2.812-1.275-3.824-0.949
		c-0.973,0.311-1.312,1.104-1.326,1.143c-0.002,0.006-0.266,0.604-0.838,0.736c-0.531,0.119-1.229-0.188-2.012-0.887
		c-0.89-0.795-1.814-1.176-2.771-1.111c-1.414,0.084-2.328,1.102-2.362,1.146l-0.054,0.072c-0.004,0.01-0.446,0.799-1.338,0.953
		c-0.769,0.141-1.644-0.219-2.604-1.062c-1.164-1.012-2.269-1.43-3.277-1.252c-1.268,0.227-1.879,1.318-1.895,1.344
		c-0.007,0.01-0.489,0.768-1.312,0.871c-0.642,0.082-1.345-0.238-2.098-0.949c-0.913-0.867-1.847-1.262-2.771-1.174
		c-1.315,0.123-2.094,1.184-2.14,1.25c-0.007,0.012-0.715,1.082-1.668,1.123c-0.604,0.037-1.223-0.357-1.835-1.152
		c-0.82-1.061-1.652-1.547-2.47-1.457c-1.192,0.141-1.814,1.48-1.851,1.566c-0.003,0.012-0.349,0.91-1.015,1.033
		c-0.524,0.092-1.19-0.307-1.927-1.158c-0.887-1.027-1.814-1.518-2.76-1.447c-1.415,0.104-2.278,1.438-2.331,1.523
		c-0.005,0.012-0.497,0.902-1.341,1.021c-0.651,0.092-1.381-0.287-2.172-1.115c-0.933-0.982-1.917-1.441-2.895-1.373
		C0.953,34.692,0.038,35.947,0,36.002l0.655,0.469c0.008-0.01,0.729-1.002,1.825-1.082c0.734-0.051,1.496,0.326,2.255,1.125
		c0.98,1.029,1.946,1.486,2.866,1.355c1.263-0.176,1.915-1.396,1.926-1.416c0.007-0.014,0.679-1.049,1.694-1.123
		c0.674-0.047,1.381,0.342,2.091,1.17c0.834,0.967,1.631,1.451,2.375,1.451c0.104,0,0.205-0.01,0.305-0.027
		c1.126-0.205,1.606-1.496,1.614-1.52c0.005-0.012,0.463-0.986,1.204-1.072c0.644-0.076,1.299,0.586,1.735,1.15
		c0.784,1.014,1.623,1.508,2.51,1.465c1.383-0.061,2.274-1.438,2.298-1.479c0.006-0.008,0.595-0.809,1.549-0.895
		c0.687-0.066,1.407,0.258,2.143,0.951c0.941,0.895,1.869,1.285,2.764,1.168c1.208-0.158,1.856-1.201,1.892-1.262
		c0.004-0.01,0.463-0.809,1.35-0.961c0.758-0.133,1.633,0.23,2.6,1.07c1.16,1.01,2.263,1.426,3.275,1.25
		c1.131-0.201,1.738-1.092,1.875-1.314c0.131-0.135,0.812-0.791,1.785-0.85c0.729-0.045,1.465,0.26,2.188,0.908
		c1,0.895,1.916,1.252,2.728,1.068c0.983-0.227,1.388-1.18,1.401-1.213c0.009-0.021,0.226-0.5,0.845-0.691
		c0.767-0.232,1.853,0.066,3.133,0.875c1.578,0.988,2.816,1.299,3.683,0.916c0.656-0.293,0.873-0.877,0.938-1.1
		c0.117-0.188,0.646-0.928,1.6-1.094c0.922-0.162,1.976,0.254,3.135,1.244l0.521-0.615C63.404,34.776,62.125,34.295,60.957,34.506z"
		/>
</g>
<g>
</g>
<g>
</g>
<g>
</g>
<g>
</g>
<g>
</g>
<g>
</g>
<g>
</g>
<g>
</g>
<g>
</g>
<g>
</g>
<g>
</g>
<g>
</g>
<g>
</g>
<g>
</g>
<g>
</g>
</svg>
