<?xml version="1.0" encoding="iso-8859-1"?>
<!-- Generator: Adobe Illustrator 18.1.1, SVG Export Plug-In . SVG Version: 6.00 Build 0)  -->
<svg version="1.1" id="Capa_1" xmlns="http://www.w3.org/2000/svg" xmlns:xlink="http://www.w3.org/1999/xlink" x="0px" y="0px"
	 viewBox="0 0 48.755 48.755" style="enable-background:new 0 0 48.755 48.755;" xml:space="preserve">
<g>
	<path style="fill:#030104;" d="M11.364,27.228c-2.601,0-4.707,2.106-4.707,4.706s2.106,4.706,4.707,4.706
		c2.603,0,4.708-2.106,4.708-4.706S13.964,27.228,11.364,27.228z M11.364,34.062c-1.173,0-2.126-0.954-2.126-2.127
		c0-1.174,0.953-2.127,2.126-2.127c1.175,0,2.127,0.953,2.127,2.127C13.491,33.108,12.539,34.062,11.364,34.062z M36.725,27.228
		c-2.6,0-4.707,2.106-4.707,4.706s2.107,4.706,4.707,4.706c2.602,0,4.709-2.106,4.709-4.706S39.325,27.228,36.725,27.228z
		 M36.725,34.062c-1.172,0-2.125-0.954-2.125-2.127c0-1.174,0.953-2.127,2.125-2.127c1.174,0,2.129,0.953,2.129,2.127
		C38.854,33.108,37.899,34.062,36.725,34.062z M46.42,16.826c-0.477,0-0.912,0.144-1.277,0.385l-0.008-3.661
		c0,0,0.18-1.434-1.289-1.434c-1.471-0.001-22.282-0.001-23.606-0.001c-1.322,0-1.47,1.252-1.47,1.252l-2.326,6.772
		c0,0-10.104,0.037-12.507,0.037c-2.406,0-2.356,1.36-2.356,1.36v6.054c0,0.023,0.004,0.049,0.004,0.07H0v5.086h5.369
		c-0.063-0.359-0.104-0.728-0.104-1.109c0-3.294,2.671-5.965,5.968-5.965c3.292,0,5.962,2.671,5.962,5.965
		c0,0.38-0.039,0.75-0.104,1.109H30.95c-0.066-0.359-0.104-0.729-0.104-1.109c0-3.294,2.67-5.965,5.965-5.965
		s5.965,2.671,5.965,5.965c0,0.39-0.039,0.769-0.107,1.138l2.504,0.045h2.584v-3.151h-2.584v0.059l-0.006-1.99
		c0.361,0.234,0.795,0.372,1.26,0.372c1.285,0,2.328-1.043,2.328-2.329v-6.626C48.749,17.867,47.706,16.826,46.42,16.826z
		 M29.981,20.211H19.666l1.719-6.448h8.598L29.981,20.211L29.981,20.211z M42.879,20.354L42.879,20.354H31.557v-6.591h11.322V20.354
		L42.879,20.354z"/>
</g>
<g>
</g>
<g>
</g>
<g>
</g>
<g>
</g>
<g>
</g>
<g>
</g>
<g>
</g>
<g>
</g>
<g>
</g>
<g>
</g>
<g>
</g>
<g>
</g>
<g>
</g>
<g>
</g>
<g>
</g>
</svg>
