<?xml version="1.0" encoding="iso-8859-1"?>
<!-- Generator: Adobe Illustrator 18.1.1, SVG Export Plug-In . SVG Version: 6.00 Build 0)  -->
<svg version="1.1" id="Capa_1" xmlns="http://www.w3.org/2000/svg" xmlns:xlink="http://www.w3.org/1999/xlink" x="0px" y="0px"
	 viewBox="0 0 43.333 43.333" style="enable-background:new 0 0 43.333 43.333;" xml:space="preserve">
<g>
	<g>
		<rect x="18.876" y="13.757" style="fill:#030104;" width="6.015" height="1.204"/>
		<path style="fill:#030104;" d="M36.181,7.329H7.151v10.709H3.442v6.263h3.709v8.882H36.18v-9.795h3.709v-6.263H36.18L36.181,7.329
			L36.181,7.329z M9.406,11.617h24.192v8.64H9.406V11.617z M12.486,31.502c-1.545,0-2.797-1.252-2.797-2.796
			c0-1.545,1.251-2.797,2.797-2.797c1.541,0,2.794,1.252,2.794,2.797C15.281,30.25,14.027,31.502,12.486,31.502z M26.184,31.668
			h-8.6v-7.096h8.6V31.668z M30.845,31.502c-1.545,0-2.796-1.252-2.796-2.796c0-1.545,1.251-2.797,2.796-2.797
			c1.542,0,2.796,1.252,2.796,2.797C33.641,30.25,32.386,31.502,30.845,31.502z"/>
		<rect x="7.151" y="37.573" style="fill:#030104;" width="4.354" height="5.76"/>
		<rect x="31.986" y="37.573" style="fill:#030104;" width="4.195" height="5.76"/>
		<rect x="6.546" y="33.891" style="fill:#030104;" width="30.238" height="2.772"/>
		<polygon style="fill:#030104;" points="3.442,0 3.442,4.573 3.442,6.019 3.442,14.988 5.862,14.988 5.862,6.019 37.47,6.019 
			37.47,14.988 39.891,14.988 39.891,6.019 39.891,0 		"/>
	</g>
</g>
<g>
</g>
<g>
</g>
<g>
</g>
<g>
</g>
<g>
</g>
<g>
</g>
<g>
</g>
<g>
</g>
<g>
</g>
<g>
</g>
<g>
</g>
<g>
</g>
<g>
</g>
<g>
</g>
<g>
</g>
</svg>
