<?xml version="1.0" encoding="iso-8859-1"?>
<!-- Generator: Adobe Illustrator 18.1.1, SVG Export Plug-In . SVG Version: 6.00 Build 0)  -->
<svg version="1.1" id="Capa_1" xmlns="http://www.w3.org/2000/svg" xmlns:xlink="http://www.w3.org/1999/xlink" x="0px" y="0px"
	 viewBox="0 0 57.902 57.902" style="enable-background:new 0 0 57.902 57.902;" xml:space="preserve">
<g>
	<g>
		<path style="fill:#030104;" d="M22.776,16.593l-3.2,9.311c0,0-11.722,0.043-14.512,0.043c-2.791,0-2.738,1.579-2.738,1.579v7.022
			c0,0.028,0.004,0.056,0.005,0.082H0v5.902h6.731c-0.077-0.418-0.125-0.848-0.125-1.287c0-3.822,3.099-6.921,6.92-6.921
			c3.822,0,6.921,3.099,6.921,6.921c0,0.439-0.045,0.869-0.125,1.287h16.083c-0.076-0.418-0.123-0.848-0.123-1.287
			c0-3.822,3.101-6.921,6.92-6.921c3.822,0,6.92,3.099,6.92,6.921c0,0.45-0.045,0.893-0.129,1.32l4.617,0.052l-7.73-24.025
			L22.776,16.593L22.776,16.593z M30.795,25.988h-7.48l1.996-7.481h5.484C30.795,18.507,30.795,25.988,30.795,25.988z
			 M42.435,26.154h-9.81v-7.648h9.81V26.154z M43.717,26.056v-7.479h2.297l1.516,7.479H43.717z"/>
		<path style="fill:#030104;" d="M13.686,34.129c-3.017,0-5.46,2.444-5.46,5.46c0,3.018,2.444,5.461,5.46,5.461
			s5.46-2.443,5.46-5.461C19.146,36.574,16.702,34.129,13.686,34.129z M13.686,42.058c-1.362,0-2.469-1.106-2.469-2.47
			c0-1.359,1.106-2.469,2.469-2.469c1.361,0,2.467,1.108,2.467,2.469C16.153,40.952,15.047,42.058,13.686,42.058z"/>
		<path style="fill:#030104;" d="M43.111,34.129c-3.014,0-5.461,2.444-5.461,5.46c0,3.018,2.447,5.461,5.461,5.461
			c3.017,0,5.462-2.443,5.462-5.461C48.573,36.574,46.125,34.129,43.111,34.129z M43.111,42.058c-1.36,0-2.468-1.106-2.468-2.47
			c0-1.359,1.105-2.469,2.468-2.469s2.47,1.108,2.47,2.469C45.581,40.952,44.473,42.058,43.111,42.058z"/>
		<path style="fill:#030104;" d="M57.766,32.118l-3.721-10.025c-0.412-1.119-1.658-1.688-2.774-1.273
			c-1.12,0.415-1.688,1.659-1.274,2.777l3.719,10.023c0.414,1.12,1.658,1.688,2.777,1.273C57.612,34.48,58.182,33.238,57.766,32.118
			z"/>
		<path style="fill:#030104;" d="M26.407,15.066h18.108c0.612,0,1.106-0.496,1.106-1.105c0.001-0.614-0.494-1.108-1.106-1.108
			H26.407c-0.612,0-1.107,0.494-1.107,1.107C25.299,14.571,25.795,15.066,26.407,15.066z"/>
	</g>
</g>
<g>
</g>
<g>
</g>
<g>
</g>
<g>
</g>
<g>
</g>
<g>
</g>
<g>
</g>
<g>
</g>
<g>
</g>
<g>
</g>
<g>
</g>
<g>
</g>
<g>
</g>
<g>
</g>
<g>
</g>
</svg>
