<?xml version="1.0" encoding="iso-8859-1"?>
<!-- Generator: Adobe Illustrator 18.1.1, SVG Export Plug-In . SVG Version: 6.00 Build 0)  -->
<svg version="1.1" id="Capa_1" xmlns="http://www.w3.org/2000/svg" xmlns:xlink="http://www.w3.org/1999/xlink" x="0px" y="0px"
	 viewBox="0 0 51.115 51.115" style="enable-background:new 0 0 51.115 51.115;" xml:space="preserve">
<g>
	<g>
		<path style="fill:#030104;" d="M35.346,23.576H7.205v2.046h-1.77v21.437h32.447V25.621h-2.537L35.346,23.576L35.346,23.576z
			 M14.471,45.083H9.009V28.16h5.462V45.083z M24.39,45.083h-5.461V28.16h5.461V45.083z M34.341,45.083h-5.464V28.16h5.464V45.083z"
			/>
		<rect x="18.6" y="21.906" style="fill:#030104;" width="5.709" height="1.668"/>
		<polygon style="fill:#030104;" points="23.147,14.519 23.267,14.252 19.212,12.415 19.112,12.637 0.715,4.056 0,5.589 
			18.414,14.177 18.402,14.202 19.257,14.587 19.161,14.818 22.493,18.148 20.468,20.171 21.31,21.013 24.175,18.148 21.767,15.744 
			50.401,29.097 51.115,27.563 		"/>
	</g>
</g>
<g>
</g>
<g>
</g>
<g>
</g>
<g>
</g>
<g>
</g>
<g>
</g>
<g>
</g>
<g>
</g>
<g>
</g>
<g>
</g>
<g>
</g>
<g>
</g>
<g>
</g>
<g>
</g>
<g>
</g>
</svg>
