<?xml version="1.0" encoding="iso-8859-1"?>
<!-- Generator: Adobe Illustrator 18.1.1, SVG Export Plug-In . SVG Version: 6.00 Build 0)  -->
<svg version="1.1" id="Capa_1" xmlns="http://www.w3.org/2000/svg" xmlns:xlink="http://www.w3.org/1999/xlink" x="0px" y="0px"
	 viewBox="0 0 331.913 331.913" style="enable-background:new 0 0 331.913 331.913;" xml:space="preserve">
<g>
	<g>
		<path style="fill:#010002;" d="M68.132,250.153h1.539l22.11-0.005l150.412-0.033l22.083-0.005h0.321
			c0.555,0,1.218-0.402,1.947-1.088c4.368-4.134,11.379-19.945,15.724-39.052l-0.451-99.16c-0.027-4.797-0.707-12.847-1.49-17.584
			l-10.22-88.88C269.737,2.159,267.191,0,264.7,0H62.269c-2.382,0-4.906,2.072-5.45,4.406l-5.298,88.863
			c-0.805,4.705-1.485,12.733-1.485,17.519v100.177c4.999,17.318,12.173,33.592,16.573,38.057
			C67.159,249.582,67.676,249.99,68.132,250.153z M235.906,229.306h-37.383c-9.975,0-18.063-8.088-18.063-18.063
			c0-9.975,8.088-18.063,18.063-18.063h37.383c9.975,0,18.063,8.088,18.063,18.063C253.969,221.218,245.881,229.306,235.906,229.306
			z M132.564,229.306H95.181c-9.975,0-18.063-8.088-18.063-18.063c0-9.975,8.088-18.063,18.063-18.063h37.383
			c9.975,0,18.063,8.088,18.063,18.063C150.627,221.218,142.539,229.306,132.564,229.306z M71.679,110.772
			c0-3.987,0.544-10.405,1.218-14.332l1.659-67.678c0.674-3.927,4.449-7.114,8.436-7.114h160.975c3.987,0,7.751,3.187,8.403,7.12
			l6.701,67.667c0.653,3.932,1.197,10.356,1.218,14.337l0.332,53.292c0.038,6.01-4.808,10.949-10.813,11.025
			c-69.511,0.859-140.671,0.267-167.251-0.022c-6.01-0.065-10.878-4.998-10.878-11.003
			C71.679,164.064,71.679,110.772,71.679,110.772z"/>
		<path style="fill:#010002;" d="M281.877,287.096h-10.949l-2.573-14.278h10.628l-3.742-17.508c-2.72,3.013-5.749,4.955-9.056,5.461
			c-0.533,0.082-1.05,0.218-1.599,0.218h-20.222H89.595H67.812c-0.065,0-0.125-0.027-0.19-0.027
			c-4.068-0.092-7.881-3.133-11.362-7.81l-4.199,19.668h13.315l-2.703,14.278H50.037l-5.439,23.796h13.565l-3.606,19.037h21.147
			l3.835-19.037h174.833l4.215,21.022h20.402l-3.786-21.022h12.113L281.877,287.096z M84.335,287.096l2.877-14.278H246.74
			l2.861,14.278H84.335z"/>
	</g>
</g>
<g>
</g>
<g>
</g>
<g>
</g>
<g>
</g>
<g>
</g>
<g>
</g>
<g>
</g>
<g>
</g>
<g>
</g>
<g>
</g>
<g>
</g>
<g>
</g>
<g>
</g>
<g>
</g>
<g>
</g>
</svg>
