<?xml version="1.0" encoding="iso-8859-1"?>
<!-- Generator: Adobe Illustrator 18.1.1, SVG Export Plug-In . SVG Version: 6.00 Build 0)  -->
<svg version="1.1" id="Capa_1" xmlns="http://www.w3.org/2000/svg" xmlns:xlink="http://www.w3.org/1999/xlink" x="0px" y="0px"
	 viewBox="0 0 333.132 333.132" style="enable-background:new 0 0 333.132 333.132;" xml:space="preserve">
<g>
	<g>
		<path style="fill:#010002;" d="M325.251,179.408C315.107,83.511,262.114,70.773,198.221,70.773
			c-49.778,0-92.943,7.723-114.389,56.474v-0.049c0,0-44.981,20.859-60.7,25.226c-6.505,1.806-10.612,12.891-13.201,25.259
			C3.911,182.704,0,190.166,0,198.618c0,6.233,2.165,11.912,5.673,16.513c-0.005,0.114-0.005,0.174-0.005,0.174h0.147
			c5.004,6.456,12.749,10.682,21.555,10.682h1.006c0-3.682,0.462-7.245,1.256-10.682c4.525-19.548,21.147-34.446,41.576-36.344
			c1.458-0.136,2.926-0.223,4.417-0.223c2.807,0,5.537,0.288,8.208,0.761c18.672,3.274,33.543,17.487,37.785,35.811
			c0.794,3.437,1.256,7.005,1.256,10.682h90.424c0-3.682,0.462-7.245,1.256-10.682c4.846-20.94,23.578-36.567,45.993-36.567
			s41.147,15.626,45.993,36.567c0.783,3.372,1.235,6.875,1.246,10.481c14.152-1.05,25.346-12.738,25.346-27.163
			C333.148,191.123,330.124,184.346,325.251,179.408z"/>
		<path style="fill:#010002;" d="M296.929,225.982c0-3.715-0.566-7.305-1.605-10.682c-4.574-14.86-18.428-25.689-34.767-25.689
			s-30.192,10.829-34.766,25.689c-1.039,3.378-1.605,6.967-1.605,10.682c0,20.059,16.317,36.376,36.376,36.376
			S296.929,246.036,296.929,225.982z M240.684,225.982c0-3.943,1.18-7.593,3.16-10.682c3.53-5.515,9.676-9.192,16.714-9.192
			c7.033,0,13.179,3.677,16.714,9.192c1.98,3.089,3.16,6.744,3.16,10.682c0,10.976-8.898,19.874-19.874,19.874
			C249.582,245.857,240.684,236.958,240.684,225.982z"/>
		<path style="fill:#010002;" d="M75.63,262.353c20.059,0,36.376-16.317,36.376-36.376c0-3.715-0.566-7.305-1.605-10.682
			c-3.786-12.287-13.924-21.794-26.559-24.721c-2.643-0.615-5.379-0.968-8.208-0.968c-1.828,0-3.606,0.179-5.363,0.441
			c-13.946,2.078-25.341,12.053-29.404,25.248c-1.039,3.378-1.605,6.967-1.605,10.682C39.254,246.036,55.571,262.353,75.63,262.353z
			 M58.916,215.3c2.453-3.829,6.19-6.695,10.595-8.131c1.936-0.631,3.965-1.061,6.114-1.061c2.937,0,5.7,0.674,8.208,1.817
			c3.503,1.594,6.445,4.161,8.507,7.375c1.98,3.089,3.16,6.744,3.16,10.682c0,10.976-8.898,19.874-19.874,19.874
			s-19.874-8.898-19.874-19.874C55.756,222.039,56.936,218.389,58.916,215.3z"/>
	</g>
</g>
<g>
</g>
<g>
</g>
<g>
</g>
<g>
</g>
<g>
</g>
<g>
</g>
<g>
</g>
<g>
</g>
<g>
</g>
<g>
</g>
<g>
</g>
<g>
</g>
<g>
</g>
<g>
</g>
<g>
</g>
</svg>
