<?xml version="1.0" encoding="iso-8859-1"?>
<!-- Generator: Adobe Illustrator 18.1.1, SVG Export Plug-In . SVG Version: 6.00 Build 0)  -->
<svg version="1.1" id="Capa_1" xmlns="http://www.w3.org/2000/svg" xmlns:xlink="http://www.w3.org/1999/xlink" x="0px" y="0px"
	 viewBox="0 0 313.655 313.655" style="enable-background:new 0 0 313.655 313.655;" xml:space="preserve">
<g>
	<g>
		<path style="fill:#010002;" d="M60.281,192.858c20.783,0,37.736,16.557,38.46,37.165h129.765c0-0.027,0.005-0.054,0.005-0.082
			c0.25-6.63,2.17-12.825,5.368-18.194c6.728-11.286,19.02-18.89,33.086-18.89c20.663,0,37.535,16.366,38.443,36.812
			c4.727-1.18,8.246-5.428,8.246-10.519V123.51c0-6.01-3.742-13.995-8.354-17.84l-26.798-22.333
			c-4.618-3.845-13.228-6.962-19.233-6.962h-29.915c-6.01,0-10.878,4.868-10.878,10.878v97.027H0v45.748h21.822
			C22.545,209.415,39.498,192.858,60.281,192.858z M244.236,108.95c0-6.01,4.688-10.878,10.47-10.878
			c5.782,0,14.212,3.117,18.83,6.962l11.427,9.524c4.618,3.845,8.354,11.835,8.354,17.84v5.216c0,6.01-4.868,10.878-10.878,10.878
			h-27.331c-6.01,0-10.878-4.868-10.878-10.878V108.95H244.236z"/>
		<path style="fill:#010002;" d="M207.364,103.571c0-36.045-29.224-48.952-65.269-48.952H65.269C29.224,54.619,0,67.526,0,103.571
			v66.629h207.364V103.571z M101.526,149.803c-44.557,0-80.678-16.845-80.678-37.622s36.121-37.622,80.678-37.622
			s80.678,16.845,80.678,37.622C182.209,132.958,146.088,149.803,101.526,149.803z"/>
		<path style="fill:#010002;" d="M294.476,230.029c-0.723-14.604-12.733-26.287-27.511-26.287
			c-14.778,0-26.787,11.683-27.511,26.287c-0.022,0.462-0.136,0.892-0.136,1.36c0,15.246,12.401,27.647,27.647,27.647
			c15.246,0,27.647-12.401,27.647-27.647C294.612,230.921,294.498,230.486,294.476,230.029z"/>
		<path style="fill:#010002;" d="M87.928,231.389c0-0.468-0.114-0.897-0.136-1.36c-0.723-14.604-12.733-26.287-27.511-26.287
			s-26.787,11.683-27.511,26.287c-0.022,0.462-0.136,0.892-0.136,1.36c0,15.246,12.401,27.647,27.647,27.647
			S87.928,246.634,87.928,231.389z"/>
	</g>
</g>
<g>
</g>
<g>
</g>
<g>
</g>
<g>
</g>
<g>
</g>
<g>
</g>
<g>
</g>
<g>
</g>
<g>
</g>
<g>
</g>
<g>
</g>
<g>
</g>
<g>
</g>
<g>
</g>
<g>
</g>
</svg>
