<?xml version="1.0" encoding="iso-8859-1"?>
<!-- Generator: Adobe Illustrator 18.1.1, SVG Export Plug-In . SVG Version: 6.00 Build 0)  -->
<svg version="1.1" id="Capa_1" xmlns="http://www.w3.org/2000/svg" xmlns:xlink="http://www.w3.org/1999/xlink" x="0px" y="0px"
	 viewBox="0 0 324.564 324.564" style="enable-background:new 0 0 324.564 324.564;" xml:space="preserve">
<g>
	<g>
		<path style="fill:#010002;" d="M172.416,20.965c-4.504,0-8.159,3.65-8.159,8.159v225.933l16.317-0.065V29.123
			C180.575,24.62,176.92,20.965,172.416,20.965z"/>
		<path style="fill:#010002;" d="M2.435,269.291l16.66,17.356c4.302,4.482,12.804,8.49,18.999,8.942
			c34.288,2.502,139.224,9.975,202.458,12.406c2.138,0.082,4.221,0.12,6.255,0.12c49.501,0,69.332-23.649,76.778-37.845
			c2.877-5.488-0.908-10.394-7.093-10.394c-0.016,0-0.033,0-0.049,0L180.57,260.42l-16.317,0.065L5.894,261.132
			C-0.317,261.159-1.867,264.814,2.435,269.291z"/>
		<path style="fill:#010002;" d="M291.918,249.139c1.974,0,3.443-0.566,4.019-1.55c0.582-0.984,0.37-2.54-0.577-4.27L189.734,51.559
			c-0.114-0.196-0.212-0.375-0.315-0.544c-0.005,0.196-0.011,0.402-0.011,0.625V240.61c0,4.705,3.824,8.528,8.523,8.528H291.918z"/>
		<path style="fill:#010002;" d="M148.767,20.084L20.971,242.112c-3.1,5.385-0.577,9.747,5.635,9.747h116.527
			c6.211,0,11.248-5.037,11.248-11.243V21.585C154.381,15.373,151.868,14.704,148.767,20.084z"/>
	</g>
</g>
<g>
</g>
<g>
</g>
<g>
</g>
<g>
</g>
<g>
</g>
<g>
</g>
<g>
</g>
<g>
</g>
<g>
</g>
<g>
</g>
<g>
</g>
<g>
</g>
<g>
</g>
<g>
</g>
<g>
</g>
</svg>
