<?xml version="1.0" encoding="iso-8859-1"?>
<!-- Generator: Adobe Illustrator 18.1.1, SVG Export Plug-In . SVG Version: 6.00 Build 0)  -->
<svg version="1.1" id="Capa_1" xmlns="http://www.w3.org/2000/svg" xmlns:xlink="http://www.w3.org/1999/xlink" x="0px" y="0px"
	 viewBox="0 0 331.908 331.908" style="enable-background:new 0 0 331.908 331.908;" xml:space="preserve">
<g>
	<g>
		<path style="fill:#010002;" d="M67.651,4.629L51.513,93.313c-0.8,4.667-1.479,12.695-1.479,17.47V210.96
			c4.998,17.318,12.173,33.592,16.573,38.057c0.555,0.56,1.071,0.968,1.528,1.131h1.539l22.11-0.005l150.412-0.033l22.083-0.005
			h0.321c0.555,0,1.218-0.402,1.947-1.088c4.368-4.134,11.379-19.945,15.73-39.052l-0.457-99.16
			c-0.022-4.808-0.702-12.858-1.49-17.579l-15.61-88.559C264.3,2.154,261.76,0,259.269,0H73.15
			C70.686-0.005,68.064,2.203,67.651,4.629z M61.576,167.599c5.782-8.773,17.59-11.21,26.374-5.423l31.101,20.494v25.591
			c0,10.514-8.523,19.037-19.037,19.037s-19.037-8.523-19.037-19.037v-5.08l-13.978-9.208
			C58.22,188.186,55.794,176.383,61.576,167.599z M269.147,167.599c5.787,8.779,3.361,20.587-5.423,26.374l-13.973,9.203v5.086
			c0,10.514-8.523,19.037-19.037,19.037c-10.514,0-19.037-8.523-19.037-19.037v-25.585l31.101-20.5
			C251.562,156.395,263.37,158.826,269.147,167.599z M93.867,21.642h144.657c3.987,0,7.751,3.187,8.403,7.12l12.14,67.667
			c0.653,3.932,1.197,10.356,1.218,14.337l0.402,31.536c-95.885,33.129-189.007,0-189.007,0v-31.536
			c0-3.987,0.544-10.405,1.218-14.332l12.537-67.678C86.1,24.824,89.881,21.642,93.867,21.642z"/>
		<circle style="fill:#010002;" cx="100.356" cy="204.743" r="11.574"/>
		<circle style="fill:#010002;" cx="81.782" cy="181.523" r="11.574"/>
		<circle style="fill:#010002;" cx="248.957" cy="181.523" r="11.574"/>
		<circle style="fill:#010002;" cx="230.382" cy="204.743" r="11.574"/>
		<path style="fill:#010002;" d="M281.874,287.09h-10.949l-2.573-14.278h10.628l-3.742-17.508c-2.72,3.013-5.749,4.955-9.056,5.461
			c-0.533,0.082-1.05,0.218-1.599,0.218h-20.222H89.592H67.814c-0.065,0-0.125-0.027-0.19-0.027
			c-4.068-0.092-7.881-3.133-11.362-7.805l-4.204,19.662h13.315l-2.703,14.278H50.034l-5.439,23.796H58.16l-3.606,19.037h21.147
			l3.835-19.037h174.833l4.215,21.022h20.402l-3.786-21.022h12.113L281.874,287.09z M84.333,287.09l2.877-14.278h159.528
			l2.861,14.278H84.333z"/>
	</g>
</g>
<g>
</g>
<g>
</g>
<g>
</g>
<g>
</g>
<g>
</g>
<g>
</g>
<g>
</g>
<g>
</g>
<g>
</g>
<g>
</g>
<g>
</g>
<g>
</g>
<g>
</g>
<g>
</g>
<g>
</g>
</svg>
