<?xml version="1.0" encoding="iso-8859-1"?>
<!-- Generator: Adobe Illustrator 18.1.1, SVG Export Plug-In . SVG Version: 6.00 Build 0)  -->
<svg version="1.1" id="Capa_1" xmlns="http://www.w3.org/2000/svg" xmlns:xlink="http://www.w3.org/1999/xlink" x="0px" y="0px"
	 viewBox="0 0 48.605 48.605" style="enable-background:new 0 0 48.605 48.605;" xml:space="preserve">
<g>
	<path style="fill:#030104;" d="M45.477,12.718c-2.082,0-22.896,0-26.54,0c-3.643,0-10.59,8.964-10.59,8.964
		s-3.98,0.667-6.581,2.227c-2.602,1.562-1.559,7.808-1.559,7.808H4.24c0-2.589,2.097-4.687,4.681-4.687
		c2.589,0,4.685,2.098,4.685,4.687h19.321c0-2.589,2.097-4.687,4.681-4.687c2.592,0,4.687,2.098,4.687,4.687h6.31v-11.45
		C48.6,20.266,47.559,12.718,45.477,12.718z M3.86,26.151H1.703v-1.367h2.156L3.86,26.151L3.86,26.151z M23.949,20.035H12.435
		c0,0,4.102-5.202,6.051-5.202c1.951,0,5.464,0,5.464,0v5.202H23.949z M35.333,20.035h-9.039v-5.202h9.039V20.035z M37.809,20.035
		l-0.002-5.202h7.024l1.172,5.202H37.809z M47.293,28.88h-0.729v-8.614h0.729V28.88z M8.812,27.544c-2.302,0-4.172,1.865-4.172,4.17
		c0,2.306,1.869,4.173,4.172,4.173c2.306,0,4.171-1.867,4.171-4.173C12.982,29.411,11.115,27.544,8.812,27.544z M8.812,33.544
		c-1.009,0-1.829-0.821-1.829-1.83c0-1.01,0.821-1.829,1.829-1.829c1.012,0,1.83,0.819,1.83,1.829
		C10.642,32.724,9.821,33.544,8.812,33.544z M37.478,27.544c-2.303,0-4.171,1.865-4.171,4.17c0,2.306,1.868,4.173,4.171,4.173
		c2.305,0,4.171-1.867,4.171-4.173C41.648,29.411,39.78,27.544,37.478,27.544z M37.479,33.544c-1.01,0-1.829-0.821-1.829-1.83
		c0-1.01,0.819-1.829,1.829-1.829c1.008,0,1.829,0.819,1.829,1.829C39.307,32.723,38.487,33.544,37.479,33.544z M13.9,32.102h19.282
		v1.365H13.9V32.102z"/>
</g>
<g>
</g>
<g>
</g>
<g>
</g>
<g>
</g>
<g>
</g>
<g>
</g>
<g>
</g>
<g>
</g>
<g>
</g>
<g>
</g>
<g>
</g>
<g>
</g>
<g>
</g>
<g>
</g>
<g>
</g>
</svg>
