<?xml version="1.0" encoding="iso-8859-1"?>
<!-- Generator: Adobe Illustrator 18.1.1, SVG Export Plug-In . SVG Version: 6.00 Build 0)  -->
<svg version="1.1" id="Capa_1" xmlns="http://www.w3.org/2000/svg" xmlns:xlink="http://www.w3.org/1999/xlink" x="0px" y="0px"
	 viewBox="0 0 50.511 50.511" style="enable-background:new 0 0 50.511 50.511;" xml:space="preserve">
<g>
	<g>
		<path style="fill:#030104;" d="M7.699,19.88c0-3.076,2.494-5.571,5.569-5.571c3.078,0,5.572,2.495,5.572,5.571
			c0,0.354-0.038,0.701-0.101,1.035h12.949c-0.064-0.334-0.104-0.681-0.104-1.035c0-3.076,2.496-5.571,5.572-5.571
			c3.077,0,5.57,2.495,5.57,5.571c0,0.364-0.039,0.717-0.104,1.062l2.34,0.041h2.416v-2.944h-2.416v0.057l-0.003-1.859
			c0.339,0.22,0.743,0.35,1.179,0.35c1.197,0,2.172-0.975,2.172-2.174V8.22c0-1.197-0.975-2.172-2.172-2.172
			c-0.444,0-0.854,0.131-1.196,0.356l-0.007-3.422c0,0,0.166-1.335-1.204-1.335C42.36,1.648,22.92,1.648,21.683,1.648
			c-1.239,0-1.372,1.169-1.372,1.169l-2.174,6.324c0,0-9.436,0.035-11.682,0.035c-2.248,0-2.204,1.271-2.204,1.271V16.1
			c0,0.022,0.003,0.047,0.003,0.066H2.778v4.75h5.02C7.736,20.582,7.699,20.235,7.699,19.88z M32.259,3.184h10.572V9.34H32.259
			V3.184z M22.755,3.184h8.03v6.024h-9.637L22.755,3.184z"/>
		<path style="fill:#030104;" d="M37.972,24.464c2.002-0.414,3.508-2.184,3.508-4.308c0-2.428-1.967-4.396-4.396-4.396
			c-2.428,0-4.396,1.969-4.396,4.396c0,2.124,1.507,3.894,3.508,4.308H14.282c2.003-0.414,3.509-2.184,3.509-4.308
			c0-2.428-1.969-4.396-4.396-4.396c-2.428,0-4.396,1.969-4.396,4.396c0,2.124,1.507,3.894,3.509,4.308H0v24.401h50.511V24.464
			H37.972z M35.097,20.157c0-1.099,0.892-1.987,1.987-1.987c1.097,0,1.987,0.89,1.987,1.987c0,1.096-0.893,1.985-1.987,1.985
			C35.988,22.143,35.097,21.252,35.097,20.157z M11.409,20.157c0-1.099,0.892-1.987,1.986-1.987c1.097,0,1.987,0.89,1.987,1.987
			c0,1.096-0.89,1.985-1.987,1.985C12.301,22.143,11.409,21.252,11.409,20.157z M48.425,46.778H2.089v-20.23h4.244v4.577h4.73
			v-4.577h28.094v4.577h4.73v-4.577h4.537v20.23H48.425z"/>
	</g>
</g>
<g>
</g>
<g>
</g>
<g>
</g>
<g>
</g>
<g>
</g>
<g>
</g>
<g>
</g>
<g>
</g>
<g>
</g>
<g>
</g>
<g>
</g>
<g>
</g>
<g>
</g>
<g>
</g>
<g>
</g>
</svg>
