<?xml version="1.0" encoding="iso-8859-1"?>
<!-- Generator: Adobe Illustrator 18.1.1, SVG Export Plug-In . SVG Version: 6.00 Build 0)  -->
<svg version="1.1" id="Capa_1" xmlns="http://www.w3.org/2000/svg" xmlns:xlink="http://www.w3.org/1999/xlink" x="0px" y="0px"
	 viewBox="0 0 340.893 340.893" style="enable-background:new 0 0 340.893 340.893;" xml:space="preserve">
<g>
	<g>
		<path style="fill:#010002;" d="M104.221,284.088h1.006l15.284-0.005l104.642-0.043l14.462-0.005h0.267
			c0.223-0.033,0.49-0.256,0.745-0.435c2.921-2.034,8.001-13.195,11.166-27.027l-0.321-68.5c-0.016-3.318-0.484-8.86-1.023-12.102
			l-10.786-61.217c-0.267-1.566-1.909-2.959-3.459-2.959H107.571c-1.561,0-3.22,1.403-3.486,2.937l-11.15,61.298
			c-0.555,3.198-1.023,8.719-1.023,12.02v69.196c3.568,12.347,8.757,23.932,11.699,26.352
			C103.818,283.767,104.041,284.012,104.221,284.088z M242.27,227.832c3.72,5.646,2.154,13.239-3.486,16.954l-10.073,6.636v4.009
			c0,6.755-5.483,12.238-12.238,12.238s-12.238-5.483-12.238-12.238v-17.193l21.076-13.891
			C230.967,220.63,238.555,222.186,242.27,227.832z M106.554,188.045c0-2.758,0.375-7.19,0.843-9.905l8.664-46.776
			c0.468-2.714,3.079-4.917,5.831-4.917h99.986c2.758,0,5.357,2.203,5.809,4.922l8.392,46.771c0.451,2.72,0.827,7.158,0.843,9.91
			l0.277,21.794c-66.275,22.898-130.635,0-130.635,0v-21.8H106.554z M100.343,227.837c3.72-5.651,11.302-7.207,16.948-3.492
			l21.087,13.891v17.193c0,6.755-5.483,12.238-12.238,12.238s-12.238-5.483-12.238-12.238v-4.009l-10.073-6.636
			C98.183,241.07,96.622,233.477,100.343,227.837z"/>
		<circle style="fill:#010002;" cx="126.374" cy="252.998" r="8.001"/>
		<circle style="fill:#010002;" cx="113.538" cy="236.947" r="8.001"/>
		<circle style="fill:#010002;" cx="229.085" cy="236.947" r="8.001"/>
		<circle style="fill:#010002;" cx="216.244" cy="252.998" r="8.001"/>
		<path style="fill:#010002;" d="M251.837,309.912h-7.571l-1.773-9.866h7.343l-2.507-11.732c-1.887,2.045-3.987,3.367-6.282,3.726
			c-0.386,0.06-0.767,0.158-1.164,0.158h-13.908H118.873h-14.99c-0.065,0-0.131-0.022-0.196-0.027
			c-2.828-0.087-5.466-2.089-7.892-5.26l-2.807,13.135h9.203l-1.871,9.866h-8.735l-3.758,16.448h9.377l-2.491,13.157h14.615
			l2.654-13.157h120.84l2.91,14.533h14.103l-2.616-14.533h8.371L251.837,309.912z M115.3,309.912l1.991-9.866h110.261l1.98,9.866
			H115.3z"/>
		<path style="fill:#010002;" d="M170.441,0c-30.655,0-59.123,9.491-82.657,25.667c-1.033,0.43-2.04,0.946-2.975,1.643
			c-0.832,0.62-1.556,1.322-2.208,2.072C47.11,56.109,24.114,98.583,24.114,146.338v177.286c0,7.511,6.086,13.598,13.598,13.598
			s13.598-6.086,13.598-13.598V146.338c0-35.539,15.659-67.472,40.418-89.32l39.923,41.696c2.73,3.677,11.417,4.727,13.913,2.872
			c6.173-4.585,1.887-7.74-2.698-13.913l-30.426-45.351c17.177-9.616,36.953-15.126,58.002-15.126
			c20.554,0,39.906,5.232,56.8,14.435l-30.894,46.042c-4.585,6.173-8.871,9.328-2.698,13.913c2.497,1.855,11.183,0.805,13.913-2.872
			l40.684-42.49c25.286,21.865,41.337,54.14,41.337,90.109v177.286c0,7.511,6.086,13.598,13.598,13.598s13.598-6.086,13.598-13.598
			V146.338C316.779,65.65,251.13,0,170.441,0z"/>
	</g>
</g>
<g>
</g>
<g>
</g>
<g>
</g>
<g>
</g>
<g>
</g>
<g>
</g>
<g>
</g>
<g>
</g>
<g>
</g>
<g>
</g>
<g>
</g>
<g>
</g>
<g>
</g>
<g>
</g>
<g>
</g>
</svg>
