<?xml version="1.0" encoding="iso-8859-1"?>
<!-- Generator: Adobe Illustrator 18.1.1, SVG Export Plug-In . SVG Version: 6.00 Build 0)  -->
<svg version="1.1" id="Capa_1" xmlns="http://www.w3.org/2000/svg" xmlns:xlink="http://www.w3.org/1999/xlink" x="0px" y="0px"
	 viewBox="0 0 326.115 326.115" style="enable-background:new 0 0 326.115 326.115;" xml:space="preserve">
<g>
	<g>
		<path style="fill:#010002;" d="M46.482,295.668c0,16.818,13.63,30.448,30.448,30.448s30.448-13.63,30.448-30.448v-10.797H46.482
			V295.668z"/>
		<path style="fill:#010002;" d="M220.532,295.668c0,16.818,13.63,30.448,30.448,30.448s30.448-13.63,30.448-30.448v-10.797h-60.896
			V295.668z"/>
		<path style="fill:#010002;" d="M26.086,137.064v131.489c0,3.002,2.437,5.439,5.439,5.439h15.11h60.591h113.459h60.591h13.364
			c1.452,0,2.807-0.566,3.824-1.583c1.017-1.023,1.572-2.382,1.566-3.829l-0.604-131.495c-0.033-5.771-0.816-15.077-1.757-20.745
			L279.367,6.184C278.817,2.894,275.412,0,272.073,0H54.086c-3.35,0-6.788,2.894-7.359,6.201L27.843,116.38
			C26.88,122.042,26.086,131.326,26.086,137.064z M276.609,222.077c0,11.449-6.712,21.25-16.361,25.933
			c-3.807,1.849-8.028,2.975-12.548,2.975c-3.28,0-6.375-0.664-9.312-1.67c-11.368-3.889-19.597-14.549-19.597-27.239
			c0-15.969,12.945-28.909,28.909-28.909S276.609,206.113,276.609,222.077z M62.995,95.657l8.382-62.348
			c0.8-5.956,6.32-10.78,12.33-10.78h158.755c6.01,0,11.525,4.824,12.33,10.78l8.382,62.348c0.8,5.956-3.421,10.78-9.426,10.78
			H72.421C66.416,106.437,62.19,101.613,62.995,95.657z M78.469,193.168c15.969,0,28.909,12.945,28.909,28.909
			c0,12.298-7.713,22.735-18.536,26.913c-3.231,1.246-6.706,2.002-10.372,2.002c-4.232,0-8.224-0.957-11.846-2.594
			c-10.046-4.531-17.068-14.582-17.068-26.32C49.555,206.113,62.5,193.168,78.469,193.168z"/>
	</g>
</g>
<g>
</g>
<g>
</g>
<g>
</g>
<g>
</g>
<g>
</g>
<g>
</g>
<g>
</g>
<g>
</g>
<g>
</g>
<g>
</g>
<g>
</g>
<g>
</g>
<g>
</g>
<g>
</g>
<g>
</g>
</svg>
