<?xml version="1.0" encoding="iso-8859-1"?>
<!-- Generator: Adobe Illustrator 18.1.1, SVG Export Plug-In . SVG Version: 6.00 Build 0)  -->
<svg version="1.1" id="Capa_1" xmlns="http://www.w3.org/2000/svg" xmlns:xlink="http://www.w3.org/1999/xlink" x="0px" y="0px"
	 viewBox="0 0 339.662 339.662" style="enable-background:new 0 0 339.662 339.662;" xml:space="preserve">
<g>
	<g>
		<path style="fill:#010002;" d="M35.415,263.146c10.117,5.575,21.539,8.523,33.031,8.523c24.982,0,47.989-13.576,60.042-35.436
			c0.468-0.843,0.827-1.719,1.256-2.573l21.849,7.305c0.076,0.027,0.158,0.016,0.234,0.038c0,0,0.005,0,0.011,0
			c0.337,0.103,0.669,0.223,1.017,0.288c0.571,0.109,1.153,0.163,1.751,0.163h0.005l0,0h0.005l0,0l0,0l0,0c0.005,0,0.011,0,0.016,0
			c0.359,0,0.718-0.022,1.082-0.06c0.228-0.027,0.441-0.103,0.664-0.147c0.261-0.049,0.517-0.098,0.767-0.169
			c0.468-0.131,0.903-0.299,1.338-0.495c0.196-0.087,0.402-0.163,0.593-0.267c0.076-0.038,0.158-0.065,0.234-0.103
			c0.103-0.06,0.19-0.141,0.294-0.207c0.397-0.245,0.789-0.506,1.142-0.805c0.016-0.016,0.044-0.027,0.06-0.044l0.005-0.005
			c0.179-0.158,0.326-0.343,0.49-0.511c0.261-0.267,0.544-0.517,0.772-0.805c0.054-0.071,0.092-0.152,0.141-0.223
			c0.044-0.054,0.098-0.092,0.136-0.152l81.999-115.047l3.851,18.77c-15.529,5.532-28.816,16.562-37.024,31.449
			c-18.243,33.08-6.168,74.825,26.907,93.068c10.117,5.575,21.539,8.523,33.031,8.523c24.982,0,47.989-13.576,60.042-35.436
			c18.237-33.08,6.168-74.831-26.907-93.073c-10.117-5.575-21.539-8.523-33.026-8.523c-1.463,0-2.921,0.054-4.373,0.147
			l-13.201-64.306c-0.626-3.035-2.692-5.564-5.532-6.804c-2.839-1.24-6.114-1.017-8.757,0.598
			c-0.169,0.098-16.867,10.084-31.574,8.409c-5.189-0.598-9.948,3.138-10.552,8.36c-0.604,5.222,3.138,9.948,8.36,10.552
			c11.732,1.371,23.491-1.953,31.862-5.314l1.229,5.988l-87.4,27.804l-1.322-11.204h8.42c5.869,0,10.622-4.754,10.622-10.622
			c0-5.869-4.754-10.622-10.622-10.622h-40.532c-5.869,0-10.622,4.754-10.622,10.622c0,5.869,4.754,10.622,10.622,10.622H130.8
			l2.366,20.059l-20.908,19.01c-3.274-2.72-6.826-5.2-10.688-7.332c-10.117-5.575-21.539-8.523-33.026-8.523
			c-24.982,0-47.989,13.581-60.042,35.436C-9.735,203.153,2.34,244.903,35.415,263.146z M261.848,207.624
			c0.925,4.504,4.89,7.604,9.312,7.604c0.636,0,1.278-0.065,1.925-0.196c5.151-1.055,8.469-6.092,7.408-11.237l-9.758-47.532
			c0.163,0,0.326-0.033,0.49-0.033c8.284,0,16.524,2.132,23.834,6.157c23.883,13.173,32.602,43.322,19.434,67.205
			c-8.708,15.784-25.324,25.591-43.371,25.591c-8.284,0-16.529-2.132-23.834-6.157c-23.888-13.173-32.602-43.322-19.428-67.205
			c5.477-9.937,14.098-17.492,24.236-21.734L261.848,207.624z M25.178,179.27c8.708-15.784,25.324-25.596,43.377-25.596
			c8.284,0,16.524,2.132,23.834,6.157c1.985,1.093,3.818,2.344,5.591,3.655L62.099,196.11c-2.497,2.274-3.606,5.7-2.91,9.007
			c0.696,3.307,3.089,5.994,6.298,7.065l45.998,15.376c-8.784,15.469-25.194,25.074-43.039,25.074
			c-8.284,0-16.529-2.132-23.834-6.157C20.724,233.302,12.005,203.153,25.178,179.27z M117.512,209.501l-30.595-10.225
			l23.861-21.696C116.511,187.102,118.942,198.367,117.512,209.501z M222.796,119.859l-61.608,86.443l-7.549-64.442L222.796,119.859
			z M135.912,154.724l7.479,63.425l-7.582-2.535c3.285-17.829-0.707-36.192-10.769-51.008L135.912,154.724z"/>
	</g>
</g>
<g>
</g>
<g>
</g>
<g>
</g>
<g>
</g>
<g>
</g>
<g>
</g>
<g>
</g>
<g>
</g>
<g>
</g>
<g>
</g>
<g>
</g>
<g>
</g>
<g>
</g>
<g>
</g>
<g>
</g>
</svg>
