<?xml version="1.0" encoding="iso-8859-1"?>
<!-- Generator: Adobe Illustrator 18.1.1, SVG Export Plug-In . SVG Version: 6.00 Build 0)  -->
<svg version="1.1" id="Capa_1" xmlns="http://www.w3.org/2000/svg" xmlns:xlink="http://www.w3.org/1999/xlink" x="0px" y="0px"
	 viewBox="0 0 325.468 325.468" style="enable-background:new 0 0 325.468 325.468;" xml:space="preserve">
<g>
	<g>
		<path style="fill:#010002;" d="M301.074,137.679c-6.57,0-11.901,5.325-11.901,11.901v22.186c2.366,3.889,4.411,7.898,6.026,12.026
			h17.769V149.58C312.975,143.009,307.644,137.679,301.074,137.679z"/>
		<path style="fill:#010002;" d="M289.179,246.618v15.137c0,6.57,5.325,11.901,11.901,11.901c6.57,0,11.901-5.325,11.901-11.901
			v-34.212h-15.469C295.678,234.173,292.872,240.548,289.179,246.618z"/>
		<path style="fill:#010002;" d="M314.47,194.664h-1.496h-14.501c1.023,4.737,1.583,9.584,1.583,14.528
			c0,2.524-0.185,5.009-0.457,7.479h13.375h1.496c6.065,0,10.998-4.933,10.998-10.998
			C325.468,199.597,320.535,194.664,314.47,194.664z"/>
		<path style="fill:#010002;" d="M67.08,115.819c0,2.034,0.212,4.014,0.56,5.945c22.567-8.126,48.756-12.744,76.946-12.744
			c0.832,0,1.648,0.033,2.475,0.038c-2.698-12.983-13.005-23.17-26.048-25.705V55.538c0.016-2.91-0.718-8.942-6.103-14.843
			c-8.431-9.225-24.073-13.712-47.837-13.712c-7.511,0-13.598,6.086-13.598,13.598s6.086,13.598,13.598,13.598
			c17.449,0,24.405,2.807,26.744,4.155v25.025C78.589,86.318,67.08,99.72,67.08,115.819z"/>
		<path style="fill:#010002;" d="M287.242,194.664c-0.484-1.833-1.077-3.644-1.741-5.439c-0.68-1.828-1.436-3.639-2.29-5.423
			c-17.454-36.398-71.442-63.077-135.737-63.86c-0.963-0.011-1.92-0.044-2.888-0.044c-26.7,0-51.693,4.487-73.155,12.281
			C28.702,147.698,0,176.367,0,209.192c0,49.316,64.736,89.293,144.587,89.293c69.664,0,127.807-30.426,141.514-70.936
			c0.609-1.795,1.115-3.606,1.545-5.439c0.419-1.795,0.734-3.612,0.984-5.439c0.332-2.469,0.544-4.955,0.544-7.479
			C289.179,204.242,288.493,199.396,287.242,194.664z M92.013,229.012c-13.766,0-24.927-11.161-24.927-24.927
			c0-13.766,11.161-24.927,24.927-24.927s24.927,11.161,24.927,24.927C116.94,217.851,105.779,229.012,92.013,229.012z
			 M162.72,229.012c-13.766,0-24.927-11.161-24.927-24.927c0-13.766,11.161-24.927,24.927-24.927
			c13.766,0,24.927,11.161,24.927,24.927C187.648,217.851,176.487,229.012,162.72,229.012z M233.428,229.012
			c-13.766,0-24.927-11.161-24.927-24.927c0-13.766,11.161-24.927,24.927-24.927s24.927,11.161,24.927,24.927
			C258.356,217.851,247.195,229.012,233.428,229.012z"/>
	</g>
</g>
<g>
</g>
<g>
</g>
<g>
</g>
<g>
</g>
<g>
</g>
<g>
</g>
<g>
</g>
<g>
</g>
<g>
</g>
<g>
</g>
<g>
</g>
<g>
</g>
<g>
</g>
<g>
</g>
<g>
</g>
</svg>
