<?xml version="1.0" encoding="iso-8859-1"?>
<!-- Generator: Adobe Illustrator 16.0.0, SVG Export Plug-In . SVG Version: 6.00 Build 0)  -->
<!DOCTYPE svg PUBLIC "-//W3C//DTD SVG 1.1//EN" "http://www.w3.org/Graphics/SVG/1.1/DTD/svg11.dtd">
<svg version="1.1" id="Capa_1" xmlns="http://www.w3.org/2000/svg" xmlns:xlink="http://www.w3.org/1999/xlink" x="0px" y="0px"
	 width="328.198px" height="328.198px" viewBox="0 0 328.198 328.198" style="enable-background:new 0 0 328.198 328.198;"
	 xml:space="preserve">
<g>
	<g>
		<path d="M195.612,214.443c-8.814,0-16.969,2.816-23.67,7.554c-10.188,7.206-16.946,18.916-17.381,32.216
			c-0.015,0.456-0.069,0.896-0.069,1.352c0,0.588,0.06,1.152,0.087,1.724c0.042,1.038,0.096,2.059,0.213,3.074
			c2.387,20.422,19.768,36.322,40.82,36.322c21.041,0,38.432-15.9,40.815-36.322c0.114-1.016,0.174-2.036,0.21-3.074
			c0.023-0.577,0.09-1.142,0.09-1.724c0-0.45-0.054-0.896-0.066-1.352l0,0C235.947,232.163,217.831,214.443,195.612,214.443z
			 M218.083,255.564c0,0.588-0.133,1.141-0.168,1.717c-0.084,1.045-0.15,2.078-0.373,3.075c-2.197,10.1-11.169,17.666-21.93,17.666
			c-10.748,0-19.719-7.566-21.923-17.666c-0.216-0.997-0.288-2.03-0.366-3.075c-0.048-0.576-0.174-1.129-0.174-1.717
			c0-0.463,0.107-0.896,0.138-1.357c0.468-7.788,4.876-14.453,11.289-18.11c3.267-1.861,7.001-3.008,11.036-3.008
			c11.416,0,20.741,8.538,22.176,19.557c0.066,0.517,0.127,1.033,0.162,1.562C217.974,254.669,218.083,255.102,218.083,255.564z"/>
		<path d="M7.686,266.444h10.761v-12.231h63.678h9.101h20.993h0.006h30.045c0.447-17.931,9.688-33.675,23.616-43.024
			c8.494-5.71,18.727-9.043,29.727-9.043c29.052,0,52.633,23.19,53.348,52.067l0,0h5.452c0.648,0,1.284-0.078,1.934-0.096
			c39.848-1.039,71.853-33.591,71.853-73.69V122.21v-21.329V86.854c0-40.749-33.038-55.34-73.786-55.34H232.89
			c-21.425,0-40.652,4.089-54.14,13.835c-1.333,0.973-2.63,1.987-3.854,3.074c-1.123,0.991-2.228,1.987-3.243,3.074h-59.435
			c-38.989,0-70.712,31.724-70.712,70.713v61.291c0,19.305,7.797,36.821,20.383,49.6h-4.194h-4.102H0v21.112h7.686V266.444z
			 M229.648,161.772c-14.016,0-25.364-11.358-25.364-25.364v-12.469c0-14.01,11.349-25.364,25.364-25.364h30.912
			c14.003,0,25.364,11.354,25.364,25.364v12.469c0,14.006-11.361,25.364-25.364,25.364H229.648z M83.785,123.939
			c0-14.01,11.358-25.364,25.364-25.364h30.916c7.632,0,14.391,3.435,19.044,8.767c3.891,4.458,6.326,10.22,6.326,16.604v12.469
			c0,6.383-2.435,12.145-6.326,16.601c-4.648,5.332-11.412,8.77-19.044,8.77h-30.916c-14.006,0-25.364-11.358-25.364-25.364V123.939
			z"/>
	</g>
</g>
<g>
</g>
<g>
</g>
<g>
</g>
<g>
</g>
<g>
</g>
<g>
</g>
<g>
</g>
<g>
</g>
<g>
</g>
<g>
</g>
<g>
</g>
<g>
</g>
<g>
</g>
<g>
</g>
<g>
</g>
</svg>
