<?xml version="1.0" encoding="iso-8859-1"?>
<!-- Generator: Adobe Illustrator 18.1.1, SVG Export Plug-In . SVG Version: 6.00 Build 0)  -->
<svg version="1.1" id="Capa_1" xmlns="http://www.w3.org/2000/svg" xmlns:xlink="http://www.w3.org/1999/xlink" x="0px" y="0px"
	 viewBox="0 0 443.619 443.619" style="enable-background:new 0 0 443.619 443.619;" xml:space="preserve">
<g>
	<g>
		<path style="fill:#030104;" d="M399.619,289.51c3.3-3.9,6.6-7.9,9.4-12.4c2.7-4.5,6-8.9,6.1-15c0,0-8.2,6.7-11.8,10
			c-3.9,3.2-7.7,6.5-11.4,9.8c-7.6,6.6-13.9,14.6-20.9,21.9l-42.5,43.6l0.7,0.8c16.3-12.2,32.2-24.9,47.7-38.1
			C384.619,303.51,393.019,297.41,399.619,289.51z"/>
		<path style="fill:#030104;" d="M342.019,284.41c-3.6,12.5-7.3,25-10.8,37.6l1,0.4c6.4-11.5,12.4-23.1,17.9-35
			c2.8-5.9,6.3-11.7,7.6-18.2c0.6-3.3,1.2-6.6,1.4-10c0-3.4,0.3-7.1-1.9-10.8c0,0-7.3,11.6-9.8,17.5
			C344.719,271.61,343.819,278.21,342.019,284.41z"/>
		<path style="fill:#030104;" d="M400.319,319.41c-6,2.2-11.3,6.1-17,9.2c-11.4,6.2-22.8,12.6-34.3,18.9l0.4,1
			c12.6-3.6,25.1-7.5,37.4-12.1c6.2-2.3,12.7-3.8,18.3-7.5c2.8-1.8,5.5-3.7,8.1-6.1c2.5-2.4,5.2-4.8,6.3-9
			C419.619,313.91,406.219,317.01,400.319,319.41z"/>
		<path style="fill:#030104;" d="M392.019,239.41c4.3,0,7.9-3.5,7.9-7.9c0-4.3-3.5-7.8-7.9-7.8c-4.3,0-7.8,3.5-7.8,7.8
			S387.719,239.41,392.019,239.41z"/>
		<path style="fill:#030104;" d="M431.319,270.21c-6.8,0-12.3,5.5-12.3,12.3s5.5,12.3,12.3,12.3s12.3-5.5,12.3-12.3
			S438.119,270.21,431.319,270.21z"/>
		<path style="fill:#030104;" d="M422.919,256.21c4.6,0,8.4-3.8,8.4-8.4c0-4.7-3.7-8.4-8.4-8.4c-4.6,0-8.4,3.7-8.4,8.4
			C414.519,252.51,418.319,256.21,422.919,256.21z"/>
		<path style="fill:#030104;" d="M374.719,256.81c5.3,0,9.4-4.2,9.4-9.5c0-5.2-4.2-9.4-9.4-9.4c-5.2,0-9.4,4.2-9.4,9.4
			C365.319,252.51,369.519,256.81,374.719,256.81z"/>
		<path style="fill:#030104;" d="M352.019,160.41c-2.4-4.5-7.7-9.8-19.4-9.8c-12.5,0-27,6.3-27.6,6.6c-2.4,1-4,3.3-4.3,5.9l-0.1,0.8
			l-6.8-29.6c-7.4-34.2-26.9-44.1-52.8-44.1h-126c-25.9,0-45.1,10.2-52.8,44.1l-6.7,29.5l-0.1-0.8c-0.3-2.6-1.9-4.8-4.3-5.9
			c-0.6-0.3-15.1-6.6-27.6-6.6c-11.7,0-17,5.3-19.4,9.8c-10.3,19,1.9,27.4,2.4,27.7c1.1,0.7,2.3,1.1,3.6,1.2l35.2,1.9l-1.6,1
			c-9.7,6.5-15.9,16.3-15.9,27.4v50.1c0,12.4,7.9,23.4,19.7,29.6v33.6c0,11.4,14.1,20.6,31.4,20.6s31.4-9.2,31.4-20.6v-27.9h135.5
			v27.9c0,11.4,14,20.6,31.4,20.6c17.3,0,31.4-9.2,31.4-20.6v-33.6c11.9-6.3,19.7-17.2,19.7-29.6v-50.1c0-11.1-6.2-20.9-15.9-27.4
			l-1.6-1l35.2-1.9c1.3-0.1,2.6-0.5,3.6-1.2C350.219,187.81,362.319,179.41,352.019,160.41z M91.119,135.11
			c3.3-12.8,16.2-23.7,30-23.7h113.9c13.9,0,27.1,11,30,23.7l11.2,44.8h-196.3L91.119,135.11z M117.819,267.31h-47.5v-28.5h47.5
			V267.31z M285.819,267.31h-47.5v-28.5h47.5V267.31z"/>
	</g>
</g>
<g>
</g>
<g>
</g>
<g>
</g>
<g>
</g>
<g>
</g>
<g>
</g>
<g>
</g>
<g>
</g>
<g>
</g>
<g>
</g>
<g>
</g>
<g>
</g>
<g>
</g>
<g>
</g>
<g>
</g>
</svg>
