<?xml version="1.0" encoding="iso-8859-1"?>
<!-- Generator: Adobe Illustrator 18.1.1, SVG Export Plug-In . SVG Version: 6.00 Build 0)  -->
<svg version="1.1" id="Capa_1" xmlns="http://www.w3.org/2000/svg" xmlns:xlink="http://www.w3.org/1999/xlink" x="0px" y="0px"
	 viewBox="0 0 28.235 28.235" style="enable-background:new 0 0 28.235 28.235;" xml:space="preserve">
<g>
	<g>
		<path style="fill:#030104;" d="M9.515,11.807c1.273,1.888,4.049-0.376,2.346-1.985C10.433,9.228,9.134,10.024,9.515,11.807z"/>
		<path style="fill:#030104;" d="M8.251,13.974c0.536,0.686,2.012,0.398,1.626-0.903C9.341,12.385,7.862,12.672,8.251,13.974z"/>
		<path style="fill:#030104;" d="M25.58,16.681c2.23-1.052,2.312-5.753,0.54-7.4c0.219-2.049-0.311-3.052,0-4.332
			c0.208-0.842,1.102-1.187,1.086-2.348c-0.056-3.589-5.545-3.403-5.417,0.182c0.056,1.451,1.295,1.249,1.263,3.067
			C18.824-0.338,5.487,1.35,3.738,8.56c-4.124,0.538-2.922,7.208-0.722,8.303c-0.649-0.377-1.951-0.094-2.888-0.182
			c0,1.805,0,3.61,0,5.417c6.81-0.071,10.18,3.3,14.08,6.137c3.605-3.074,7.232-6.128,13.9-6.137c0-1.807,0-3.612,0-5.417
			C27.266,16.681,26.423,16.681,25.58,16.681z M1.934,11.446c0.106-0.439,0.731-0.812,0.901-1.444
			c0.604-0.061,0.803-0.523,1.626-0.36C6.472,1.095,21.558,1.047,23.773,9.28c-0.002-1.308,0.625-2.954,0.184-4.514
			c-0.238-0.834-1.009-0.979-1.083-1.623c-0.201-1.703,1.041-2.521,2.888-1.626c0.967,1.015,0.324,2.593-0.722,3.07
			c0,1.684,0,3.368,0,5.054c1.688,1.328,2.202,5.928-0.54,6.498c-0.352,0.491-0.329,1.356-1.267,1.263
			c-0.468-0.975,0.275-1.838,0.361-2.706C24.988,0.972,2.892,0.611,4.642,14.876c0.11,0.908,0.697,1.666,0.541,2.526
			c-0.83,0.283-0.727-0.698-1.263-1.263C2.97,15.142,1.272,14.123,1.934,11.446z M22.151,17.402
			c-2.791,1.362-5.631,2.672-8.124,4.335c-2.321-1.773-4.951-3.235-8.124-4.154C2.683,3.66,25.324,3.527,22.151,17.402z
			 M27.023,21.374c-5.931,0.268-9.454,2.942-12.814,5.777c-3.647-2.611-6.943-5.573-12.996-5.777c-0.176-0.811-0.032-2.804,0-3.608
			c5.595,0.301,9.355,2.434,12.815,4.873c3.649-2.309,7.303-4.613,12.995-4.873C27.023,18.968,27.023,20.172,27.023,21.374z"/>
	</g>
</g>
<g>
</g>
<g>
</g>
<g>
</g>
<g>
</g>
<g>
</g>
<g>
</g>
<g>
</g>
<g>
</g>
<g>
</g>
<g>
</g>
<g>
</g>
<g>
</g>
<g>
</g>
<g>
</g>
<g>
</g>
</svg>
