<?xml version="1.0" encoding="iso-8859-1"?>
<!-- Generator: Adobe Illustrator 18.1.1, SVG Export Plug-In . SVG Version: 6.00 Build 0)  -->
<svg version="1.1" id="Capa_1" xmlns="http://www.w3.org/2000/svg" xmlns:xlink="http://www.w3.org/1999/xlink" x="0px" y="0px"
	 viewBox="0 0 54.086 54.086" style="enable-background:new 0 0 54.086 54.086;" xml:space="preserve">
<g>
	<path style="fill:#030104;" d="M9.611,30.943H7.484V20.229h2.128L9.611,30.943L9.611,30.943z M52.217,20.23v5.357h1.868v7.015
		h-8.334c0,1.937-1.571,3.508-3.506,3.508c-1.936,0-3.508-1.571-3.508-3.508H19.155c0,1.937-1.573,3.508-3.508,3.508
		c-1.936,0-3.507-1.571-3.507-3.508H0V18.57h7.995v-0.595h4.548v0.595h13.333v-0.595h4.551v0.595h14.327v-0.595h4.552v0.595h4.78
		v1.658L52.217,20.23z M5.486,19.931H1.403v5.44h4.081v-5.44H5.486z M13.522,19.591H7.145v11.991h5.147
		c0.068-0.224,0.157-0.435,0.267-0.638h-1.588V20.229h2.126v9.973c0.131-0.136,0.271-0.268,0.424-0.381L13.522,19.591L13.522,19.591
		z M17.116,32.601h-2.933c0,0.808,0.653,1.467,1.465,1.467C16.456,34.068,17.114,33.409,17.116,32.601z M23.644,20.229h-8.909v4.549
		h8.909V20.229z M31.253,19.591h-6.376v11.991h6.376V19.591z M42.522,24.778v-4.549h-8.906v4.549H42.522z M43.714,32.601h-2.933
		c0,0.808,0.656,1.467,1.465,1.467C43.056,34.068,43.712,33.409,43.714,32.601z M50.389,19.59h-6.377v9.985
		c0.133,0.079,0.262,0.164,0.385,0.262v-9.605h2.125v10.714h-1.187c0.105,0.203,0.199,0.416,0.267,0.64h4.785L50.389,19.59z
		 M27.3,20.229h-2.13v10.714h2.13V20.229z M30.786,20.229h-2.125v10.714h2.125V20.229z M50.005,20.229h-2.121v10.714h2.121V20.229z"
		/>
</g>
<g>
</g>
<g>
</g>
<g>
</g>
<g>
</g>
<g>
</g>
<g>
</g>
<g>
</g>
<g>
</g>
<g>
</g>
<g>
</g>
<g>
</g>
<g>
</g>
<g>
</g>
<g>
</g>
<g>
</g>
</svg>
