<?xml version="1.0" encoding="iso-8859-1"?>
<!-- Generator: Adobe Illustrator 18.1.1, SVG Export Plug-In . SVG Version: 6.00 Build 0)  -->
<svg version="1.1" id="Capa_1" xmlns="http://www.w3.org/2000/svg" xmlns:xlink="http://www.w3.org/1999/xlink" x="0px" y="0px"
	 viewBox="0 0 39.5 39.5" style="enable-background:new 0 0 39.5 39.5;" xml:space="preserve">
<g>
	<path style="fill:#030104;" d="M11.446,22.242H5.159v-3.586h8.985L11.446,22.242z M34.867,22.287v-3.586h-8.985l2.695,3.588h6.289
		L34.867,22.287L34.867,22.287z M9.827,27.084h21.22v-2.439H9.827C9.827,24.645,9.827,27.084,9.827,27.084z M3.033,30.357h4.603
		v-5.505H3.033V30.357z M32.789,30.75h4.154v-5.503h-4.154V30.75z M36.279,15.363v1.541h0.676v4.631v2.464h-2.219H5.249H3.033
		v-2.151v-4.94h0.674v-1.543H0v-2.862h5.111v2.861h2.176l4.458-6.614h16.493l4.463,6.614h1.686v-2.861H39.5v2.862L36.279,15.363
		L36.279,15.363z M9.196,14.743h21.598l-3.209-4.76H12.403L9.196,14.743z M35.605,18.251H4.381v3.592v0.806h0.867h29.487h0.869
		v-1.114L35.605,18.251L35.605,18.251z"/>
</g>
<g>
</g>
<g>
</g>
<g>
</g>
<g>
</g>
<g>
</g>
<g>
</g>
<g>
</g>
<g>
</g>
<g>
</g>
<g>
</g>
<g>
</g>
<g>
</g>
<g>
</g>
<g>
</g>
<g>
</g>
</svg>
