<?xml version="1.0" encoding="iso-8859-1"?>
<!-- Generator: Adobe Illustrator 18.1.1, SVG Export Plug-In . SVG Version: 6.00 Build 0)  -->
<svg version="1.1" id="Capa_1" xmlns="http://www.w3.org/2000/svg" xmlns:xlink="http://www.w3.org/1999/xlink" x="0px" y="0px"
	 viewBox="0 0 43.723 43.723" style="enable-background:new 0 0 43.723 43.723;" xml:space="preserve">
<g>
	<path style="fill:#030104;" d="M43.723,14.572h-6.166l-0.351,3.325c-0.129-0.078-0.261-0.153-0.397-0.222v-6.933
		c0-3.091-2.514-5.605-5.605-5.605H12.518c-3.092,0-5.605,2.514-5.605,5.605v6.933c-0.138,0.067-0.271,0.144-0.397,0.222
		l-0.351-3.325H0v3.177l6.199,0.354c-1.16,0.822-1.902,2.072-1.902,3.477v6.354c0,1.58,0.939,2.967,2.355,3.765v4.271
		c0,1.443,1.68,2.616,3.749,2.616s3.749-1.172,3.749-2.616v-3.55h14.78v3.55c0,1.443,1.678,2.616,3.748,2.616
		c2.071,0,3.748-1.172,3.748-2.616v-3.962c1.77-0.709,3-2.264,3-4.072v-6.354c0-1.404-0.744-2.654-1.903-3.477l6.2-0.354
		L43.723,14.572L43.723,14.572z M9.154,10.742c0-1.855,1.509-3.364,3.362-3.364h18.687c1.854,0,3.364,1.509,3.364,3.364v6.365
		c-0.096-0.005-0.188-0.013-0.283-0.013H9.438c-0.097,0-0.189,0.008-0.283,0.013L9.154,10.742L9.154,10.742z M28.027,25.317v1.494
		H16.442v-1.494H28.027z M8.033,27.446v-4.913h6.766v4.913H8.033z M15.694,31.11c-0.519,0-0.937-0.418-0.937-0.936
		c0-0.517,0.418-0.935,0.937-0.935c0.517,0,0.934,0.418,0.934,0.935S16.211,31.11,15.694,31.11z M28.961,31.11
		c-0.517,0-0.934-0.418-0.934-0.936c0-0.517,0.417-0.935,0.934-0.935s0.936,0.418,0.936,0.935
		C29.896,30.691,29.478,31.11,28.961,31.11z M36.623,27.446h-6.766v-4.913h6.766V27.446z"/>
</g>
<g>
</g>
<g>
</g>
<g>
</g>
<g>
</g>
<g>
</g>
<g>
</g>
<g>
</g>
<g>
</g>
<g>
</g>
<g>
</g>
<g>
</g>
<g>
</g>
<g>
</g>
<g>
</g>
<g>
</g>
</svg>
