<?xml version="1.0" encoding="iso-8859-1"?>
<!-- Generator: Adobe Illustrator 18.1.1, SVG Export Plug-In . SVG Version: 6.00 Build 0)  -->
<svg version="1.1" id="Capa_1" xmlns="http://www.w3.org/2000/svg" xmlns:xlink="http://www.w3.org/1999/xlink" x="0px" y="0px"
	 viewBox="0 0 57.555 57.555" style="enable-background:new 0 0 57.555 57.555;" xml:space="preserve">
<g>
	<path style="fill:#030104;" d="M18.804,17.277c-3.618,0-10.515,8.896-10.515,8.896s-3.953,0.661-6.536,2.211
		c-2.582,1.551-1.548,7.75-1.548,7.75H4.21c0-2.568,2.081-4.648,4.65-4.648c2.568,0,4.65,2.078,4.65,4.648h28.482
		c0-2.568,2.082-4.648,4.648-4.648c2.568,0,4.648,2.078,4.648,4.648h6.267V24.768v-7.49C55.49,17.277,22.423,17.277,18.804,17.277z
		 M3.833,30.611H1.691v-1.357h2.142V30.611L3.833,30.611z M25.637,25.378H10.49c0,0,5.391-6.846,7.958-6.846s7.188,0,7.188,0
		L25.637,25.378L25.637,25.378z M43.106,26.704H30.571v-6.978h23.603C54.17,19.729,52.967,26.704,43.106,26.704z M8.748,31.992
		c-2.287,0-4.141,1.854-4.141,4.143c0,2.287,1.853,4.143,4.141,4.143c2.287,0,4.141-1.854,4.141-4.143
		C12.889,33.847,11.035,31.992,8.748,31.992z M8.749,37.951c-1.001,0-1.816-0.814-1.816-1.816s0.816-1.814,1.816-1.814
		c1.001,0,1.815,0.814,1.815,1.814C10.565,37.136,9.751,37.951,8.749,37.951z M46.511,31.992c-2.288,0-4.144,1.854-4.144,4.143
		c0,2.287,1.854,4.143,4.144,4.143c2.285,0,4.14-1.854,4.14-4.143C50.651,33.847,48.797,31.992,46.511,31.992z M46.511,37.951
		c-1.002,0-1.817-0.814-1.817-1.816s0.815-1.814,1.817-1.814c1.001,0,1.815,0.814,1.815,1.814
		C48.324,37.136,47.511,37.951,46.511,37.951z M13.801,36.519h28.444v1.355H13.801V36.519z"/>
</g>
<g>
</g>
<g>
</g>
<g>
</g>
<g>
</g>
<g>
</g>
<g>
</g>
<g>
</g>
<g>
</g>
<g>
</g>
<g>
</g>
<g>
</g>
<g>
</g>
<g>
</g>
<g>
</g>
<g>
</g>
</svg>
