<?xml version="1.0" encoding="iso-8859-1"?>
<!-- Generator: Adobe Illustrator 18.1.1, SVG Export Plug-In . SVG Version: 6.00 Build 0)  -->
<svg version="1.1" id="Capa_1" xmlns="http://www.w3.org/2000/svg" xmlns:xlink="http://www.w3.org/1999/xlink" x="0px" y="0px"
	 viewBox="0 0 55.818 55.818" style="enable-background:new 0 0 55.818 55.818;" xml:space="preserve">
<g>
	<g>
		<path style="fill:#030104;" d="M38.947,0H16.871c-3.135,0-5.678,2.54-5.678,5.677v24.597c0,3.137,2.543,5.678,5.678,5.678h22.076
			c3.136,0,5.678-2.541,5.678-5.678V5.677C44.624,2.54,42.082,0,38.947,0z M13.717,24.202c0-0.912,0.742-1.652,1.657-1.652
			c0.915,0,1.655,0.74,1.655,1.652c0,0.914-0.741,1.655-1.655,1.655C14.458,25.857,13.717,25.116,13.717,24.202z M18.552,32.071
			c-1.306,0-2.365-1.059-2.365-2.363c0-1.308,1.059-2.365,2.365-2.365c1.305,0,2.365,1.059,2.365,2.365
			C20.917,31.013,19.857,32.071,18.552,32.071z M29.66,17.3c0,2.114-1.715,3.83-3.83,3.83h-7.022c-2.114,0-3.829-1.716-3.829-3.83
			V7.298c0-2.114,1.715-3.83,3.829-3.83h7.022c2.115,0,3.83,1.716,3.83,3.83V17.3z M37.606,31.903c-1.307,0-2.365-1.061-2.365-2.365
			c0-1.308,1.058-2.365,2.365-2.365c1.306,0,2.366,1.059,2.366,2.365C39.971,30.843,38.912,31.903,37.606,31.903z M40.681,25.857
			c-0.915,0-1.656-0.741-1.656-1.655c0-0.912,0.742-1.652,1.656-1.652c0.915,0,1.656,0.74,1.656,1.652
			C42.337,25.116,41.596,25.857,40.681,25.857z"/>
		<polygon style="fill:#030104;" points="21.818,38.08 21.346,40.681 34.472,40.681 33.999,38.08 		"/>
		<polygon style="fill:#030104;" points="18.172,37.134 14.86,55.818 17.462,55.818 20.773,37.134 		"/>
		<polygon style="fill:#030104;" points="35.097,37.134 38.408,55.818 41.01,55.818 37.698,37.134 		"/>
		<polygon style="fill:#030104;" points="20.399,46.121 35.418,46.121 34.946,43.521 20.872,43.521 		"/>
		<polygon style="fill:#030104;" points="19.927,49.747 19.453,52.351 36.365,52.351 35.891,49.747 		"/>
	</g>
</g>
<g>
</g>
<g>
</g>
<g>
</g>
<g>
</g>
<g>
</g>
<g>
</g>
<g>
</g>
<g>
</g>
<g>
</g>
<g>
</g>
<g>
</g>
<g>
</g>
<g>
</g>
<g>
</g>
<g>
</g>
</svg>
