<?xml version="1.0" encoding="iso-8859-1"?>
<!-- Generator: Adobe Illustrator 18.1.1, SVG Export Plug-In . SVG Version: 6.00 Build 0)  -->
<svg version="1.1" id="Capa_1" xmlns="http://www.w3.org/2000/svg" xmlns:xlink="http://www.w3.org/1999/xlink" x="0px" y="0px"
	 viewBox="0 0 52.405 52.405" style="enable-background:new 0 0 52.405 52.405;" xml:space="preserve">
<g>
	<path style="fill:#030104;" d="M45.463,29.636c-1.484,0-2.689,1.201-2.689,2.686c0,1.486,1.205,2.689,2.689,2.689
		c1.479,0,2.688-1.203,2.688-2.689C48.151,30.839,46.946,29.636,45.463,29.636z M45.461,33.499c-0.65,0-1.182-0.527-1.182-1.18
		c0-0.646,0.527-1.178,1.182-1.178c0.646,0,1.18,0.527,1.18,1.178C46.641,32.972,46.112,33.499,45.461,33.499z M39.188,29.636
		c-1.48,0-2.686,1.201-2.686,2.686c0,1.486,1.203,2.689,2.686,2.689c1.484,0,2.689-1.203,2.689-2.689
		C41.875,30.839,40.672,29.636,39.188,29.636z M39.188,33.499c-0.646,0-1.178-0.527-1.178-1.18c0-0.646,0.529-1.178,1.178-1.178
		c0.652,0,1.178,0.527,1.178,1.178C40.366,32.972,39.838,33.499,39.188,33.499z M32.83,29.636c-1.484,0-2.689,1.201-2.689,2.686
		c0,1.486,1.203,2.689,2.689,2.689c1.479,0,2.686-1.203,2.686-2.689C35.516,30.839,34.313,29.636,32.83,29.636z M32.83,33.499
		c-0.65,0-1.186-0.527-1.186-1.18c0-0.646,0.529-1.178,1.186-1.178c0.646,0,1.178,0.527,1.178,1.178
		C34.008,32.972,33.481,33.499,32.83,33.499z M5.57,20.14c0,0,1.601-1.452,4.501-2.759v2.759H5.57z M10.39,17.202v3.546
		c-0.078,0-0.15,0-0.225,0v10.224v0.729h19.417c0.33-1.51,1.676-2.645,3.277-2.645c1.48,0,2.73,0.955,3.186,2.279
		c0.451-1.322,1.703-2.279,3.178-2.279c1.432,0,2.652,0.898,3.139,2.164c0.484-1.266,1.703-2.164,3.139-2.164
		c1.604,0,2.955,1.135,3.281,2.645h2.764v-3.305h0.859V17.202H10.39z M50.784,30.07h-0.418v-1.672h0.418V30.07z M1.472,31.345
		c-0.041,0.188-0.067,0.385-0.067,0.584c0,0.168,0.021,0.33,0.055,0.49H0v-1.074H1.472z M8.74,31.345h1.124v1.072H8.757
		c0.021-0.158,0.039-0.322,0.039-0.488C8.795,31.728,8.771,31.532,8.74,31.345z M29.541,31.929c-0.021,0.16-0.037,0.324-0.037,0.49
		c0,0.102,0.008,0.197,0.014,0.299H10.167v-0.789H29.541L29.541,31.929z M48.821,31.929h3.021v0.787h-2.998
		c0.008-0.1,0.016-0.197,0.016-0.297C48.86,32.253,48.844,32.089,48.821,31.929z M0.097,25.594v1.18l-0.001,4.273h1.636
		c0.396-1.553,1.8-2.705,3.477-2.705c1.673,0,3.074,1.148,3.473,2.705h1.205V20.732h-7.57L0.097,25.594z M9.058,21.516v2.555H6.137
		l-2.161,1.817H1.088l1.606-4.372H9.058z M5.219,29.441c-1.592-0.002-2.883,1.289-2.883,2.881s1.291,2.881,2.883,2.881
		c1.59,0,2.881-1.287,2.881-2.881C8.098,30.73,6.807,29.441,5.219,29.441z M5.219,33.585c-0.699,0-1.266-0.566-1.266-1.266
		c0-0.695,0.562-1.264,1.266-1.264c0.697,0,1.263,0.564,1.263,1.264S5.916,33.585,5.219,33.585z"/>
</g>
<g>
</g>
<g>
</g>
<g>
</g>
<g>
</g>
<g>
</g>
<g>
</g>
<g>
</g>
<g>
</g>
<g>
</g>
<g>
</g>
<g>
</g>
<g>
</g>
<g>
</g>
<g>
</g>
<g>
</g>
</svg>
