<?xml version="1.0" encoding="iso-8859-1"?>
<!-- Generator: Adobe Illustrator 18.1.1, SVG Export Plug-In . SVG Version: 6.00 Build 0)  -->
<svg version="1.1" id="Capa_1" xmlns="http://www.w3.org/2000/svg" xmlns:xlink="http://www.w3.org/1999/xlink" x="0px" y="0px"
	 viewBox="0 0 54.487 54.487" style="enable-background:new 0 0 54.487 54.487;" xml:space="preserve">
<g>
	<path style="fill:#030104;" d="M43.943,23.309c-0.39,0-0.771,0.025-1.148,0.065h-2.917c0.368-0.222,0.813-0.433,1.364-0.594
		c2.011-0.59,5.695-0.583,11.82,2.787l0.924-1.68c-5.433-2.988-9.934-3.975-13.377-2.919c-2.005,0.61-3.082,1.767-3.556,2.404H36.62
		l3.935-6.807h3.388V14.65H37.13v1.917h1.215l-8.36,14.466c-0.053-0.003-0.101-0.017-0.154-0.017c-0.039,0-0.075,0.011-0.111,0.013
		l-0.607-3.307h0.719v-0.958h-2.663v0.958h0.972l0.646,3.532c-0.15,0.071-0.293,0.156-0.428,0.256l-9.979-9.282l-0.34,0.366
		c-0.025-0.013-0.05-0.026-0.075-0.04c1.571-3.458,2.865-7.137,3.098-10.235c0.331-0.309,1.69-0.686,4.941,0.588l0.698-1.785
		c-2.771-1.084-4.873-1.311-6.245-0.666c-0.932,0.436-1.2,1.121-1.245,1.254l-0.047,0.249c-0.165,2.878-1.413,6.42-2.948,9.788
		c-4.159-1.585-8.409-1.203-8.647-1.179l0.188,1.907c0.051-0.006,3.917-0.347,7.63,1.016c-0.134,0.272-0.269,0.543-0.403,0.812
		c-1.354-0.633-2.857-0.997-4.445-0.997C4.728,23.307,0,28.036,0,33.848c0,5.813,4.729,10.541,10.54,10.541
		c5.812,0,10.541-4.728,10.541-10.541c0-3.532-1.755-6.656-4.428-8.57c0.164-0.326,0.329-0.655,0.492-0.987
		c0.689,0.38,1.354,0.826,1.956,1.374c2.108,1.916,3.179,4.669,3.179,8.184h1.917c0-1.465-0.171-2.815-0.502-4.059l3.686,3.426
		c-0.012,0.094-0.028,0.188-0.028,0.284c0,1.372,1.112,2.481,2.481,2.481c0.888,0,1.664-0.472,2.101-1.174h1.521
		c0.488,5.364,5.004,9.583,10.494,9.583c5.811,0,10.537-4.728,10.537-10.541C54.48,28.038,49.752,23.309,43.943,23.309z
		 M19.16,33.849c0,4.756-3.869,8.625-8.624,8.625s-8.625-3.868-8.625-8.625c0-4.755,3.869-8.623,8.625-8.623
		c1.27,0,2.473,0.282,3.56,0.777c-2.209,4.117-4.312,7.246-4.354,7.309l1.588,1.075c0.176-0.263,2.236-3.329,4.419-7.391
		C17.818,28.574,19.16,31.054,19.16,33.849z M42.924,25.291h0.06v7.601h-7.609C35.816,28.921,38.962,25.76,42.924,25.291z
		 M32.226,32.892c-0.091-0.356-0.259-0.68-0.484-0.958l4.012-6.643h2.061c-2.421,1.739-4.08,4.471-4.363,7.601H32.226z
		 M43.943,42.474c-4.433,0-8.091-3.36-8.567-7.666H44.9v-9.524c4.307,0.478,7.666,4.136,7.666,8.565
		C52.566,38.606,48.697,42.474,43.943,42.474z"/>
</g>
<g>
</g>
<g>
</g>
<g>
</g>
<g>
</g>
<g>
</g>
<g>
</g>
<g>
</g>
<g>
</g>
<g>
</g>
<g>
</g>
<g>
</g>
<g>
</g>
<g>
</g>
<g>
</g>
<g>
</g>
</svg>
