<?xml version="1.0" encoding="iso-8859-1"?>
<!-- Generator: Adobe Illustrator 18.1.1, SVG Export Plug-In . SVG Version: 6.00 Build 0)  -->
<svg version="1.1" id="Capa_1" xmlns="http://www.w3.org/2000/svg" xmlns:xlink="http://www.w3.org/1999/xlink" x="0px" y="0px"
	 viewBox="0 0 41.869 41.869" style="enable-background:new 0 0 41.869 41.869;" xml:space="preserve">
<g>
	<path style="fill:#030104;" d="M40.522,0.972c-1.294-1.296-3.396-1.296-4.693,0L27.936,9.12L10.375,3.355l-5.718,5.72l16.149,7.409
		L10.558,27.069c-0.253,0.252-0.486,0.505-0.692,0.756l-6.621-3.039l-2.872,2.871l7.626,4.714l1.941,1.942l5.062,7.556l2.662-2.663
		l-3.691-7.896c0.157-0.107,0.31-0.232,0.451-0.374l10.775-10.433l0.169,0.169l8.424,16.711l5.303-5.306l-6.352-18.779l-0.05-0.051
		l7.829-7.582C41.82,4.371,41.82,2.268,40.522,0.972z"/>
</g>
<g>
</g>
<g>
</g>
<g>
</g>
<g>
</g>
<g>
</g>
<g>
</g>
<g>
</g>
<g>
</g>
<g>
</g>
<g>
</g>
<g>
</g>
<g>
</g>
<g>
</g>
<g>
</g>
<g>
</g>
</svg>
