<?xml version="1.0" encoding="iso-8859-1"?>
<!-- Generator: Adobe Illustrator 18.1.1, SVG Export Plug-In . SVG Version: 6.00 Build 0)  -->
<svg version="1.1" id="Capa_1" xmlns="http://www.w3.org/2000/svg" xmlns:xlink="http://www.w3.org/1999/xlink" x="0px" y="0px"
	 viewBox="0 0 73.334 73.334" style="enable-background:new 0 0 73.334 73.334;" xml:space="preserve">
<g>
	<path style="fill:#030104;" d="M73.334,37.147c0-2.705-1.005-4.818-2.416-5.279l2.37-8.498H63.084v8.385
		c-5.267-3.974-16.714-6.728-29.996-6.728C14.814,25.028,0,30.241,0,36.667c0,6.429,14.813,11.638,33.088,11.638
		c13.281,0,24.729-2.752,29.996-6.725v8.383h10.204l-2.135-7.646C72.438,41.704,73.334,39.701,73.334,37.147z M70.812,41.089
		l-1.232-4.421l1.004-3.6c0.759,0.306,1.516,1.94,1.516,4.079C72.097,39.07,71.485,40.577,70.812,41.089z"/>
</g>
<g>
</g>
<g>
</g>
<g>
</g>
<g>
</g>
<g>
</g>
<g>
</g>
<g>
</g>
<g>
</g>
<g>
</g>
<g>
</g>
<g>
</g>
<g>
</g>
<g>
</g>
<g>
</g>
<g>
</g>
</svg>
