<?xml version="1.0" encoding="iso-8859-1"?>
<!-- Generator: Adobe Illustrator 18.1.1, SVG Export Plug-In . SVG Version: 6.00 Build 0)  -->
<svg version="1.1" id="Capa_1" xmlns="http://www.w3.org/2000/svg" xmlns:xlink="http://www.w3.org/1999/xlink" x="0px" y="0px"
	 viewBox="0 0 55.023 55.023" style="enable-background:new 0 0 55.023 55.023;" xml:space="preserve">
<g>
	<g>
		<path style="fill:#030104;" d="M29.353,31.123c-0.103-0.062-0.206-0.121-0.313-0.174v-5.47c0-2.439-1.982-4.423-4.421-4.423H9.877
			c-2.439,0-4.422,1.983-4.422,4.423v5.47c-0.108,0.054-0.212,0.113-0.313,0.174l-0.277-2.622H0v2.505l4.891,0.28
			c-0.913,0.647-1.5,1.633-1.5,2.743v5.011c0,1.247,0.74,2.341,1.858,2.971v3.369c0,1.138,1.324,2.062,2.956,2.062
			c1.634,0,2.958-0.925,2.958-2.062v-2.802h11.66v2.802c0,1.138,1.323,2.062,2.957,2.062c1.633,0,2.957-0.925,2.957-2.062v-3.127
			c1.396-0.559,2.366-1.786,2.366-3.213v-5.011c0-1.11-0.587-2.096-1.503-2.743l4.893-0.28v-2.505H29.63L29.353,31.123z
			 M7.224,25.479c0-1.464,1.19-2.653,2.653-2.653h14.741c1.464,0,2.653,1.189,2.653,2.653V30.5c-0.073-0.003-0.146-0.01-0.223-0.01
			H7.446c-0.074,0-0.147,0.006-0.222,0.01V25.479L7.224,25.479z M22.112,36.976v1.18h-9.139v-1.18H22.112z M6.339,38.656v-3.875
			h5.337v3.875H6.339z M12.384,41.546c-0.409,0-0.738-0.33-0.738-0.736c0-0.407,0.33-0.737,0.738-0.737
			c0.406,0,0.736,0.329,0.736,0.737C13.12,41.216,12.79,41.546,12.384,41.546z M22.849,41.546c-0.409,0-0.737-0.33-0.737-0.736
			c0-0.407,0.329-0.737,0.737-0.737c0.407,0,0.736,0.329,0.736,0.737C23.585,41.216,23.256,41.546,22.849,41.546z M28.892,38.656
			h-5.337v-3.875h5.337V38.656z"/>
		<circle style="fill:#030104;" cx="43.441" cy="15.627" r="2.998"/>
		<path style="fill:#030104;" d="M37.679,7.581v7.687h1.183V8.764H53.84v19.069h-6.598v-4.896c0-1.492-1.211-2.704-2.707-2.704
			c-0.039,0-0.076,0.005-0.115,0.007c-0.223,0.002-0.446,0.038-0.674,0.112c-0.009,0.002-0.018,0.005-0.026,0.007
			c-0.046,0.017-0.091,0.024-0.136,0.042l-9.862,3.982c-0.983,0.397-1.519,1.374-1.194,2.18c0.326,0.807,1.389,1.138,2.373,0.739
			l6.932-2.797v3.328h-2.97v-0.739H37.68V46.56h17.343V7.582L37.679,7.581L37.679,7.581z M46.115,33.747
			c0.132,0,0.878,0.003,1.007,0.012c2.155,0.148,3.654,1.513,4.459,3.412l-10.363,0.027C42.097,35.252,43.84,33.747,46.115,33.747z
			 M41.099,37.507h10.679v0.787H41.099V37.507z M49.855,38.54l-0.131,0.078l-0.229-0.078H49.855z M47.346,38.54
			c-0.116,0.069-0.264,0.154-0.611,0.235c-0.148,0.036-0.244,0.055-0.306,0.065c-0.027-0.035-0.087-0.07-0.169-0.067
			c-0.012-0.008-0.034-0.053-0.053-0.085c-0.022-0.041-0.056-0.095-0.094-0.148H47.346L47.346,38.54z M45.405,38.54
			c-0.08,0.055-0.166,0.099-0.262,0.092c-0.132-0.003-0.16-0.029-0.229-0.092H45.405z M51.323,41.74c-0.427,0-9.219,0-9.742,0
			c-0.522,0-0.32-2.065-0.32-2.065h10.386C51.645,39.675,51.75,41.74,51.323,41.74z M52.1,39.327h-9.809
			c-0.016,0.001-0.029,0.003-0.043,0.003c-0.013,0-0.021-0.003-0.035-0.003h-1.438V38.54h0.588l0.145-0.071
			c0.004,0.006,0.017,0.033,0.039,0.071h1.809c-0.041,0.021-0.083,0.046-0.125,0.07c-0.236,0.134-0.484,0.271-0.766,0.362
			c-0.494,0.158-0.812-0.26-0.918-0.434h-0.184l-0.146,0.069c0.133,0.271,0.487,0.698,0.995,0.718h0.078
			c0.088-0.003,0.178-0.019,0.271-0.047c0.312-0.102,0.584-0.253,0.823-0.391c0.342-0.191,0.637-0.357,0.918-0.302
			c0.245,0.048,0.317,0.119,0.391,0.186c0.086,0.082,0.185,0.173,0.438,0.181c0.25,0.01,0.432-0.127,0.562-0.228
			c0.039-0.029,0.1-0.074,0.1-0.081c0.062,0.07,0.098,0.138,0.132,0.197c0.043,0.081,0.1,0.188,0.217,0.231l0.022,0.028
			c0.082,0.104,0.201,0.089,0.643-0.014c0.413-0.096,0.59-0.205,0.719-0.283c0.117-0.069,0.174-0.104,0.37-0.104h1.07l0.794,0.269
			l0.628-0.369l0.885,0.475l0.151-0.284l-0.469-0.25h1.144L52.1,39.327L52.1,39.327z"/>
	</g>
</g>
<g>
</g>
<g>
</g>
<g>
</g>
<g>
</g>
<g>
</g>
<g>
</g>
<g>
</g>
<g>
</g>
<g>
</g>
<g>
</g>
<g>
</g>
<g>
</g>
<g>
</g>
<g>
</g>
<g>
</g>
</svg>
