<?xml version="1.0" encoding="iso-8859-1"?>
<!-- Generator: Adobe Illustrator 18.1.1, SVG Export Plug-In . SVG Version: 6.00 Build 0)  -->
<svg version="1.1" id="Capa_1" xmlns="http://www.w3.org/2000/svg" xmlns:xlink="http://www.w3.org/1999/xlink" x="0px" y="0px"
	 viewBox="0 0 49.012 49.012" style="enable-background:new 0 0 49.012 49.012;" xml:space="preserve">
<g>
	<g>
		<path style="fill:#030104;" d="M15.839,31.699c0-0.25-0.141-0.479-0.363-0.593c-0.051-0.027-0.104-0.056-0.153-0.08
			c0.045-0.037,0.09-0.073,0.137-0.11c0.192-0.157,0.283-0.411,0.235-0.654c-0.053-0.245-0.234-0.439-0.476-0.51
			c-0.058-0.013-0.113-0.03-0.169-0.046c0.036-0.044,0.074-0.09,0.111-0.134c0.16-0.194,0.194-0.46,0.098-0.689
			c-0.098-0.229-0.315-0.386-0.566-0.401c-0.005,0-0.008,0-0.012,0c0.06-0.099,0.094-0.215,0.094-0.338
			c0-0.362-0.293-0.66-0.654-0.668c-0.004,0-0.008,0-0.014,0c-0.008,0-0.015,0-0.021,0.002c-0.021,0-0.039,0.002-0.061,0.004
			c-0.057,0.008-0.109,0.014-0.164,0.019c0.018-0.056,0.034-0.111,0.054-0.167c0.076-0.236,0.013-0.499-0.163-0.675
			c-0.128-0.128-0.299-0.197-0.474-0.197c-0.067,0-0.138,0.013-0.203,0.034c-0.058,0.019-0.111,0.035-0.166,0.053
			c0.006-0.058,0.011-0.117,0.018-0.174c0.027-0.25-0.088-0.492-0.296-0.63c-0.11-0.072-0.238-0.109-0.367-0.109
			c-0.111,0-0.226,0.03-0.328,0.087c-0.05,0.03-0.102,0.057-0.15,0.086c-0.006-0.058-0.011-0.115-0.019-0.174
			c-0.023-0.251-0.184-0.465-0.416-0.559c-0.08-0.03-0.164-0.048-0.247-0.048c-0.158,0-0.314,0.057-0.438,0.167
			c-0.003,0.002-0.005,0.004-0.008,0.008c-0.002-0.004-0.003-0.008-0.004-0.012c-0.066-0.241-0.264-0.424-0.51-0.476
			c-0.045-0.01-0.09-0.016-0.133-0.016c-0.2,0-0.391,0.091-0.52,0.249c-0.036,0.047-0.074,0.094-0.11,0.137
			c-0.026-0.051-0.054-0.104-0.08-0.154c-0.114-0.223-0.342-0.36-0.594-0.36c-0.25,0-0.479,0.139-0.592,0.36
			c-0.029,0.053-0.056,0.104-0.081,0.154c-0.037-0.043-0.073-0.09-0.109-0.137c-0.128-0.158-0.321-0.249-0.521-0.249
			c-0.044,0-0.087,0.006-0.134,0.016c-0.245,0.052-0.441,0.233-0.509,0.476c-0.016,0.057-0.031,0.111-0.047,0.168
			c-0.044-0.038-0.089-0.074-0.136-0.111c-0.12-0.1-0.272-0.152-0.426-0.152c-0.089,0-0.178,0.019-0.263,0.055
			c-0.229,0.099-0.385,0.317-0.4,0.566c0,0.004-0.001,0.008-0.001,0.011c-0.004-0.001-0.007-0.003-0.009-0.005
			c-0.103-0.057-0.217-0.087-0.329-0.087c-0.128,0-0.257,0.037-0.367,0.109c-0.209,0.138-0.322,0.38-0.297,0.63
			c0.008,0.057,0.014,0.116,0.021,0.174c-0.056-0.018-0.109-0.036-0.166-0.053c-0.067-0.021-0.137-0.034-0.206-0.034
			c-0.173,0-0.345,0.069-0.471,0.197c-0.177,0.176-0.24,0.438-0.162,0.675c0.019,0.057,0.034,0.111,0.052,0.167
			C3.496,27.496,3.44,27.49,3.38,27.483c-0.025-0.004-0.05-0.006-0.073-0.006c-0.223,0-0.433,0.112-0.556,0.302
			c-0.14,0.209-0.146,0.478-0.021,0.693c0.025,0.052,0.056,0.103,0.085,0.152c-0.06,0.006-0.116,0.011-0.176,0.018
			c-0.249,0.023-0.464,0.185-0.557,0.416c-0.093,0.232-0.047,0.496,0.117,0.687c0.003,0.003,0.005,0.005,0.007,0.008
			c-0.002,0-0.007,0-0.009,0.001c-0.242,0.069-0.424,0.266-0.478,0.51c-0.05,0.243,0.04,0.497,0.236,0.654
			c0.047,0.037,0.09,0.073,0.136,0.11c-0.051,0.024-0.104,0.053-0.155,0.08c-0.223,0.112-0.361,0.343-0.361,0.593
			c0,0.249,0.14,0.479,0.361,0.593c0.053,0.026,0.105,0.054,0.156,0.08c-0.046,0.037-0.09,0.075-0.137,0.11
			c-0.196,0.156-0.286,0.409-0.236,0.654c0.054,0.245,0.234,0.441,0.477,0.509c0.058,0.017,0.111,0.03,0.168,0.048
			c-0.037,0.044-0.071,0.088-0.11,0.134c-0.16,0.193-0.197,0.459-0.1,0.688c0.1,0.231,0.317,0.386,0.568,0.403
			c0.003,0,0.006,0,0.009,0c-0.001,0.003-0.003,0.005-0.003,0.01c-0.125,0.218-0.117,0.485,0.021,0.694
			c0.124,0.188,0.333,0.298,0.556,0.298c0.023,0,0.049,0,0.074-0.004c0.059-0.005,0.115-0.013,0.173-0.018
			c-0.018,0.055-0.034,0.11-0.055,0.167c-0.075,0.238-0.012,0.499,0.165,0.677c0.126,0.127,0.298,0.193,0.471,0.193
			c0.069,0,0.139-0.011,0.205-0.032c0.058-0.017,0.111-0.034,0.167-0.052c-0.007,0.056-0.012,0.114-0.019,0.174
			c-0.027,0.248,0.086,0.491,0.297,0.629c0.109,0.072,0.237,0.109,0.365,0.109c0.112,0,0.228-0.028,0.328-0.087
			c0.052-0.028,0.103-0.058,0.152-0.086c0.005,0.06,0.011,0.116,0.018,0.175c0.023,0.248,0.185,0.465,0.417,0.556
			c0.079,0.033,0.165,0.049,0.247,0.049c0.158,0,0.313-0.058,0.438-0.163c0.003-0.004,0.007-0.006,0.008-0.008
			c0.001,0.002,0.002,0.008,0.002,0.01c0.066,0.239,0.264,0.424,0.508,0.478c0.047,0.008,0.091,0.012,0.135,0.012
			c0.199,0,0.394-0.091,0.52-0.249c0.038-0.046,0.074-0.092,0.111-0.136c0.025,0.051,0.052,0.103,0.081,0.154
			c0.114,0.224,0.342,0.362,0.592,0.362c0.252,0,0.479-0.14,0.594-0.362c0.026-0.055,0.054-0.104,0.08-0.156
			c0.037,0.046,0.074,0.092,0.111,0.138c0.128,0.158,0.318,0.249,0.52,0.249c0.044,0,0.089-0.004,0.134-0.012
			c0.245-0.053,0.44-0.237,0.509-0.478c0.016-0.057,0.03-0.112,0.047-0.169c0.046,0.036,0.092,0.073,0.136,0.109
			c0.122,0.104,0.272,0.154,0.426,0.154c0.089,0,0.179-0.018,0.265-0.055c0.228-0.101,0.385-0.315,0.399-0.567
			c0-0.002,0.001-0.006,0.001-0.011c0.002,0.002,0.005,0.005,0.008,0.006c0.104,0.059,0.217,0.087,0.328,0.087
			c0.129,0,0.257-0.037,0.367-0.109c0.208-0.138,0.323-0.381,0.296-0.63c-0.007-0.061-0.012-0.117-0.018-0.173
			c0.056,0.018,0.108,0.035,0.166,0.052c0.066,0.022,0.136,0.032,0.203,0.032c0.175,0,0.346-0.068,0.475-0.193
			c0.175-0.178,0.238-0.438,0.162-0.677c-0.02-0.058-0.036-0.112-0.054-0.167c0.058,0.005,0.113,0.013,0.174,0.018
			c0.022,0.002,0.049,0.005,0.072,0.005c0.222,0,0.434-0.111,0.557-0.299c0.138-0.21,0.146-0.478,0.022-0.695
			c-0.028-0.052-0.057-0.103-0.085-0.154c0.057-0.004,0.115-0.009,0.175-0.016c0.249-0.023,0.463-0.185,0.556-0.416
			c0.094-0.232,0.048-0.496-0.117-0.688c-0.003-0.003-0.005-0.005-0.007-0.007c0.004-0.002,0.007-0.002,0.012-0.004
			c0.241-0.065,0.423-0.263,0.476-0.506c0.048-0.246-0.042-0.499-0.235-0.655c-0.047-0.038-0.092-0.073-0.137-0.11
			c0.051-0.025,0.104-0.054,0.153-0.08C15.698,32.176,15.839,31.948,15.839,31.699z M8.707,35.168c-1.916,0-3.47-1.553-3.47-3.47
			c0-1.916,1.554-3.472,3.47-3.472c1.917,0,3.472,1.556,3.472,3.472C12.179,33.616,10.624,35.168,8.707,35.168z"/>
		<path style="fill:#030104;" d="M46.409,31.699c0-0.25-0.142-0.479-0.361-0.593c-0.053-0.027-0.104-0.056-0.157-0.08
			c0.045-0.037,0.091-0.073,0.138-0.11c0.194-0.157,0.285-0.411,0.235-0.654c-0.052-0.245-0.233-0.439-0.475-0.51
			c-0.059-0.013-0.113-0.03-0.168-0.046c0.036-0.044,0.071-0.09,0.109-0.134c0.159-0.194,0.197-0.46,0.1-0.689
			c-0.1-0.229-0.319-0.386-0.568-0.401c-0.003,0-0.006,0-0.01,0c0.059-0.099,0.091-0.215,0.091-0.338c0-0.362-0.29-0.66-0.653-0.668
			c-0.004,0-0.008,0-0.013,0c-0.006,0-0.014,0-0.021,0.002c-0.02,0-0.038,0.002-0.06,0.004c-0.055,0.008-0.11,0.014-0.164,0.019
			c0.018-0.056,0.032-0.111,0.054-0.167c0.074-0.236,0.013-0.499-0.166-0.675c-0.125-0.128-0.296-0.197-0.47-0.197
			c-0.068,0-0.138,0.013-0.204,0.034c-0.056,0.019-0.111,0.035-0.168,0.053c0.008-0.058,0.015-0.117,0.021-0.174
			c0.026-0.25-0.087-0.492-0.295-0.63c-0.111-0.072-0.239-0.109-0.367-0.109c-0.115,0-0.228,0.03-0.327,0.087
			c-0.053,0.03-0.104,0.057-0.154,0.086c-0.005-0.058-0.011-0.115-0.018-0.174c-0.023-0.251-0.183-0.465-0.415-0.559
			c-0.082-0.03-0.164-0.048-0.249-0.048c-0.156,0-0.312,0.057-0.438,0.167c-0.003,0.002-0.005,0.004-0.009,0.008
			c0-0.004-0.001-0.008-0.002-0.012c-0.067-0.241-0.263-0.424-0.509-0.476c-0.044-0.01-0.091-0.016-0.136-0.016
			c-0.199,0-0.392,0.091-0.52,0.249c-0.036,0.047-0.072,0.094-0.109,0.137c-0.027-0.051-0.054-0.104-0.081-0.154
			c-0.112-0.223-0.343-0.36-0.592-0.36c-0.25,0-0.479,0.139-0.595,0.36c-0.024,0.053-0.053,0.104-0.079,0.154
			c-0.035-0.043-0.072-0.09-0.108-0.137c-0.127-0.158-0.319-0.249-0.521-0.249c-0.044,0-0.09,0.006-0.134,0.016
			c-0.246,0.052-0.44,0.233-0.508,0.476c-0.016,0.057-0.032,0.111-0.047,0.168c-0.045-0.038-0.089-0.074-0.136-0.111
			c-0.121-0.1-0.273-0.152-0.425-0.152c-0.09,0-0.181,0.019-0.264,0.055c-0.229,0.099-0.386,0.317-0.403,0.566
			c0,0.004,0,0.008,0,0.011c-0.002-0.001-0.006-0.003-0.009-0.005c-0.103-0.057-0.214-0.087-0.328-0.087
			c-0.128,0-0.257,0.037-0.365,0.109c-0.209,0.138-0.324,0.38-0.297,0.63c0.007,0.057,0.012,0.116,0.018,0.174
			c-0.054-0.018-0.109-0.036-0.166-0.053c-0.066-0.021-0.136-0.034-0.204-0.034c-0.175,0-0.343,0.069-0.472,0.197
			c-0.177,0.176-0.238,0.438-0.163,0.675c0.018,0.057,0.037,0.111,0.054,0.167c-0.056-0.005-0.117-0.011-0.175-0.018
			c-0.023-0.004-0.048-0.006-0.072-0.006c-0.223,0-0.432,0.112-0.557,0.302c-0.138,0.209-0.147,0.478-0.022,0.693
			c0.028,0.052,0.057,0.103,0.085,0.152c-0.057,0.006-0.116,0.011-0.174,0.018c-0.249,0.023-0.464,0.185-0.557,0.416
			c-0.093,0.232-0.049,0.496,0.116,0.687c0.002,0.003,0.004,0.005,0.007,0.008c-0.004,0-0.007,0-0.009,0.001
			c-0.242,0.069-0.427,0.266-0.476,0.51c-0.051,0.243,0.04,0.497,0.234,0.654c0.046,0.037,0.092,0.073,0.136,0.11
			c-0.05,0.024-0.102,0.053-0.155,0.08c-0.223,0.112-0.362,0.343-0.362,0.593c0,0.249,0.141,0.479,0.362,0.593
			c0.055,0.026,0.105,0.054,0.157,0.08c-0.046,0.037-0.092,0.075-0.138,0.11c-0.194,0.156-0.285,0.409-0.234,0.654
			c0.049,0.245,0.232,0.441,0.474,0.509c0.059,0.017,0.114,0.03,0.17,0.048c-0.036,0.044-0.074,0.088-0.111,0.134
			c-0.159,0.193-0.198,0.459-0.1,0.688c0.1,0.231,0.317,0.386,0.567,0.403c0.003,0,0.006,0,0.011,0
			c-0.003,0.003-0.005,0.005-0.005,0.01c-0.125,0.218-0.114,0.485,0.022,0.694c0.125,0.188,0.334,0.298,0.557,0.298
			c0.024,0,0.049,0,0.072-0.004c0.058-0.005,0.118-0.013,0.175-0.018c-0.019,0.055-0.036,0.11-0.054,0.167
			c-0.077,0.238-0.016,0.499,0.163,0.677c0.129,0.127,0.297,0.193,0.472,0.193c0.068,0,0.138-0.011,0.204-0.032
			c0.057-0.017,0.112-0.034,0.168-0.052c-0.008,0.056-0.013,0.114-0.019,0.174c-0.028,0.248,0.087,0.491,0.296,0.629
			c0.108,0.072,0.237,0.109,0.365,0.109c0.114,0,0.227-0.028,0.328-0.087c0.054-0.028,0.104-0.058,0.152-0.086
			c0.006,0.06,0.012,0.116,0.017,0.175c0.024,0.248,0.186,0.465,0.418,0.556c0.08,0.033,0.162,0.049,0.246,0.049
			c0.158,0,0.314-0.058,0.438-0.163c0.003-0.004,0.006-0.006,0.008-0.008c0.001,0.002,0.002,0.008,0.003,0.01
			c0.066,0.239,0.262,0.424,0.508,0.478c0.044,0.008,0.089,0.012,0.134,0.012c0.202,0,0.395-0.091,0.521-0.249
			c0.036-0.046,0.073-0.092,0.109-0.136c0.025,0.051,0.054,0.103,0.078,0.154c0.115,0.224,0.345,0.362,0.595,0.362
			c0.249,0,0.479-0.14,0.592-0.362c0.028-0.055,0.054-0.104,0.082-0.156c0.037,0.046,0.072,0.092,0.108,0.138
			c0.128,0.158,0.32,0.249,0.521,0.249c0.046,0,0.091-0.004,0.135-0.012c0.246-0.053,0.443-0.237,0.509-0.478
			c0.016-0.057,0.032-0.112,0.048-0.169c0.044,0.036,0.09,0.073,0.136,0.109c0.121,0.104,0.272,0.154,0.425,0.154
			c0.089,0,0.178-0.018,0.263-0.055c0.229-0.101,0.386-0.315,0.402-0.567c0-0.002,0-0.006,0-0.011
			c0.004,0.002,0.007,0.005,0.01,0.006c0.103,0.059,0.213,0.087,0.328,0.087c0.128,0,0.256-0.037,0.367-0.109
			c0.208-0.138,0.322-0.381,0.295-0.63c-0.006-0.061-0.013-0.117-0.021-0.173c0.057,0.018,0.112,0.035,0.168,0.052
			c0.067,0.022,0.136,0.032,0.204,0.032c0.175,0,0.346-0.068,0.472-0.193c0.177-0.178,0.239-0.438,0.165-0.677
			c-0.021-0.058-0.036-0.112-0.055-0.167c0.058,0.005,0.114,0.013,0.174,0.018c0.024,0.002,0.048,0.005,0.072,0.005
			c0.225,0,0.433-0.111,0.559-0.299c0.136-0.21,0.146-0.478,0.022-0.695c-0.03-0.052-0.059-0.103-0.088-0.154
			c0.059-0.004,0.115-0.009,0.176-0.016c0.248-0.023,0.464-0.185,0.556-0.416c0.094-0.232,0.049-0.496-0.116-0.688
			c-0.001-0.003-0.006-0.005-0.008-0.007c0.004-0.002,0.008-0.002,0.012-0.004c0.24-0.065,0.423-0.263,0.475-0.506
			c0.05-0.246-0.041-0.499-0.235-0.655c-0.047-0.038-0.093-0.073-0.138-0.11c0.055-0.025,0.104-0.054,0.158-0.08
			C46.269,32.176,46.409,31.948,46.409,31.699z M39.278,35.168c-1.918,0-3.472-1.553-3.472-3.47c0-1.916,1.554-3.472,3.472-3.472
			c1.916,0,3.471,1.556,3.471,3.472C42.749,33.616,41.194,35.168,39.278,35.168z"/>
		<path style="fill:#030104;" d="M47.525,17.499c-5.093-1.589-11.709-1.035-11.709-1.035h-3.245l-5.972-6.283H14.55V10.7
			l-0.317-0.409l-7.966,6.174H0v9.988h2.72c0.344-3.09,2.909-5.494,6.028-5.494c3.118,0,5.686,2.404,6.027,5.494h18.164
			c1.916-8.993,14.585-4.132,14.585-4.132S50.872,19.87,47.525,17.499z M7.953,16.464l6.597-5.114v5.114H7.953z M16.1,16.464v-4.733
			h9.648l4.984,4.733H16.1z"/>
	</g>
</g>
<g>
</g>
<g>
</g>
<g>
</g>
<g>
</g>
<g>
</g>
<g>
</g>
<g>
</g>
<g>
</g>
<g>
</g>
<g>
</g>
<g>
</g>
<g>
</g>
<g>
</g>
<g>
</g>
<g>
</g>
</svg>
