<?xml version="1.0" encoding="iso-8859-1"?>
<!-- Generator: Adobe Illustrator 18.1.1, SVG Export Plug-In . SVG Version: 6.00 Build 0)  -->
<svg version="1.1" id="Capa_1" xmlns="http://www.w3.org/2000/svg" xmlns:xlink="http://www.w3.org/1999/xlink" x="0px" y="0px"
	 viewBox="0 0 49.491 49.491" style="enable-background:new 0 0 49.491 49.491;" xml:space="preserve">
<g>
	<path style="fill:#030104;" d="M43.949,17.523c0-5.529-2.811-10.459-7.196-13.671c7.614,10.812,0.873,19.754,0.801,19.845
		c-8.614,10.365-9.766,17.889-9.893,19.316h-1.82c-0.117-1.418-0.111-10.156,8.99-19.52c0.059-0.076,9.448-9.236,1.149-20.179
		C32.821,1.229,28.942,0,24.745,0c-3.928,0-7.58,1.079-10.624,2.927l0.022,0.017C5.4,14.05,14.664,23.417,14.736,23.51
		c9.904,10.082,9.817,18.15,9.681,19.504h-2.193c0.135-1.259,0.212-7.777-9.927-19.302c-0.084-0.107-7.032-9.321,1.144-20.353
		c-4.786,3.188-7.899,8.344-7.899,14.163c0,7.906,11.272,17.718,15.398,25.49h-0.198v6.479h8.926v-6.479h-0.492
		C33.23,35.369,43.949,24.073,43.949,17.523z"/>
</g>
<g>
</g>
<g>
</g>
<g>
</g>
<g>
</g>
<g>
</g>
<g>
</g>
<g>
</g>
<g>
</g>
<g>
</g>
<g>
</g>
<g>
</g>
<g>
</g>
<g>
</g>
<g>
</g>
<g>
</g>
</svg>
