<?xml version="1.0" encoding="iso-8859-1"?>
<!-- Generator: Adobe Illustrator 18.1.1, SVG Export Plug-In . SVG Version: 6.00 Build 0)  -->
<svg version="1.1" id="Capa_1" xmlns="http://www.w3.org/2000/svg" xmlns:xlink="http://www.w3.org/1999/xlink" x="0px" y="0px"
	 viewBox="0 0 58.378 58.378" style="enable-background:new 0 0 58.378 58.378;" xml:space="preserve">
<g>
	<path style="fill:#030104;" d="M52.036,26.687c0.233-0.227,0.377-0.542,0.377-0.892c0-0.688-0.557-1.246-1.245-1.246h-6.7
		l-1.779-5.22l2.45,0.306c0.773,0,1.4-1.488,1.4-2.262s-0.627-2.263-1.4-2.263l-6.908,0.862c-0.774,0-1.401,0.627-1.401,1.4
		s0.627,1.399,1.401,1.399l2.5,0.312l-4.304,12.504C26.257,28.729,19.8,18.934,18.468,16.749c1.348-1.768,4.655-3.949,7.153-4.518
		c0.719-0.226,1.033-0.32,1.033-1.108s-0.79-0.713-0.79-0.713c-3.366,0.733-5.733,2.209-7.393,3.827h-8.372
		c-1.735,0-3.147,1.412-3.147,3.149v3.795c0,1.735,0.747,3.148,2.483,3.148h3.794c0.392,0,0.763-0.081,1.109-0.212
		c-0.097,0.626-0.2,1.234-0.315,1.817c-0.902-0.235-1.844-0.373-2.819-0.373C5.026,25.562,0,30.588,0,36.765
		s5.026,11.204,11.204,11.204c6.179,0,11.204-5.026,11.204-11.204c0-4.586-2.772-8.533-6.729-10.266
		c0.212-1.069,0.4-2.211,0.552-3.422c1.84,2.421,6.349,7.605,10.628,11.114c-0.039,0.22-0.069,0.442-0.069,0.672
		c0,1.17,0.521,2.209,1.333,2.931l-0.529,0.747l-0.772,1.026l-0.806-1.032l-0.68,0.53l0.949,1.216l-0.043,0.059l1.473,1.77
		l0.671-0.54l-1.014-1.298l1.432-1.991c0.571,0.323,1.223,0.521,1.925,0.521c1.109,0,2.108-0.462,2.824-1.2l2.459,0.005
		c0.433,5.785,5.267,10.363,11.161,10.363c6.178,0,11.205-5.026,11.205-11.204C58.377,32.331,55.782,28.502,52.036,26.687z
		 M46.324,27.326v2.664l-0.867-2.543C45.743,27.395,46.031,27.354,46.324,27.326z M41.128,22.969l1.47,3.58
		c-1.318,0.592-2.5,1.43-3.489,2.458L41.128,22.969z M43.254,28.143l3.07,7.48v0.279h-8.587
		C38.051,32.445,40.228,29.524,43.254,28.143z M13.229,22.999H9.435c-1.002,0-1.154-0.815-1.154-1.817v-1.233h2.333h4.353
		c-0.167,0.546-0.23,0.895-0.234,0.923c-0.046,0.522-0.103,1.026-0.16,1.523C14.24,22.763,13.764,22.999,13.229,22.999z
		 M20.686,36.764c0,5.228-4.252,9.479-9.48,9.479s-9.48-4.251-9.48-9.479s4.253-9.48,9.48-9.48c0.852,0,1.674,0.125,2.46,0.336
		c-1.412,6.018-3.51,9.329-3.538,9.372l1.446,0.938c0.12-0.186,2.271-3.557,3.731-9.699C18.481,29.763,20.686,33.008,20.686,36.764z
		 M15.459,18.618H8.281v-1.231c0-1.003,0.816-1.818,1.818-1.818h7.178C16.427,16.649,15.845,17.723,15.459,18.618z M16.603,20.421
		c0.141-0.494,0.399-1.221,0.837-2.054c1.677,2.621,6.152,8.793,13.02,12.586c-1.16,0.08-2.177,0.656-2.845,1.526
		C23.327,28.746,18.524,23.06,16.603,20.421z M36.013,35.902h-1.502c0.092-0.333,0.156-0.677,0.156-1.039
		c0-0.87-0.291-1.667-0.768-2.317c0.84,0.317,1.697,0.61,2.593,0.84C36.237,34.189,36.081,35.033,36.013,35.902z M47.173,46.243
		c-4.942,0-9.008-3.804-9.437-8.635l11.16,0.018v-1.148h0.013v-9.026c4.399,0.819,7.744,4.681,7.744,9.313
		C56.653,41.992,52.401,46.243,47.173,46.243z"/>
</g>
<g>
</g>
<g>
</g>
<g>
</g>
<g>
</g>
<g>
</g>
<g>
</g>
<g>
</g>
<g>
</g>
<g>
</g>
<g>
</g>
<g>
</g>
<g>
</g>
<g>
</g>
<g>
</g>
<g>
</g>
</svg>
