<?xml version="1.0" encoding="iso-8859-1"?>
<!-- Generator: Adobe Illustrator 18.1.1, SVG Export Plug-In . SVG Version: 6.00 Build 0)  -->
<svg version="1.1" id="Capa_1" xmlns="http://www.w3.org/2000/svg" xmlns:xlink="http://www.w3.org/1999/xlink" x="0px" y="0px"
	 viewBox="0 0 51.07 51.07" style="enable-background:new 0 0 51.07 51.07;" xml:space="preserve">
<g>
	<path style="fill:#030104;" d="M0,31.132c0,6.004,4.887,10.888,10.89,10.888c6.006,0,10.889-4.884,10.889-10.888
		c0-4.718-3.021-8.732-7.227-10.242l0.854-3.393l11.711,14.688h2.229c0.531,5.512,5.188,9.834,10.835,9.834
		c6.005,0,10.889-4.884,10.889-10.888s-4.885-10.888-10.89-10.888c-1.903,0-3.694,0.494-5.253,1.356l-2.911-4.249l1.656-6.896
		h-6.049v2.107h3.375l-0.761,3.16H15.85l1.148-4.565h3.726V9.049h-9.835v2.107h3.938l-2.318,9.22
		c-0.53-0.078-1.066-0.133-1.619-0.133C4.887,20.243,0,25.128,0,31.132z M33.189,22.794c-2.126,1.786-3.562,4.368-3.845,7.283
		h-0.386l2.394-9.966L33.189,22.794z M34.392,24.546l3.789,5.532h-6.712C31.731,27.882,32.811,25.939,34.392,24.546z M31.469,32.187
		h10.71l-6.054-8.835c1.215-0.635,2.593-0.999,4.055-0.999c4.842,0,8.781,3.938,8.781,8.781c0,4.841-3.939,8.78-8.781,8.78
		C35.694,39.913,31.991,36.532,31.469,32.187z M18.368,17.83h11.365l-2.632,10.958L18.368,17.83z M2.109,31.132
		c0-4.843,3.939-8.781,8.78-8.781c0.375,0,0.742,0.031,1.104,0.077l-2.125,8.447l2.044,0.514l2.123-8.444
		c3.291,1.269,5.635,4.456,5.635,8.188c0,4.841-3.938,8.78-8.781,8.78C6.049,39.913,2.109,35.974,2.109,31.132z"/>
</g>
<g>
</g>
<g>
</g>
<g>
</g>
<g>
</g>
<g>
</g>
<g>
</g>
<g>
</g>
<g>
</g>
<g>
</g>
<g>
</g>
<g>
</g>
<g>
</g>
<g>
</g>
<g>
</g>
<g>
</g>
</svg>
