<?xml version="1.0" encoding="iso-8859-1"?>
<!-- Generator: Adobe Illustrator 18.1.1, SVG Export Plug-In . SVG Version: 6.00 Build 0)  -->
<svg version="1.1" id="Capa_1" xmlns="http://www.w3.org/2000/svg" xmlns:xlink="http://www.w3.org/1999/xlink" x="0px" y="0px"
	 viewBox="0 0 55.022 55.022" style="enable-background:new 0 0 55.022 55.022;" xml:space="preserve">
<g>
	<g>
		<path style="fill:#030104;" d="M29.353,31.122c-0.103-0.061-0.206-0.119-0.314-0.174v-5.469c0-2.439-1.983-4.422-4.423-4.422
			H9.876c-2.439,0-4.422,1.982-4.422,4.422v5.469c-0.107,0.056-0.212,0.113-0.313,0.174L4.864,28.5H0v2.506l4.891,0.278
			C3.976,31.934,3.39,32.92,3.39,34.028v5.013c0,1.244,0.741,2.34,1.86,2.97v3.366c0,1.142,1.323,2.064,2.957,2.064
			c1.633,0,2.957-0.924,2.957-2.064v-2.8h11.66v2.8c0,1.142,1.324,2.064,2.957,2.064s2.956-0.924,2.956-2.064v-3.125
			c1.396-0.56,2.367-1.785,2.367-3.212v-5.012c0-1.108-0.587-2.095-1.501-2.744l4.892-0.278V28.5h-4.864L29.353,31.122z
			 M7.223,25.479c0-1.464,1.19-2.654,2.653-2.654h14.74c1.464,0,2.655,1.19,2.655,2.654V30.5c-0.076-0.005-0.149-0.012-0.225-0.012
			h-19.6c-0.076,0-0.15,0.007-0.223,0.012C7.223,30.5,7.223,25.479,7.223,25.479z M22.11,36.977v1.179h-9.139v-1.179H22.11z
			 M6.338,38.657v-3.876h5.337v3.876H6.338z M12.382,41.546c-0.407,0-0.737-0.329-0.737-0.737c0-0.406,0.331-0.737,0.737-0.737
			c0.406,0,0.736,0.331,0.736,0.737C13.118,41.216,12.789,41.546,12.382,41.546z M22.847,41.546c-0.407,0-0.738-0.329-0.738-0.737
			c0-0.406,0.331-0.737,0.738-0.737c0.407,0,0.736,0.331,0.736,0.737C23.584,41.216,23.254,41.546,22.847,41.546z M28.891,38.657
			h-5.337v-3.876h5.337V38.657z"/>
		<circle style="fill:#030104;" cx="43.44" cy="15.627" r="2.998"/>
		<path style="fill:#030104;" d="M37.679,7.58v7.688h1.181V8.764h14.978v19.068h-6.597v-4.895c0-1.493-1.211-2.705-2.705-2.705
			c-0.041,0-0.081,0.004-0.119,0.006c-0.221,0.001-0.446,0.04-0.672,0.112c-0.009,0.003-0.019,0.006-0.026,0.008
			c-0.046,0.017-0.09,0.025-0.135,0.043l-9.864,3.981c-0.984,0.397-1.519,1.373-1.193,2.179c0.326,0.807,1.387,1.137,2.372,0.741
			l6.933-2.801v3.33h-2.971v-0.74H37.68v19.467h17.342V7.58H37.679L37.679,7.58z M51.59,38.532h-4.071v4.072h-2.163v-4.072h-4.071
			v-2.163h4.071v-4.07h2.163v4.07h4.071C51.59,36.368,51.59,38.532,51.59,38.532z"/>
	</g>
</g>
<g>
</g>
<g>
</g>
<g>
</g>
<g>
</g>
<g>
</g>
<g>
</g>
<g>
</g>
<g>
</g>
<g>
</g>
<g>
</g>
<g>
</g>
<g>
</g>
<g>
</g>
<g>
</g>
<g>
</g>
</svg>
