<?xml version="1.0" encoding="iso-8859-1"?>
<!-- Generator: Adobe Illustrator 18.1.1, SVG Export Plug-In . SVG Version: 6.00 Build 0)  -->
<svg version="1.1" id="Capa_1" xmlns="http://www.w3.org/2000/svg" xmlns:xlink="http://www.w3.org/1999/xlink" x="0px" y="0px"
	 viewBox="0 0 44.282 44.282" style="enable-background:new 0 0 44.282 44.282;" xml:space="preserve">
<g>
	<g>
		<path style="fill:#030104;" d="M41.595,19.481v-8.294h-8.029v8.294c-0.223,0-0.446,0-0.675,0v-4.337h-6.857v4.337
			c-0.211,0-0.425,0-0.638,0v-8.76c0-0.564-0.458-1.021-1.021-1.021h-7.658c-0.421,0-0.798,0.26-0.953,0.651l-3.549,9.13
			c-4.505,0-7.851,0-8.514,0c-2.427,0-2.427,3.065-2.427,3.065v6.125H0v2.171h1.274h1.532h0.606
			c0.519-3.185,3.272-5.616,6.603-5.616s6.087,2.432,6.605,5.616h10.784c0.519-3.185,3.274-5.616,6.604-5.616
			c3.329,0,6.086,2.432,6.604,5.616h3.67V19.481C44.285,19.481,43.281,19.481,41.595,19.481z M23.354,18.89h-8.718l2.779-7.149
			h5.938L23.354,18.89L23.354,18.89z"/>
		<path style="fill:#030104;" d="M10.071,26.205c-3.242,0-5.872,2.629-5.872,5.871s2.63,5.87,5.872,5.87
			c3.241,0,5.869-2.628,5.869-5.87C15.941,28.834,13.313,26.205,10.071,26.205z M10.071,35.386c-1.824,0-3.311-1.486-3.311-3.311
			c0-1.826,1.485-3.31,3.311-3.31c1.824,0,3.31,1.483,3.31,3.31C13.381,33.899,11.896,35.386,10.071,35.386z"/>
		<path style="fill:#030104;" d="M34.193,26.205c-3.242,0-5.87,2.629-5.87,5.871s2.628,5.87,5.87,5.87s5.871-2.628,5.871-5.87
			S37.436,26.205,34.193,26.205z M34.193,35.386c-1.824,0-3.309-1.486-3.309-3.311c0-1.826,1.483-3.31,3.309-3.31
			c1.823,0,3.31,1.483,3.31,3.31C37.502,33.899,36.017,35.386,34.193,35.386z"/>
		<rect x="26.526" y="7.485" style="fill:#030104;" width="5.871" height="6.636"/>
		<rect x="35.571" y="6.337" style="fill:#030104;" width="4.017" height="4.339"/>
	</g>
</g>
<g>
</g>
<g>
</g>
<g>
</g>
<g>
</g>
<g>
</g>
<g>
</g>
<g>
</g>
<g>
</g>
<g>
</g>
<g>
</g>
<g>
</g>
<g>
</g>
<g>
</g>
<g>
</g>
<g>
</g>
</svg>
