<?xml version="1.0" encoding="iso-8859-1"?>
<!-- Generator: Adobe Illustrator 18.1.1, SVG Export Plug-In . SVG Version: 6.00 Build 0)  -->
<svg version="1.1" id="Capa_1" xmlns="http://www.w3.org/2000/svg" xmlns:xlink="http://www.w3.org/1999/xlink" x="0px" y="0px"
	 viewBox="0 0 39.776 39.776" style="enable-background:new 0 0 39.776 39.776;" xml:space="preserve">
<g>
	<g>
		<rect x="34.415" y="11.244" style="fill:#030104;" width="5.361" height="2.743"/>
		<rect x="0" y="11.244" style="fill:#030104;" width="5.362" height="2.743"/>
		<rect x="3.243" y="22.923" style="fill:#030104;" width="4.239" height="11.471"/>
		<path style="fill:#030104;" d="M32.731,5.382H7.046l-1.387,9.477H2.682v7.482h4.863v5.485l2.494,2.991v-1.246h20.698v1.246
			l2.119-2.991v6.565h4.239v-11.47H33.23V22.34h3.865v-7.482h-2.978L32.731,5.382z M7.483,20.532H4.552v-2.93h2.931V20.532z
			 M9.706,20.594c-0.873,0-1.58-0.707-1.58-1.578c0-0.872,0.707-1.579,1.58-1.579c0.872,0,1.58,0.707,1.58,1.579
			C11.285,19.888,10.578,20.594,9.706,20.594z M29.656,20.594c-0.873,0-1.58-0.707-1.58-1.578c0-0.872,0.707-1.579,1.58-1.579
			c0.872,0,1.58,0.707,1.58,1.579C31.236,19.888,30.528,20.594,29.656,20.594z M34.83,20.532H31.9v-2.93h2.93
			C34.83,17.602,34.83,20.532,34.83,20.532z"/>
	</g>
</g>
<g>
</g>
<g>
</g>
<g>
</g>
<g>
</g>
<g>
</g>
<g>
</g>
<g>
</g>
<g>
</g>
<g>
</g>
<g>
</g>
<g>
</g>
<g>
</g>
<g>
</g>
<g>
</g>
<g>
</g>
</svg>
