<?xml version="1.0" encoding="iso-8859-1"?>
<!-- Generator: Adobe Illustrator 18.1.1, SVG Export Plug-In . SVG Version: 6.00 Build 0)  -->
<svg version="1.1" id="Capa_1" xmlns="http://www.w3.org/2000/svg" xmlns:xlink="http://www.w3.org/1999/xlink" x="0px" y="0px"
	 viewBox="0 0 49 49" style="enable-background:new 0 0 49 49;" xml:space="preserve">
<g>
	<path style="fill:#030104;" d="M48.231,24.976c-1.104-0.367-4.686-0.44-9.326-0.349l-5.793-5.239H14.378L9.285,15.69l-1.151-0.246
		l4.071,3.944H8.134c0,0,0,1.645,6.137,1.425c2.917-0.257,5.148,5.807,2.408,5.458c0,0-9.691-0.035-10.517,0.02
		c-1.603,0.107-3.041,3.068-3.87,5.178H0v1.148h1.87c-0.199,0.572-0.308,0.94-0.308,0.94h38.122
		C39.685,33.557,52.172,26.287,48.231,24.976z M19.8,23.514c-0.327-2.774,2.729-2.482,2.729-2.482h1.215l-0.655,2.482H19.8z
		 M26.622,23.514h-2.876l0.657-2.482h2.876L26.622,23.514z M27.444,23.514l0.656-2.482h2.383l-0.654,2.482H27.444z M30.483,23.514
		l0.656-2.482h0.984l2.959,2.482H30.483z"/>
</g>
<g>
</g>
<g>
</g>
<g>
</g>
<g>
</g>
<g>
</g>
<g>
</g>
<g>
</g>
<g>
</g>
<g>
</g>
<g>
</g>
<g>
</g>
<g>
</g>
<g>
</g>
<g>
</g>
<g>
</g>
</svg>
