<?xml version="1.0" encoding="iso-8859-1"?>
<!-- Generator: Adobe Illustrator 18.1.1, SVG Export Plug-In . SVG Version: 6.00 Build 0)  -->
<svg version="1.1" id="Capa_1" xmlns="http://www.w3.org/2000/svg" xmlns:xlink="http://www.w3.org/1999/xlink" x="0px" y="0px"
	 viewBox="0 0 48.515 48.515" style="enable-background:new 0 0 48.515 48.515;" xml:space="preserve">
<g>
	<g>
		<g>
			<g>
				<rect x="20.482" y="11.404" style="fill:#030104;" width="6.556" height="1.312"/>
			</g>
		</g>
		<g>
			<g>
				<path style="fill:#030104;" d="M42.991,21.455h5.524v-3.184H42.83v2.811v0.151h-1.89L39.259,8.048
					c-19.625-2.224-30.999,0-30.999,0L6.577,21.233H5.681v-0.151v-2.811H0v3.184h4.527H5.68v0.15H4.527v1.442h-1.47v2.863h1.47
					v4.792h4.804v2.518h3.221h26.783v-2.518h3.652v-4.729h3.591v-3.076h-3.591v-1.293h-0.159v-0.15h0.163V21.455z M11.866,10.42
					h24.347l1.499,11.141H10.368L11.866,10.42z M15.704,29.66H7.628v-3.709h8.076V29.66z M21.606,30.596h-2.248v-5.414h2.248V30.596
					z M25.165,30.596h-2.247v-5.414h2.247V30.596z M28.66,30.596h-2.245v-5.414h2.245V30.596z M40.45,29.66h-8.074v-3.709h8.074
					V29.66z"/>
			</g>
		</g>
		<g>
			<g>
				<rect x="3.062" y="31.662" style="fill:#030104;" width="5.249" height="9.615"/>
			</g>
		</g>
		<g>
			<g>
				<rect x="39.618" y="31.844" style="fill:#030104;" width="5.242" height="9.612"/>
			</g>
		</g>
	</g>
</g>
<g>
</g>
<g>
</g>
<g>
</g>
<g>
</g>
<g>
</g>
<g>
</g>
<g>
</g>
<g>
</g>
<g>
</g>
<g>
</g>
<g>
</g>
<g>
</g>
<g>
</g>
<g>
</g>
<g>
</g>
</svg>
