<?xml version="1.0" encoding="iso-8859-1"?>
<!-- Generator: Adobe Illustrator 18.1.1, SVG Export Plug-In . SVG Version: 6.00 Build 0)  -->
<svg version="1.1" id="Capa_1" xmlns="http://www.w3.org/2000/svg" xmlns:xlink="http://www.w3.org/1999/xlink" x="0px" y="0px"
	 viewBox="0 0 46.374 46.374" style="enable-background:new 0 0 46.374 46.374;" xml:space="preserve">
<g>
	<path style="fill:#030104;" d="M44.916,14.979l-1.98-0.096c-0.817-0.04-1.525,0.563-1.617,1.377l-0.246,2.201
		c-0.148-0.086-0.305-0.169-0.465-0.242L38.76,6.989c-0.24-1.044-1.17-1.784-2.242-1.784H9.858c-1.072,0-2.001,0.74-2.243,1.784
		L5.769,18.22c-0.161,0.072-0.316,0.156-0.465,0.242l-0.246-2.201c-0.092-0.814-0.8-1.417-1.618-1.378l-1.981,0.096
		C0.642,15.019,0,15.693,0,16.511v0.458c0,0.815,0.637,1.487,1.451,1.531l3.483,0.189c-1.349,0.901-2.218,2.273-2.218,3.815v6.975
		c0,1.734,1.096,3.256,2.75,4.133v4.689c0,1.586,1.956,2.869,4.373,2.869c2.414,0,4.373-1.283,4.373-2.869v-3.899h17.953V38.3
		c0,1.586,1.959,2.869,4.373,2.869c2.416,0,4.372-1.283,4.372-2.869v-4.689c1.654-0.877,2.751-2.396,2.751-4.133v-6.975
		c0-1.543-0.869-2.915-2.218-3.815l3.481-0.189c0.813-0.044,1.45-0.716,1.45-1.531V16.51C46.375,15.693,45.734,15.019,44.916,14.979
		z M7.546,16.058l1.28-8.48c0.163-0.67,0.764-1.142,1.454-1.142h25.816c0.689,0,1.289,0.472,1.453,1.142l1.28,8.48
		c0.067,0.269,0.006,0.555-0.165,0.774s-0.434,0.347-0.712,0.347H8.422c-0.277,0-0.541-0.128-0.711-0.347
		C7.539,16.613,7.479,16.326,7.546,16.058z M14.971,28.125H7.077v-3.752h7.895L14.971,28.125L14.971,28.125z M29.796,28.058H16.579
		v-1.596h13.217C29.796,26.462,29.796,28.058,29.796,28.058z M29.796,25.967H16.579v-1.594h13.217
		C29.796,24.373,29.796,25.967,29.796,25.967z M39.298,28.125h-7.896v-3.752h7.896V28.125z"/>
</g>
<g>
</g>
<g>
</g>
<g>
</g>
<g>
</g>
<g>
</g>
<g>
</g>
<g>
</g>
<g>
</g>
<g>
</g>
<g>
</g>
<g>
</g>
<g>
</g>
<g>
</g>
<g>
</g>
<g>
</g>
</svg>
