<?xml version="1.0" encoding="iso-8859-1"?>
<!-- Generator: Adobe Illustrator 18.1.1, SVG Export Plug-In . SVG Version: 6.00 Build 0)  -->
<svg version="1.1" id="Capa_1" xmlns="http://www.w3.org/2000/svg" xmlns:xlink="http://www.w3.org/1999/xlink" x="0px" y="0px"
	 viewBox="0 0 46.651 46.651" style="enable-background:new 0 0 46.651 46.651;" xml:space="preserve">
<g>
	<g>
		<g>
			<g>
				<g>
					<polygon style="fill:#030104;" points="31.552,12.475 15.235,12.475 13.885,0.151 15.249,0 16.467,11.1 30.313,11.1 
						31.53,0.002 32.896,0.151 					"/>
				</g>
			</g>
		</g>
		<g>
			<g>
				<g>
					<rect x="15.043" y="6.085" style="fill:#030104;" width="16.693" height="2.26"/>
				</g>
			</g>
		</g>
		<g>
			<g>
				<g>
					<rect x="15.043" y="1.687" style="fill:#030104;" width="17.375" height="2.258"/>
				</g>
			</g>
		</g>
		<g>
			<g>
				<g>
					<g>
						<path style="fill:#030104;" d="M28.737,33.021v4.181h9.678v-26.7H8.365v26.699h9.68V33.02L28.737,33.021L28.737,33.021z
							 M32.086,33.214c-1.528,0-2.765-1.235-2.765-2.763c0-1.524,1.236-2.764,2.765-2.764c1.525,0,2.767,1.237,2.767,2.764
							C34.851,31.979,33.611,33.214,32.086,33.214z M23.951,13.437H36.63v7.583H23.951V13.437z M10.155,13.437h12.674v7.583H10.155
							V13.437z M15.06,32.999c-1.528,0-2.766-1.239-2.766-2.764c0-1.526,1.237-2.764,2.766-2.764c1.524,0,2.762,1.236,2.762,2.764
							C17.822,31.76,16.585,32.999,15.06,32.999z"/>
					</g>
				</g>
			</g>
			<g>
				<g>
					<g>
						<polygon style="fill:#030104;" points="28.737,38.737 28.737,41.387 18.045,41.387 18.045,38.737 6.612,38.737 6.612,42.158 
							40.166,42.158 40.166,38.737 						"/>
					</g>
				</g>
			</g>
			<g>
				<g>
					<g>
						<rect x="18.045" y="37.201" style="fill:#030104;" width="10.692" height="1.536"/>
					</g>
				</g>
			</g>
		</g>
		<g>
			<g>
				<g>
					<rect x="8.364" y="42.158" style="fill:#030104;" width="4.84" height="4.493"/>
				</g>
			</g>
		</g>
		<g>
			<g>
				<g>
					<rect x="33.578" y="42.158" style="fill:#030104;" width="4.837" height="4.493"/>
				</g>
			</g>
		</g>
		<g>
			<g>
				<g>
					<rect x="39.215" y="17.228" style="fill:#030104;" width="4.021" height="7.471"/>
				</g>
			</g>
		</g>
		<g>
			<g>
				<g>
					<rect x="3.414" y="17.228" style="fill:#030104;" width="4.021" height="7.471"/>
				</g>
			</g>
		</g>
	</g>
</g>
<g>
</g>
<g>
</g>
<g>
</g>
<g>
</g>
<g>
</g>
<g>
</g>
<g>
</g>
<g>
</g>
<g>
</g>
<g>
</g>
<g>
</g>
<g>
</g>
<g>
</g>
<g>
</g>
<g>
</g>
</svg>
