<?xml version="1.0" encoding="iso-8859-1"?>
<!-- Generator: Adobe Illustrator 18.1.1, SVG Export Plug-In . SVG Version: 6.00 Build 0)  -->
<svg version="1.1" id="Capa_1" xmlns="http://www.w3.org/2000/svg" xmlns:xlink="http://www.w3.org/1999/xlink" x="0px" y="0px"
	 viewBox="0 0 64.99 64.99" style="enable-background:new 0 0 64.99 64.99;" xml:space="preserve">
<g>
	<g>
		<path style="fill:#030104;" d="M47.813,22.851v-9.37h-4.73v22.841c-4.338,2.446-9.045-0.344-9.045-0.344S32.38,7.897,19.814,7.897
			c-12.562,0-13.261,0-13.261,0v25.825c-1.941,0-3.562,0-4.537,0c-4.535,0,0,16.055,0,16.055h2.812
			c0.195-3.989,3.492-7.178,7.53-7.178c4.036,0,7.333,3.188,7.527,7.178h9.183c-0.001-0.035-0.004-0.071-0.004-0.107
			c0-4.425,3.601-8.025,8.026-8.025s8.025,3.602,8.025,8.025c0,0.515-0.052,1.016-0.146,1.504h2.842V26.742H64.99v-1.744
			L47.813,22.851z M24.003,36.863l-4.188-7.328h-9.073v-17.45h9.073c3.743,0,5.816,5.219,6.896,9.598
			c0.688,2.795,2.804,12.964,3,15.181L24.003,36.863L24.003,36.863z"/>
		<polygon style="fill:#030104;" points="13.883,19.761 11.788,19.761 11.788,27.44 19.467,27.44 19.467,25.347 13.883,25.347 		"/>
		<path style="fill:#030104;" d="M37.128,42.577c-3.85,0-6.968,3.117-6.968,6.966s3.118,6.969,6.968,6.969
			c3.847,0,6.966-3.12,6.966-6.969S40.975,42.577,37.128,42.577z M37.128,53.578c-2.226,0-4.034-1.811-4.034-4.035
			s1.81-4.032,4.034-4.032s4.032,1.809,4.032,4.032C41.16,51.767,39.352,53.578,37.128,53.578z"/>
		<path style="fill:#030104;" d="M12.161,43.857c-3.655,0-6.618,2.962-6.618,6.617c0,3.652,2.963,6.619,6.618,6.619
			c3.653,0,6.617-2.966,6.617-6.619C18.778,46.819,15.814,43.857,12.161,43.857z M12.161,54.305c-2.112,0-3.832-1.718-3.832-3.831
			c0-2.112,1.72-3.833,3.832-3.833c2.111,0,3.831,1.721,3.831,3.833C15.992,52.587,14.272,54.305,12.161,54.305z"/>
	</g>
</g>
<g>
</g>
<g>
</g>
<g>
</g>
<g>
</g>
<g>
</g>
<g>
</g>
<g>
</g>
<g>
</g>
<g>
</g>
<g>
</g>
<g>
</g>
<g>
</g>
<g>
</g>
<g>
</g>
<g>
</g>
</svg>
