<?xml version="1.0" encoding="iso-8859-1"?>
<!-- Generator: Adobe Illustrator 18.1.1, SVG Export Plug-In . SVG Version: 6.00 Build 0)  -->
<svg version="1.1" id="Capa_1" xmlns="http://www.w3.org/2000/svg" xmlns:xlink="http://www.w3.org/1999/xlink" x="0px" y="0px"
	 viewBox="0 0 61.746 61.746" style="enable-background:new 0 0 61.746 61.746;" xml:space="preserve">
<g>
	<path style="fill:#030104;" d="M59.568,16.945H24.699l-5.313,10.42H2.36v5.447H0v5.994h2.36h1.997h1.108
		c0.098,3.223,2.727,5.809,5.974,5.809c3.28,0,5.937-2.637,5.984-5.904c0,0.031,0.009,0.064,0.009,0.098h5.086h20.787v0.002
		c0,3.311,2.682,5.99,5.992,5.99s5.99-2.684,5.99-5.99v-0.002h6.459L59.568,16.945z M11.439,42.438
		c-2.102,0-3.811-1.713-3.811-3.812s1.709-3.812,3.811-3.812c2.104,0,3.813,1.709,3.813,3.812S13.543,42.438,11.439,42.438z
		 M30.873,30.269h-2.542v-1.635h2.542V30.269z M33.051,27.367H22.519l3.406-8.175h7.13L33.051,27.367z M44.495,30.269h-2.543v-1.635
		h2.543V30.269z M35.004,27.368L35.004,27.368v-8.176h10.533v8.175L35.004,27.368L35.004,27.368z M49.295,42.622
		c-2.104,0-3.812-1.711-3.812-3.812c0-2.104,1.709-3.812,3.812-3.812s3.812,1.711,3.812,3.812
		C53.109,40.911,51.396,42.622,49.295,42.622z M57.391,27.367H46.853v-8.175h10.535v8.175H57.391z"/>
</g>
<g>
</g>
<g>
</g>
<g>
</g>
<g>
</g>
<g>
</g>
<g>
</g>
<g>
</g>
<g>
</g>
<g>
</g>
<g>
</g>
<g>
</g>
<g>
</g>
<g>
</g>
<g>
</g>
<g>
</g>
</svg>
