<?xml version="1.0" encoding="iso-8859-1"?>
<!-- Generator: Adobe Illustrator 18.1.1, SVG Export Plug-In . SVG Version: 6.00 Build 0)  -->
<svg version="1.1" id="Capa_1" xmlns="http://www.w3.org/2000/svg" xmlns:xlink="http://www.w3.org/1999/xlink" x="0px" y="0px"
	 viewBox="0 0 44.351 44.351" style="enable-background:new 0 0 44.351 44.351;" xml:space="preserve">
<g>
	<path style="fill:#030104;" d="M35.633,0H8.718C5.953,0,3.709,2.438,3.709,5.442v29.251c0,1.994,0.992,3.733,2.464,4.682v3.122
		c0,1.024,1.658,1.854,3.703,1.854c2.046,0,3.704-0.829,3.704-1.854v-2.36h4.535V40.13h9.373v0.007h3.479v2.36
		c0,1.024,1.658,1.854,3.703,1.854s3.703-0.829,3.703-1.854v-3.252c1.364-0.972,2.269-2.646,2.269-4.552V5.442
		C40.642,2.438,38.399,0,35.633,0z M14.391,2.324H29.96v1.512H14.391V2.324z M7.685,31.281v-3.635h9.826v3.635H7.685z
		 M18.115,39.675v-2.882h9.373v2.882H18.115z M37.164,31.281h-9.827v-3.635h9.827V31.281z M37.597,18.788
		c0,0.373-0.652,0.676-1.459,0.676H8.213c-0.806,0-1.458-0.303-1.458-0.676V5.871c0-0.374,0.652-0.673,1.458-0.673h27.925
		c0.807,0,1.459,0.299,1.459,0.673V18.788z"/>
</g>
<g>
</g>
<g>
</g>
<g>
</g>
<g>
</g>
<g>
</g>
<g>
</g>
<g>
</g>
<g>
</g>
<g>
</g>
<g>
</g>
<g>
</g>
<g>
</g>
<g>
</g>
<g>
</g>
<g>
</g>
</svg>
