<?xml version="1.0" encoding="iso-8859-1"?>
<!-- Generator: Adobe Illustrator 18.1.1, SVG Export Plug-In . SVG Version: 6.00 Build 0)  -->
<svg version="1.1" id="Capa_1" xmlns="http://www.w3.org/2000/svg" xmlns:xlink="http://www.w3.org/1999/xlink" x="0px" y="0px"
	 viewBox="0 0 61.576 61.576" style="enable-background:new 0 0 61.576 61.576;" xml:space="preserve">
<g>
	<g>
		<path style="fill:#030104;" d="M40.507,7.87H32.09V1.446h8.245V0H21.242v1.446h8.245V7.87h-8.417
			c-3.458,0-6.262,2.804-6.262,6.261v23.354c0,3.459,2.804,6.26,6.262,6.26h19.438c3.458,0,6.261-2.801,6.261-6.26V14.131
			C46.767,10.674,43.965,7.87,40.507,7.87z M24.256,11.785H37.3c2.953,0,5.348,2.395,5.348,5.348c0,2.952-2.395,5.349-5.348,5.349
			H24.256c-2.954,0-5.349-2.396-5.349-5.349C18.906,14.178,21.302,11.785,24.256,11.785z M22.972,37.743H20.58
			c-1.188,0-2.153-0.964-2.153-2.15c0-1.188,0.964-2.152,2.153-2.152h2.392c1.189,0,2.153,0.964,2.153,2.152
			C25.125,36.779,24.16,37.743,22.972,37.743z M40.975,37.743h-2.393c-1.189,0-2.152-0.964-2.152-2.15
			c0-1.188,0.962-2.152,2.152-2.152h2.393c1.188,0,2.152,0.964,2.152,2.152C43.127,36.779,42.164,37.743,40.975,37.743z"/>
		<polygon style="fill:#030104;" points="24.874,45.92 21.742,61.576 39.833,61.576 36.701,45.92 		"/>
	</g>
</g>
<g>
</g>
<g>
</g>
<g>
</g>
<g>
</g>
<g>
</g>
<g>
</g>
<g>
</g>
<g>
</g>
<g>
</g>
<g>
</g>
<g>
</g>
<g>
</g>
<g>
</g>
<g>
</g>
<g>
</g>
</svg>
