<?xml version="1.0" encoding="iso-8859-1"?>
<!-- Generator: Adobe Illustrator 18.1.1, SVG Export Plug-In . SVG Version: 6.00 Build 0)  -->
<svg version="1.1" id="Capa_1" xmlns="http://www.w3.org/2000/svg" xmlns:xlink="http://www.w3.org/1999/xlink" x="0px" y="0px"
	 viewBox="0 0 47.508 47.508" style="enable-background:new 0 0 47.508 47.508;" xml:space="preserve">
<g>
	<g>
		<path style="fill:#030104;" d="M46.826,15.001c-1.249-4.899-6.234-7.862-11.138-6.616c-3.711,0.944-10.489,5.097-13.021,9.185
			c-0.104-0.035-0.206-0.064-0.312-0.096c-0.004-4.808-3.538-11.886-6.177-14.644C12.681-0.826,6.882-0.958,3.225,2.54
			c-3.655,3.497-3.784,9.295-0.289,12.951c2.47,2.583,8.676,6.11,13.397,6.735c0.016,0.477,0.098,0.938,0.242,1.371
			c-3.763,2.932-7.326,9.197-8.131,12.697c-1.133,4.933,1.945,9.846,6.878,10.979c4.932,1.133,9.847-1.943,10.979-6.876
			c0.805-3.502,0.332-10.694-1.776-14.976c0.223-0.225,0.42-0.475,0.595-0.741c4.319,2.037,11.584,2.351,15.087,1.458
			C45.112,24.893,48.072,19.904,46.826,15.001z M21.207,26.588c-2.455,0-4.453-1.996-4.453-4.451c0-2.457,1.998-4.452,4.453-4.452
			c2.457,0,4.455,1.996,4.455,4.452C25.662,24.592,23.664,26.588,21.207,26.588z"/>
		<path style="fill:#030104;" d="M21.207,20.334c-0.991,0-1.801,0.807-1.801,1.803c0,0.992,0.81,1.802,1.801,1.802
			c0.994,0,1.803-0.81,1.803-1.802C23.008,21.141,22.201,20.334,21.207,20.334z"/>
	</g>
</g>
<g>
</g>
<g>
</g>
<g>
</g>
<g>
</g>
<g>
</g>
<g>
</g>
<g>
</g>
<g>
</g>
<g>
</g>
<g>
</g>
<g>
</g>
<g>
</g>
<g>
</g>
<g>
</g>
<g>
</g>
</svg>
