<svg height="512" viewBox="0 0 64 64" width="512" xmlns="http://www.w3.org/2000/svg"><path d="m12 46h16v2h-16z" fill="#005ece"/><path d="m32 45h-5l-3 12h8z" fill="#6d6e71"/><path d="m40 57-3-12h-5v12z" fill="#a7a9ac"/><path d="m24 57h-10a2 2 0 0 0 -2 2v2h20v-4z" fill="#006df0"/><path d="m52 59a2 2 0 0 0 -2-2h-18v4h20z" fill="#2488ff"/><g fill="#f00"><path d="m32.172 8.97-1.732-1-.002.004 1.732 1z"/><path d="m42.559 14.972.001-.002-1.729-.998-.001.002z"/><path d="m29.827 31.028h.004v4h-.004z" transform="matrix(.498 -.867 .867 .498 -13.663 42.464)"/><path d="m22.901 29.029.001-.003-3.461-1.998-.001.002z"/><path d="m40.83 13.974.001-.002-8.659-5.002-.002.004z"/><path d="m25.498 27.528h.003v6h-.003z" transform="matrix(.5 -.866 .866 .5 -13.686 37.359)"/><circle cx="37" cy="24" r="2"/><circle cx="32" cy="51" r="2"/></g><path d="m34.52 28.9c3.93 1.64 6.48 4.66 6.48 10.1a13.709 13.709 0 0 1 -3.18 9.28l1.418 5.671a19 19 0 0 0 1.26-35.4h-.005z" fill="#ff9811"/><path d="m8 60h48v2h-48z" fill="#6d6e71"/><path d="m36.456 11.445-6.016-3.475-11 19.06 4.76 2.749 1.253.724z" fill="#6d6e71"/><path d="m25.453 30.503 2.643 1.526 3.464 2.001 11-19.06-6.104-3.525z" fill="#a7a9ac"/><path d="m32.815 5.137h5.996v4.947h-5.996z" fill="#006df0" transform="matrix(.5 -.866 .866 .5 11.315 34.821)"/><path d="m37.144 7.585h5.997v5.053h-5.997z" fill="#2488ff" transform="matrix(.5 -.866 .866 .5 11.315 39.821)"/><path d="m24.2 29.779-1.299-.75-2.999 5.193 2.552 1.474 2.999-5.193z" fill="#006df0"/><path d="m22.277 32.336h5.997v3.053h-5.997z" fill="#2488ff" transform="matrix(.5 -.866 .866 .5 -16.688 38.821)"/><path d="m25.453 30.503-1.253-.724z" fill="#47ab6c"/><path d="m25.453 30.503 2.643 1.526z" fill="#47ab6c"/><path d="m38.5-1.722h2v15.999h-2z" fill="#005ece" transform="matrix(.5 -.866 .866 .5 14.313 37.346)"/><path d="m35.5 1.474h2v20h-2z" fill="#005ece" transform="matrix(.5 -.866 .866 .5 8.313 37.347)"/><path d="m24.5 20.526h2v20h-2z" fill="#005ece" transform="matrix(.5 -.866 .866 .5 -13.687 37.347)"/><circle cx="37" cy="24" fill="#f00" r="2"/></svg>