<svg height="512" viewBox="0 0 64 64" width="512" xmlns="http://www.w3.org/2000/svg"><path d="m29 16a13 13 0 0 0 13 13v-26a13 13 0 0 0 -13 13z" fill="#006df0"/><path d="m42 3v26a13 13 0 0 0 0-26z" fill="#2488ff"/><path d="m7 56v-27a2 2 0 0 0 -4 0v32h4z" fill="#808285"/><path d="m57 61h4v-22a2 2 0 0 0 -4 0z" fill="#808285"/><path d="m32 42h25v14h-25z" fill="#39b54a"/><path d="m7 42h25v14h-25z" fill="#00a651"/><path d="m12 39h12a2 2 0 0 0 0-4h-12a2 2 0 0 0 0 4z" fill="#ed1c24"/><path d="m41 8a1 1 0 0 0 -1 1v4a1 1 0 0 1 -1 1h-4a1 1 0 0 0 -1 1v2a1 1 0 0 0 1 1h4a1 1 0 0 1 1 1v4a1 1 0 0 0 1 1h1v-16z" fill="#e50000"/><path d="m49 14h-4a1 1 0 0 1 -1-1v-4a1 1 0 0 0 -1-1h-1v16h1a1 1 0 0 0 1-1v-4a1 1 0 0 1 1-1h4a1 1 0 0 0 1-1v-2a1 1 0 0 0 -1-1z" fill="#f00"/><path d="m7 42h25v3h-25z" fill="#009444"/><path d="m32 42h25v3h-25z" fill="#1ca059"/></svg>