<svg height="512" viewBox="0 0 64 64" width="512" xmlns="http://www.w3.org/2000/svg"><g id="Hearth-2" data-name="Hearth"><path d="m57.46 40.54a4 4 0 0 0 -5.46-1.47l-12.57 6.41a3.987 3.987 0 0 0 -2.43-1.857l-12.36-3.312a4 4 0 0 0 -2.3.069l-4.24 1.42a4 4 0 0 1 -1.265.2h-4.835v15h2.988a4.019 4.019 0 0 1 .97.119l7.042 1.762a4.019 4.019 0 0 0 .97.119h8.436a4 4 0 0 0 2-.536l21.594-12.464a3.994 3.994 0 0 0 2-3.46 3.932 3.932 0 0 0 -.54-2z" fill="#ffbcab"/><path d="m2 37h10v24h-10z" fill="#2488ff"/><path d="m9 37h3v24h-3z" fill="#006df0"/><path d="m55.26 6.01a8.981 8.981 0 0 0 -12.72 0l-3.54 3.54v25.45l12.73-12.73 3.27-3.27.26-.26a8.993 8.993 0 0 0 0-12.73z" fill="#f00"/><path d="m35.46 6.01a9 9 0 0 0 -12.72 12.73l1.26 1.26 2.27 2.27 12.73 12.73v-25.45z" fill="#e50000"/><path d="m25.259 47.034a1 1 0 0 0 .707 1.225l9.292 2.222a3.991 3.991 0 0 0 3.1-1.239l-11.874-2.915a1 1 0 0 0 -1.225.707z" fill="#ff9478"/><path d="m37.958 26.013-5.85-10.726-2.449 5.713h-12.659v-2h11.341l3.551-8.287 6.15 11.274 2.392-3.987h3.031l4.535-6.803 4.535 6.803h9.465v2h-10.535l-3.465-5.197-3.465 5.197h-2.969z" fill="#9bc9ff"/></g></svg>