<svg height="512" viewBox="0 0 64 64" width="512" xmlns="http://www.w3.org/2000/svg"><path d="m56.749 42.607-10.607-10.607-14.142 14.142 10.607 10.607a10 10 0 0 0 14.142-14.142z" fill="#57a4ff"/><path d="m57.68 55.68a9.38 9.38 0 0 1 -.93 1.07 10.007 10.007 0 0 1 -14.14 0l-10.61-10.61 2-2 10.61 10.61a10.012 10.012 0 0 0 13.07.93z" fill="#006df0"/><path d="m21.393 7.251a10 10 0 0 0 -14.142 0 10 10 0 0 0 0 14.142l10.607 10.607 14.142-14.142z" fill="#57a4ff"/><path d="m19.151 14.908h2v2h-2z" fill="#f1f2f2" transform="matrix(.707 -.707 .707 .707 -5.347 18.908)"/><path d="m9.08 13.322h2v2h-2z" fill="#f1f2f2" transform="matrix(.707 -.707 .707 .707 -7.175 11.322)"/><path d="m13.322 9.08h2v2h-2z" fill="#f1f2f2" transform="matrix(.707 -.707 .707 .707 -2.932 13.08)"/><path d="m11.908 16.151h2v2h-2z" fill="#f1f2f2" transform="matrix(.707 -.707 .707 .707 -8.347 14.151)"/><path d="m16.151 11.908h2v2h-2z" fill="#f1f2f2" transform="matrix(.707 -.707 .707 .707 -4.104 15.908)"/><path d="m14.736 18.979h2v2h-2z" fill="#f1f2f2" transform="matrix(.707 -.707 .707 .707 -9.518 16.979)"/><path d="m17.565 21.808h2v2h-2z" fill="#f1f2f2" transform="matrix(.707 -.707 .707 .707 -10.69 19.808)"/><path d="m21.808 17.565h2v2h-2z" fill="#f1f2f2" transform="matrix(.707 -.707 .707 .707 -6.447 21.565)"/><path d="m19.86 30-2 2-10.61-10.61a9.995 9.995 0 0 1 0-14.14 9.38 9.38 0 0 1 1.07-.93 10 10 0 0 0 .93 13.07z" fill="#006df0"/><path d="m56.749 7.251a10 10 0 0 0 -14.142 0l-10.607 10.607 14.142 14.142 10.607-10.607a10 10 0 0 0 0-14.142z" fill="#f00"/><path d="m48.678 9.08h2v2h-2z" fill="#f1f2f2" transform="matrix(.707 -.707 .707 .707 7.423 38.08)"/><path d="m52.92 13.322h2v2h-2z" fill="#f1f2f2" transform="matrix(.707 -.707 .707 .707 5.665 42.322)"/><path d="m45.85 11.908h2v2h-2z" fill="#f1f2f2" transform="matrix(.707 -.707 .707 .707 4.594 36.908)"/><path d="m50.092 16.151h2v2h-2z" fill="#f1f2f2" transform="matrix(.707 -.707 .707 .707 2.837 41.151)"/><path d="m43.021 14.737h2v2h-2z" fill="#f1f2f2" transform="matrix(.707 -.707 .707 .707 1.762 35.729)"/><path d="m47.264 18.979h2v2h-2z" fill="#f1f2f2" transform="matrix(.707 -.707 .707 .707 .005 39.971)"/><path d="m40.192 17.565h2v2h-2z" fill="#f1f2f2" transform="matrix(.707 -.707 .707 .707 -1.062 34.565)"/><path d="m44.435 21.807h2v2h-2z" fill="#f1f2f2" transform="matrix(.707 -.707 .707 .707 -2.814 38.824)"/><path d="m17.858 32-10.607 10.607a10 10 0 0 0 14.142 14.142l10.607-10.607z" fill="#f00"/><path d="m22 22h20v20h-20z" fill="#ed1c24" transform="matrix(.707 -.707 .707 .707 -13.255 32)"/><g fill="#f1f2f2"><path d="m17.565 40.192h2v2h-2z" transform="matrix(.707 -.707 .707 .707 -23.69 25.192)"/><path d="m21.808 44.435h2v2h-2z" transform="matrix(.707 -.707 .707 .707 -25.447 29.435)"/><path d="m14.737 43.021h2v2h-2z" transform="matrix(.707 -.707 .707 .707 -26.518 24.021)"/><path d="m18.979 47.263h2v2h-2z" transform="matrix(.707 -.707 .707 .707 -28.276 28.263)"/><path d="m11.908 45.849h2v2h-2z" transform="matrix(.707 -.707 .707 .707 -29.347 22.849)"/><path d="m16.151 50.092h2v2h-2z" transform="matrix(.707 -.707 .707 .707 -31.104 27.092)"/><path d="m9.08 48.678h2v2h-2z" transform="matrix(.707 -.707 .707 .707 -32.175 21.678)"/><path d="m13.322 52.921h2v2h-2z" transform="matrix(.707 -.707 .707 .707 -33.933 25.92)"/><path d="m40.192 44.435h2v2h-2z" transform="matrix(.707 -.707 .707 .707 -20.062 42.435)"/><path d="m44.435 40.192h2v2h-2z" transform="matrix(.707 -.707 .707 .707 -15.821 44.171)"/><path d="m43.02 47.264h2v2h-2z" transform="matrix(.707 -.707 .707 .707 -21.234 45.263)"/><path d="m47.264 43.021h2v2h-2z" transform="matrix(.707 -.707 .707 .707 -16.991 47.021)"/><path d="m45.85 50.092h2v2h-2z" transform="matrix(.707 -.707 .707 .707 -22.405 48.092)"/><path d="m50.092 45.849h2v2h-2z" transform="matrix(.707 -.707 .707 .707 -18.163 49.849)"/><path d="m48.678 52.921h2v2h-2z" transform="matrix(.707 -.707 .707 .707 -23.577 50.92)"/><path d="m52.92 48.678h2v2h-2z" transform="matrix(.707 -.707 .707 .707 -19.335 52.677)"/></g><path d="m45.61 9.25-11.11 11.11-2.5-2.5 10.61-10.61a10.009 10.009 0 0 1 14.02-.12 10.014 10.014 0 0 0 -11.02 2.12z" fill="#e50000"/><path d="m10.25 58.75.12.12a10.009 10.009 0 0 1 -3.12-16.26l10.61-10.61 2.5 2.5-10.11 10.11a10.007 10.007 0 0 0 0 14.14z" fill="#e50000"/><path d="m16.181 24.412h19.997v3.536h-19.997z" fill="#e50000" transform="matrix(.707 -.707 .707 .707 -10.844 26.18)"/></svg>