<svg height="512" viewBox="0 0 64 64" width="512" xmlns="http://www.w3.org/2000/svg"><path d="m9 9h46v32h-46z" fill="#ffeb99"/><g fill="#bcbec0"><path d="m15 24h34v2h-34z"/><path d="m19 28h26v2h-26z"/><path d="m36 33h6v2h-6z"/><path d="m22 33h5v2h-5z"/></g><path d="m31 12v3h-3v2h3v3h2v-3h3v-2h-3v-3z" fill="#ee2820"/><path d="m9 19v22h30c-16.582 0-30-9.84-30-22z" fill="#ffcd00"/><path d="m3 47 6-6v-32l-6-6z" fill="#2488ff"/><path d="m9 9h46l6-6h-58z" fill="#57a4ff"/><path d="m9 41h46l6 6h-58z" fill="#006df0"/><path d="m55 41 6 6v-44l-6 6z" fill="#9bc9ff"/><path d="m24.5 56.99.73 2.73 6.095-10.561c-.985.38-2.114 1.316-2.826.9-.732-.423-.491-1.868-.638-2.9l-6.091 10.561z" fill="#ab2300"/><path d="m35.5 50.063c-.712.412-1.841-.523-2.826-.9l6.1 10.56.73-2.73 2.73.73-6.095-10.557c-.147 1.027.093 2.474-.639 2.897z" fill="#ab2300"/><path d="m9 9h46v32h-46z" fill="none"/><path d="m39 44c0 1.09-2.16 1.62-2.67 2.5a2.039 2.039 0 0 0 -.19.67c-.15 1.02.09 2.47-.64 2.89-.71.41-1.84-.52-2.82-.9a1.525 1.525 0 0 0 -1.36 0c-.98.38-2.11 1.31-2.82.9-.73-.42-.49-1.87-.64-2.89a2.039 2.039 0 0 0 -.19-.67c-.51-.88-2.67-1.41-2.67-2.5s2.16-1.62 2.67-2.5c.53-.91-.08-3.04.83-3.56.88-.51 2.41 1.06 3.5 1.06s2.62-1.57 3.5-1.06c.91.52.3 2.65.83 3.56.51.88 2.67 1.41 2.67 2.5z" fill="#ed1c24"/><circle cx="32" cy="44" fill="#ffcd00" r="3"/></svg>