<svg height="512" viewBox="0 0 64 64" width="512" xmlns="http://www.w3.org/2000/svg"><g id="Doctor-2" data-name="Doctor"><path d="m29 46-2 15h-24l1.14-11.95a10 10 0 0 1 9.95-9.05h3.84a4.006 4.006 0 0 0 3.27-1.69l.36-.52 4.44 6.21.99-1.02z" fill="#bddbff"/><circle cx="16" cy="54" fill="#f1f2f2" r="3"/><circle cx="16" cy="54" fill="none" r="3"/><path d="m59.862 49.052a10 10 0 0 0 -9.955-9.052h-3.835a4 4 0 0 1 -3.267-1.692l-.366-.517-4.439 6.209-.986-1.022-2.014 3.022 2 15h24z" fill="#bddbff"/><path d="m49 46.08v-6.08h-2v6.08a7 7 0 0 0 -6 6.92v5h4v-2h-2v-3a5 5 0 0 1 10 0v3h-2v2h4v-5a7 7 0 0 0 -6-6.92z" fill="#939598"/><path d="m17 50.142v-10.142h-2v10.142a4 4 0 1 0 2 0zm-1 5.858a2 2 0 1 1 2-2 2 2 0 0 1 -2 2z" fill="#939598"/><path d="m32.004 37.784-.004-.004-.004.004z" fill="#f00"/><path d="m45.64 22h-1.64v1.91a13.975 13.975 0 0 1 -.606 4.047v.043h1.92a2.006 2.006 0 0 0 1.97-1.67l.33-2a2 2 0 0 0 -1.974-2.33z" fill="#ff9478"/><path d="m20 22h-1.64a2 2 0 0 0 -1.97 2.33l.33 2a2.006 2.006 0 0 0 1.97 1.67h1.92v-.043a13.975 13.975 0 0 1 -.61-4.047z" fill="#ff9478"/><path d="m31.945 37.81a4 4 0 0 1 -1.205-.2l-1.17-.39a13.936 13.936 0 0 1 -5.3-3.22h-.01l-2.7 3.82 4.44 6.21 6-6.216c-.021 0-.038-.004-.055-.004z" fill="#006df0"/><path d="m42.439 37.82-2.699-3.82h-.014a13.936 13.936 0 0 1 -5.3 3.22l-1.17.39a4 4 0 0 1 -1.2.2c-.017 0-.034 0-.051 0l6 6.216 4.439-6.209z" fill="#2488ff"/><path d="m12 3v8a8 8 0 0 0 8 8h12v-16z" fill="#ff9811"/><path d="m44 3h-12v16h12a4 4 0 0 0 4-4v-8a4 4 0 0 0 -4-4z" fill="#ffa733"/><path d="m20 19v4.91a14 14 0 0 0 9.57 13.28l1.17.39a3.971 3.971 0 0 0 1.256.2v-18.78z" fill="#ffbcab"/><path d="m32 19v18.78a3.971 3.971 0 0 0 1.256-.2l1.17-.39a14 14 0 0 0 9.574-13.28v-4.91z" fill="#ffc2b3"/><path d="m31.996 37.784-5.01 5.194 2.014 3.022h3v-8.216z" fill="#005ece"/><path d="m37.014 42.978-5.01-5.194h-.004v8.216h3z" fill="#006df0"/><path d="m29 46-2 15h5v-15z" fill="#006df0"/><path d="m35 46h-3v15h5z" fill="#2488ff"/></g></svg>