<svg height="512" viewBox="0 0 64 64" width="512" xmlns="http://www.w3.org/2000/svg"><path d="m3 25a21.978 21.978 0 0 0 6.783 15.894 3.968 3.968 0 0 1 1.217 2.863v17.243h13v-57.97a22 22 0 0 0 -21 21.97z" fill="#ffa733"/><path d="m51.083 35.347-3.423-8.233a8.715 8.715 0 0 1 -.695-2.858c-.631-11.371-9.665-20.833-21.165-21.242-.6-.021-1.2-.014-1.8.016v57.97h9v-6a1 1 0 0 1 1-1h2.193a4 4 0 0 0 3.328-1.781l2.443-3.664a1 1 0 0 0 -.833-1.555h-3.65a1 1 0 0 1 -.781-.375l-2.4-3a1 1 0 0 1 .781-1.625h8.919v-3a1 1 0 0 1 1-1h4.193a2 2 0 0 0 1.89-2.653z" fill="#ffb655"/><g fill="#ed1c24"><path d="m49 42h2v2h-2z"/><path d="m49 46h2v2h-2z"/><path d="m53 44h2v2h-2z"/><path d="m46 44h2v2h-2z"/><path d="m57 44h5v2h-5z"/><path d="m52.062 40.5h1.999v1.999h-1.999z" transform="matrix(.866 -.5 .5 .866 -13.642 32.101)"/><path d="m55.325 37.75h5v2h-5z" transform="matrix(.866 -.5 .5 .866 -11.627 34.098)"/><path d="m52.062 47.5h1.999v1.999h-1.999z" transform="matrix(.5 -.866 .866 .5 -15.475 70.193)"/><path d="m56.825 48.75h2v5h-2z" transform="matrix(.5 -.866 .866 .5 -15.471 75.703)"/></g></svg>