<svg height="512" viewBox="0 0 64 64" width="512" xmlns="http://www.w3.org/2000/svg"><path d="m3 32a29 29 0 0 0 29 29v-58a29 29 0 0 0 -29 29z" fill="#2488ff"/><path d="m32 3v58a29 29 0 0 0 0-58z" fill="#57a4ff"/><path d="m48 26h-8a2 2 0 0 1 -2-2v-8a2.006 2.006 0 0 0 -2-2h-4v36h4a2.006 2.006 0 0 0 2-2v-8a2 2 0 0 1 2-2h8a2.006 2.006 0 0 0 2-2v-8a2.006 2.006 0 0 0 -2-2z" fill="#f00"/><path d="m28 14a2.006 2.006 0 0 0 -2 2v8a2 2 0 0 1 -2 2h-8a2.006 2.006 0 0 0 -2 2v8a2.006 2.006 0 0 0 2 2h8a2 2 0 0 1 2 2v8a2.006 2.006 0 0 0 2 2h4v-36z" fill="#e50000"/></svg>