<svg height="512" viewBox="0 0 64 64" width="512" xmlns="http://www.w3.org/2000/svg"><path d="m46.385 21.858-13.435 13.435 4.242 4.243 4.243-4.243 4.243-4.243 4.949-4.95z" fill="#e6e7e8"/><path d="m52.749 11.251 5.657 5.657z" fill="#f00"/><path d="m47.092 5.594-2.829 2.829 3.536 3.535 4.243 4.243 3.535 3.536 2.829-2.829-5.657-5.657z" fill="#005ece"/><path d="m61.234 20.736a1 1 0 0 1 -.707-.293l-16.97-16.97a1 1 0 1 1 1.414-1.414l16.97 16.97a1 1 0 0 1 -.707 1.707z" fill="#004fac"/><path d="m43.092 13.908h8v6h-8z" fill="#2488ff" transform="matrix(.707 -.707 .707 .707 1.837 38.251)"/><path d="m23.803 19.211h19v6h-19z" fill="#e6e7e8" transform="matrix(.707 -.707 .707 .707 -5.952 30.055)"/><path d="m32.95 35.293-4.243-4.243-4.243-4.242-12.727 12.728a6 6 0 0 0 0 8.485l.707.707 2.828 2.828.707.707a6 6 0 0 0 8.485 0l4.243-4.242 4.243-4.243 4.242-4.242z" fill="#f00"/><g fill="#bcbec0"><path d="m3.958 61.042a1 1 0 0 1 -.707-1.708l7.364-7.363a1 1 0 0 1 1.414 1.414l-7.364 7.364a1 1 0 0 1 -.707.293z"/><path d="m30.536 40.364h2v4.001h-2z" transform="matrix(.707 -.707 .707 .707 -20.72 34.712)"/><path d="m34.829 36.243h2v3.858h-2z" transform="matrix(.707 -.707 .707 .707 -16.497 36.51)"/><path d="m39.021 31.879h2v4h-2z" transform="matrix(.707 -.707 .707 .707 -12.234 38.217)"/><path d="m43.264 27.636h2v4h-2z" transform="matrix(.707 -.707 .707 .707 -7.992 39.975)"/><path d="m26.293 44.607h2v4h-2z" transform="matrix(.707 -.707 .707 .707 -24.961 32.945)"/><path d="m20.929 50.142 2.77 2.77a6.057 6.057 0 0 0 .765-.649l.708-.707-2.829-2.828z"/></g><path d="m19.98 52.26a5.742 5.742 0 0 0 2.24 1.41 5.96 5.96 0 0 1 -6.24-1.41l-.71-.7-2.83-2.83-.7-.71a5.981 5.981 0 0 1 0-8.48l12.72-12.73 2 2-10.72 10.73a5.981 5.981 0 0 0 0 8.48l.7.71 2.83 2.83z" fill="#e50000"/><path d="m28.046 23.454h19v6h-19z" fill="#2488ff" transform="matrix(.707 -.707 .707 .707 -7.709 34.297)"/><path d="m10.322 50.849a2 2 0 0 0 2.829 2.829l2.121-2.122-2.828-2.828z" fill="#c00"/></svg>