<svg height="512" viewBox="0 0 64 64" width="512" xmlns="http://www.w3.org/2000/svg"><g id="First_aid_kit" data-name="First aid kit"><path d="m57 15h-50a4 4 0 0 0 -4 4v10a4 4 0 0 0 4 4h50a4 4 0 0 0 4-4v-10a4 4 0 0 0 -4-4z" fill="#2488ff"/><path d="m24 28h16v2h-16z" fill="#f1f2f2"/><path d="m60.48 30.97a4.007 4.007 0 0 1 -3.48 2.03h-50a4 4 0 0 1 -4-4v-10a4 4 0 0 1 3.52-3.97 3.994 3.994 0 0 0 -.52 1.97v10a4 4 0 0 0 4 4h50a3.866 3.866 0 0 0 .48-.03z" fill="#006df0"/><path d="m57 33v24a4 4 0 0 1 -4 4h-42a4 4 0 0 1 -4-4v-24z" fill="#57a4ff"/><path d="m56.48 58.97a4.007 4.007 0 0 1 -3.48 2.03h-42a4 4 0 0 1 -4-4v-24h3v22a4 4 0 0 0 4 4h42a3.866 3.866 0 0 0 .48-.03z" fill="#2488ff"/><path d="m42 5a2 2 0 0 0 -2-2h-16a2 2 0 0 0 -2 2v2h20z" fill="#005ece"/><path d="m19 37a2 2 0 0 0 2-2v-4a2 2 0 0 0 -4 0v4a2 2 0 0 0 2 2z" fill="#bcbec0"/><path d="m45 37a2 2 0 0 0 2-2v-4a2 2 0 0 0 -4 0v4a2 2 0 0 0 2 2z" fill="#bcbec0"/><path d="m39 45h-4a1 1 0 0 1 -1-1v-4a1 1 0 0 0 -1-1h-2a1 1 0 0 0 -1 1v4a1 1 0 0 1 -1 1h-4a1 1 0 0 0 -1 1v2a1 1 0 0 0 1 1h4a1 1 0 0 1 1 1v4a1 1 0 0 0 1 1h2a1 1 0 0 0 1-1v-4a1 1 0 0 1 1-1h4a1 1 0 0 0 1-1v-2a1 1 0 0 0 -1-1z" fill="#f00"/><path d="m48 56v2h4a3 3 0 0 0 3-3v-4h-2v4a1 1 0 0 1 -1 1z" fill="#f1f2f2"/><path d="m13 55v-4h-2v4a3 3 0 0 0 3 3h4v-2h-4a1 1 0 0 1 -1-1z" fill="#f1f2f2"/><g fill="#57a4ff"><path d="m22 7h2v8h-2z"/><path d="m40 7h2v8h-2z"/></g></g></svg>