<svg height="512" viewBox="0 0 64 64" width="512" xmlns="http://www.w3.org/2000/svg"><path d="m29 5a2 2 0 0 0 -2-2h-12a2 2 0 0 0 -2 2v4h16z" fill="#006df0"/><path d="m29 13v-4h-16v4h3 10z" fill="#57a4ff"/><path d="m28.771 19.493a4.1 4.1 0 0 1 -2.771-3.806v-2.687h-10v2.687a4.1 4.1 0 0 1 -2.771 3.806 8 8 0 0 0 -5.229 7.507v34h26v-34a8 8 0 0 0 -5.229-7.507z" fill="#bddbff"/><path d="m18 13v2.69a4.089 4.089 0 0 1 -2.77 3.8 8.009 8.009 0 0 0 -5.23 7.51v34h-2v-34a8.009 8.009 0 0 1 5.23-7.51 4.089 4.089 0 0 0 2.77-3.8v-2.69z" fill="#9bc9ff"/><path d="m18 33v20h16v-4-4-4-4-4z" fill="#f00"/><path d="m18 33h2v20h-2z" fill="#c00"/><path d="m51.029 23.4a11.689 11.689 0 0 0 3.971-8.4c0-4.42-3.58-12-8-12s-8 7.58-8 12a11.689 11.689 0 0 0 3.971 8.4 5.9 5.9 0 0 1 2.051 5.089l-2.562 27.531a4.559 4.559 0 1 0 9.08 0l-2.562-27.535a5.9 5.9 0 0 1 2.051-5.085z" fill="#ffcd00"/><path d="m48 60.89a4.714 4.714 0 0 1 -1 .11 4.562 4.562 0 0 1 -4.54-4.98l2.56-27.54a5.875 5.875 0 0 0 -2.05-5.08 11.692 11.692 0 0 1 -3.97-8.4c0-4.42 3.58-12 8-12a3.4 3.4 0 0 1 1 .14c-3.95 1-7 7.78-7 11.86a11.692 11.692 0 0 0 3.97 8.4 5.875 5.875 0 0 1 2.05 5.08l-2.56 27.54a4.563 4.563 0 0 0 3.54 4.87z" fill="#ebbf00"/><g fill="#f1f2f2"><path d="m12 27h2a3.012 3.012 0 0 1 1.959-2.816l-.692-1.876a5.017 5.017 0 0 0 -3.267 4.692z"/><path d="m12 29h2v28h-2z"/><path d="m44.89 21.09a8.742 8.742 0 0 1 -2.89-6.09 15.16 15.16 0 0 1 2.106-6.509l1.721 1.018a13.632 13.632 0 0 0 -1.827 5.491 6.742 6.742 0 0 0 2.169 4.552z"/><path d="m26 36h8v2h-8z"/><path d="m26 40h8v2h-8z"/><path d="m21 44h13v2h-13z"/><path d="m21 48h13v2h-13z"/></g></svg>