<svg height="512" viewBox="0 0 64 64" width="512" xmlns="http://www.w3.org/2000/svg"><g id="Phamacy-2" data-name="Phamacy"><path d="m28 9h16v-4a2 2 0 0 0 -2-2h-20a2 2 0 0 0 -2 2v4z" fill="#006df0"/><path d="m28 9h4v4h-4z" fill="#2488ff"/><path d="m32 9h4v4h-4z" fill="#57a4ff"/><path d="m24 9h-4v4h3 1z" fill="#2488ff"/><path d="m36 9h4v4h-4z" fill="#2488ff"/><path d="m24 9h4v4h-4z" fill="#57a4ff"/><path d="m40 13h1 3v-4h-4z" fill="#57a4ff"/><path d="m49 29v32h-34v-32a8.009 8.009 0 0 1 5.23-7.51 4.089 4.089 0 0 0 2.77-3.8v-4.69h18v4.69a4.089 4.089 0 0 0 2.77 3.8 8.009 8.009 0 0 1 5.23 7.51z" fill="#bddbff"/><g fill="#bfbbb1"><path d="m42.731 24.307-.691 1.876a3.014 3.014 0 0 1 1.96 2.817h2a5.019 5.019 0 0 0 -3.269-4.693z"/><path d="m19 56h8v2h-8z"/><path d="m29 56h2v2h-2z"/></g><path d="m41 13v1h-13a2 2 0 0 0 -2 2v2.69a4.089 4.089 0 0 1 -2.77 3.8 8.009 8.009 0 0 0 -5.23 7.51v31h-3v-32a8.009 8.009 0 0 1 5.23-7.51 4.089 4.089 0 0 0 2.77-3.8v-4.69z" fill="#9bc9ff"/><path d="m19 32h26v22h-26z" fill="#47ab6c"/><path d="m19 32h26v22h-26z" fill="#2488ff"/><path d="m25 45h4a1 1 0 0 1 1 1v4a1 1 0 0 0 1 1h2a1 1 0 0 0 1-1v-4a1 1 0 0 1 1-1h4a1 1 0 0 0 1-1v-2a1 1 0 0 0 -1-1h-4a1 1 0 0 1 -1-1v-4a1 1 0 0 0 -1-1h-2a1 1 0 0 0 -1 1v4a1 1 0 0 1 -1 1h-4a1 1 0 0 0 -1 1v2a1 1 0 0 0 1 1z" fill="#f00"/></g></svg>