<svg height="512" viewBox="0 0 64 64" width="512" xmlns="http://www.w3.org/2000/svg"><g id="Blood_test" data-name="Blood test"><circle cx="44" cy="20" fill="#e6e7e8" r="17"/><path d="m40 57a4 4 0 0 0 8 0v-16h-8z" fill="#004fac"/><path d="m42 23h3a2 2 0 0 0 0-4h-3z" fill="#f00"/><path d="m42 27h3a2 2 0 0 0 0-4h-3z" fill="#f00"/><path d="m38.055 35.91h-.055v5.09h12v-5.09h-.055a16.757 16.757 0 0 1 -11.89 0z" fill="#006df0"/><path d="m14 3h-9a2 2 0 0 0 0 4h9z" fill="#6d6e71"/><path d="m23 3h-9v4h9a2 2 0 0 0 0-4z" fill="#808285"/><path d="m6 32v21a8 8 0 0 0 8 8v-29z" fill="#c00"/><path d="m14 61a8 8 0 0 0 8-8v-21h-8z" fill="#f00"/><path d="m14 32h8v-6-7-12h-8z" fill="#e6e7e8"/><path d="m6 7h8v25h-8z" fill="#d1d3d4"/><path d="m35 24a9 9 0 0 0 9 9v-24s-9 10.03-9 15z" fill="#c00"/><path d="m44 9v24a9 9 0 0 0 9-9c0-4.97-9-15-9-15z" fill="#f00"/><path d="m51.205 8-1.033 1.712a12.083 12.083 0 0 1 5.828 10.288h2a14.093 14.093 0 0 0 -6.795-12z" fill="#d1d3d4"/><path d="m49.383 7.076a14.019 14.019 0 0 0 -2.153-.7l-.46 1.947a11.915 11.915 0 0 1 1.841.6z" fill="#d1d3d4"/><path d="m45 18h-4v10h4a2.987 2.987 0 0 0 2.22-5 2.987 2.987 0 0 0 -2.22-5zm-2 2h2a1 1 0 0 1 0 2h-2zm2 6h-2v-2h2a1 1 0 0 1 0 2z" fill="#f1f2f2"/><g fill="#bcbec0"><path d="m16 18h6v2h-6z"/><path d="m16 25h6v2h-6z"/><path d="m16 31h6v2h-6z"/><path d="m16 37h6v2h-6z"/><path d="m16 43h6v2h-6z"/><path d="m16 49h6v2h-6z"/></g></g></svg>