<svg height="512" viewBox="0 0 64 64" width="512" xmlns="http://www.w3.org/2000/svg"><g id="Blood_donation-2" data-name="Blood donation"><path d="m28 62v-20.552a4 4 0 0 1 .927-2.561l3.146-3.774a4 4 0 0 0 .927-2.561v-19.552a3 3 0 0 0 -6 0v-5a3 3 0 0 0 -6 0v-2a3 3 0 0 0 -3.22-2.992 3.115 3.115 0 0 0 -2.78 3.161v1.831a3 3 0 0 0 -3.22-2.992 3.115 3.115 0 0 0 -2.78 3.161v11.831a3.995 3.995 0 0 0 -3.981-4 2.014 2.014 0 0 0 -2.019 2.009v14.543a4 4 0 0 0 .927 2.561l3.146 3.774a4 4 0 0 1 .927 2.561v20.552z" fill="#ffbcab"/><path d="m16 51v8h4v-4-4z" fill="#f00"/><path d="m45 62a5.006 5.006 0 0 1 -5-5v-10a3 3 0 0 0 -6 0v4a5.006 5.006 0 0 1 -5 5h-9v-2h9a3 3 0 0 0 3-3v-4a5 5 0 0 1 10 0v10a3 3 0 0 0 6 0v-22h2v22a5.006 5.006 0 0 1 -5 5z" fill="#47ab6c"/><g fill="#ff9478"><path d="m14 20a1 1 0 0 0 1-1v-11a2.984 2.984 0 0 0 -2-2.821v13.821a1 1 0 0 0 1 1z"/><path d="m20 20a1 1 0 0 0 1-1v-13a2.984 2.984 0 0 0 -2-2.821v15.821a1 1 0 0 0 1 1z"/><path d="m26 20a1 1 0 0 0 1-1v-11a2.984 2.984 0 0 0 -2-2.821v13.821a1 1 0 0 0 1 1z"/><path d="m32 20a1 1 0 0 0 1-1v-6a2.984 2.984 0 0 0 -2-2.821v8.821a1 1 0 0 0 1 1z"/><path d="m8 29a1 1 0 0 0 1-1v-8a4.025 4.025 0 0 0 -1.17-2.83 4.12 4.12 0 0 0 -.83-.614v11.444a1 1 0 0 0 1 1z"/></g><path d="m46 21h4a3 3 0 0 0 0-6h-4z" fill="#f00"/><path d="m46 27h4a3 3 0 0 0 0-6h-4z" fill="#f00"/><path d="m37 24a12 12 0 0 0 12 12v-32s-12 13.37-12 20z" fill="#e50000"/><path d="m49 4v32a12 12 0 0 0 12-12c0-6.63-12-20-12-20z" fill="#f00"/><path d="m58 24h-2a7.008 7.008 0 0 1 -7 7v2a9.011 9.011 0 0 0 9-9z" fill="#f1f2f2"/><path d="m54 18a4 4 0 0 0 -4-4h-5v14h5a3.983 3.983 0 0 0 2.618-7 3.975 3.975 0 0 0 1.382-3zm-2 6a2 2 0 0 1 -2 2h-3v-4h3a2 2 0 0 1 2 2zm-5-4v-4h3a2 2 0 0 1 0 4z" fill="#f1f2f2"/></g></svg>