<?xml version="1.0" encoding="iso-8859-1"?>
<!-- Generator: Adobe Illustrator 19.0.0, SVG Export Plug-In . SVG Version: 6.00 Build 0)  -->
<svg version="1.1" id="Layer_1" xmlns="http://www.w3.org/2000/svg" xmlns:xlink="http://www.w3.org/1999/xlink" x="0px" y="0px"
	 viewBox="0 0 469.333 469.333" style="enable-background:new 0 0 469.333 469.333;" xml:space="preserve">
<g>
	<g>
		<g>
			<path d="M462.396,342.927l-89.104-128.302c-3.311-4.759-7.615-8.59-12.285-11.957c4.677-3.368,8.987-7.204,12.306-11.97
				l89.083-128.292c4.542-6.542,6.938-14.115,6.938-21.896C469.333,18.177,449.667,0,425.5,0H43.833C19.667,0,0,18.177,0,40.51
				c0,7.781,2.396,15.354,6.938,21.896l89.104,128.302c3.311,4.759,7.615,8.59,12.285,11.957c-4.677,3.368-8.987,7.204-12.306,11.97
				L6.937,342.927C2.396,349.469,0,357.042,0,364.823c0,1.889,0.332,3.694,0.604,5.516C0.316,371.306,0,372.271,0,373.333v53.333
				c0,23.531,19.146,42.667,42.667,42.667h384c23.521,0,42.667-19.135,42.667-42.667v-53.333c0-1.063-0.316-2.027-0.604-2.995
				c0.272-1.822,0.604-3.626,0.604-5.516C469.333,357.042,466.938,349.469,462.396,342.927z M24.479,50.24
				c-2.063-2.958-3.146-6.323-3.146-9.729c0-10.573,10.083-19.177,22.5-19.177H425.5c12.417,0,22.5,8.604,22.5,19.177
				c0,3.406-1.083,6.771-3.146,9.729l-89.063,128.281C350,186.833,339.5,192,328.354,192H140.979
				c-11.146,0-21.646-5.167-27.417-13.469L24.479,50.24z M448,426.667c0,11.76-9.563,21.333-21.333,21.333h-384
				c-11.771,0-21.333-9.573-21.333-21.333v-27.263c6.6,3.684,14.245,5.93,22.5,5.93H425.5c8.255,0,15.9-2.246,22.5-5.93V426.667z
				 M425.5,384H43.833c-12.417,0-22.5-8.604-22.5-19.177c0-3.406,1.083-6.771,3.146-9.729l89.063-128.281
				c5.792-8.313,16.292-13.479,27.438-13.479h187.375c11.146,0,21.646,5.167,27.417,13.469l89.083,128.292
				c2.063,2.958,3.146,6.323,3.146,9.729C448,375.396,437.917,384,425.5,384z"/>
			<path d="M337.063,239.187c-1.979-2.833-5.229-4.521-8.688-4.521l-188.521-0.281h-0.021c-3.5,0-6.771,1.708-8.771,4.583
				l-74.25,106.948c-2.25,3.26-2.521,7.51-0.688,11.031c1.854,3.51,5.479,5.719,9.458,5.719h337.958c3.979,0,7.625-2.219,9.479-5.76
				c1.833-3.531,1.542-7.792-0.771-11.052L337.063,239.187z M85.979,341.333l59.438-85.604l177.396,0.26l60.167,85.344H85.979z"/>
			<circle cx="352" cy="426.667" r="10.667"/>
			<circle cx="394.667" cy="426.667" r="10.667"/>
		</g>
	</g>
</g>
<g>
</g>
<g>
</g>
<g>
</g>
<g>
</g>
<g>
</g>
<g>
</g>
<g>
</g>
<g>
</g>
<g>
</g>
<g>
</g>
<g>
</g>
<g>
</g>
<g>
</g>
<g>
</g>
<g>
</g>
</svg>
