<svg height="512" viewBox="0 0 64 64" width="512" xmlns="http://www.w3.org/2000/svg"><path d="m29.61 4.6a38.072 38.072 0 0 1 -20.96 6.4h-.65v20.7a27.992 27.992 0 0 0 15.48 25.04l8.52 4.26v-58z" fill="#00a651"/><path d="m55.51 11a37.99 37.99 0 0 1 -21.08-6.38l-2.43-1.62v58l8.52-4.26a27.992 27.992 0 0 0 15.48-25.04v-20.7z" fill="#39b54a"/><path d="m14 16.66v15.03a21.881 21.881 0 0 0 12.16 19.68l5.84 2.92v-44.09a43.9 43.9 0 0 1 -18 6.46z" fill="#ffcd00"/><path d="m32 10.2v44.09l5.84-2.92a21.881 21.881 0 0 0 12.16-19.68v-15.03a43.947 43.947 0 0 1 -18-6.46z" fill="#ffde55"/><path d="m42 28h-5a1 1 0 0 1 -1-1v-5a1 1 0 0 0 -1-1h-3v22h3a1 1 0 0 0 1-1v-5a1 1 0 0 1 1-1h5a1 1 0 0 0 1-1v-6a1 1 0 0 0 -1-1z" fill="#f00"/><path d="m29 21a1 1 0 0 0 -1 1v5a1 1 0 0 1 -1 1h-5a1 1 0 0 0 -1 1v6a1 1 0 0 0 1 1h5a1 1 0 0 1 1 1v5a1 1 0 0 0 1 1h3v-22z" fill="#e50000"/></svg>