<svg id="Layer_2" enable-background="new 0 0 512 512" height="512" viewBox="0 0 512 512" width="512" xmlns="http://www.w3.org/2000/svg"><g><g><path d="m146 10h220v492h-220z" fill="#6e83b7" transform="matrix(0 1 -1 0 512 0)"/></g><g><path d="m166 30h180v452h-180z" fill="#edeff1" transform="matrix(0 1 -1 0 512 0)"/></g><g><path d="m442 186h20v140h-20z" fill="#d3d3d3"/></g><g><path d="m402 186h20v140h-20z" fill="#d3d3d3"/></g><g><path d="m362 186h20v140h-20z" fill="#d3d3d3"/></g><g><path d="m405 366h60v20h-60z" fill="#466089"/></g><g><path d="m47 366h60v20h-60z" fill="#466089"/></g><g><path d="m100 198v-12h-40v12h-10v48h60v-48z" fill="#d3d3d3"/></g><g><path d="m60 236v-28h10v-12h20v12h10v28z" fill="#466089"/></g><g><path d="m100 278v-12h-40v12h-10v48h60v-48z" fill="#d3d3d3"/></g><g><path d="m60 316v-28h10v-12h20v12h10v28z" fill="#466089"/></g><g><path d="m188 198v-12h-40v12h-10v48h60v-48z" fill="#d3d3d3"/></g><g><path d="m148 236v-28h10v-12h20v12h10v28z" fill="#466089"/></g><g><path d="m188 278v-12h-40v12h-10v48h60v-48z" fill="#d3d3d3"/></g><g><path d="m148 316v-28h10v-12h20v12h10v28z" fill="#466089"/></g><g><path d="m276 198v-12h-40v12h-10v48h60v-48z" fill="#d3d3d3"/></g><g><path d="m236 236v-28h10v-12h20v12h10v28z" fill="#466089"/></g><g><path d="m276 278v-12h-40v12h-10v48h60v-48z" fill="#d3d3d3"/></g><g><path d="m236 316v-28h10v-12h20v12h10v28z" fill="#466089"/></g><g><g><circle cx="323" cy="206" fill="#d3d3d3" r="20"/></g><g><circle cx="323" cy="206" fill="#98ca69" r="15"/></g></g><g><g><circle cx="323" cy="306" fill="#d3d3d3" r="20"/></g><g><circle cx="323" cy="306" fill="#98ca69" r="15"/></g></g><g><g><circle cx="323" cy="256" fill="#d3d3d3" r="20"/></g><g><circle cx="323" cy="256" fill="#ffb0aa" r="15"/></g></g></g></svg>