<svg height="512" viewBox="0 0 64 64" width="512" xmlns="http://www.w3.org/2000/svg"><path d="m19.355 48.888a10.009 10.009 0 0 0 11.7-1.8l26.87-26.87a10 10 0 1 0 -14.147-14.138l-26.87 26.87a10.009 10.009 0 0 0 -1.8 11.7 10.044 10.044 0 0 0 4.215 4.226" fill="#2488ff"/><path d="m56.32 4.78a9.976 9.976 0 0 0 -10.54 2.3l-26.87 26.87a10.027 10.027 0 0 0 -1.8 11.7h.01a9.7 9.7 0 0 0 1.79 2.44 9.5 9.5 0 0 0 1.66 1.33 10 10 0 0 1 -1.22-.53l-.02-.02a9.807 9.807 0 0 1 -2.42-1.78 9.7 9.7 0 0 1 -1.79-2.44h-.01a10.027 10.027 0 0 1 1.8-11.7l26.87-26.87a10.011 10.011 0 0 1 12.54-1.3z" fill="#006df0"/><path d="m4.3 59.7a3 3 0 0 0 4.242 0l26.751-26.75-4.243-4.243-15.938 15.938-10.812 10.811a3 3 0 0 0 0 4.244z" fill="#f00"/><path d="m32.55 30.21-26.25 26.25a2.983 2.983 0 0 0 -.11 4.11 3 3 0 0 1 -1.89-5.11l26.75-26.75z" fill="#e50000"/><path d="m51.556 16.686a3 3 0 0 0 0-4.242 3 3 0 0 0 -4.242 0l-16.264 16.263 4.243 4.243z" fill="#e6e7e8"/><g fill="#005ece"><path d="m40.657 31.657h2v4h-2z" transform="matrix(.707 -.707 .707 .707 -11.598 39.314)"/><path d="m37.828 34.485h2v4h-2z" transform="matrix(.707 -.707 .707 .707 -14.426 38.147)"/><path d="m35 37.314h2v4h-2z" transform="matrix(.707 -.707 .707 .707 -17.255 36.966)"/><path d="m32.172 40.142h2v4h-2z" transform="matrix(.707 -.707 .707 .707 -20.084 35.804)"/><path d="m29.343 42.97h2v4h-2z" transform="matrix(.707 -.707 .707 .707 -22.912 34.627)"/><path d="m43.485 28.828h2v4h-2z" transform="matrix(.707 -.707 .707 .707 -8.77 40.481)"/><path d="m46.314 26h2v4h-2z" transform="matrix(.707 -.707 .707 .707 -5.94 41.661)"/><path d="m49.142 23.172h2v4h-2z" transform="matrix(.707 -.707 .707 .707 -3.114 42.824)"/><path d="m51.971 20.343h2v4h-2z" transform="matrix(.707 -.707 .707 .707 -.284 44)"/><path d="m29.343 20.343h2v4h-2z" transform="matrix(.707 -.707 .707 .707 -6.912 28)"/><path d="m26.515 23.172h2v4h-2z" transform="matrix(.707 -.707 .707 .707 -9.74 26.825)"/><path d="m23.686 26h2v4h-2z" transform="matrix(.707 -.707 .707 .707 -12.569 25.66)"/><path d="m20.858 28.828h2v4h-2z" transform="matrix(.707 -.707 .707 .707 -15.396 24.482)"/><path d="m18.03 31.657h2v4h-2z" transform="matrix(.707 -.707 .707 .707 -18.225 23.314)"/><path d="m32.172 17.515h2v4h-2z" transform="matrix(.707 -.707 .707 .707 -4.082 29.175)"/><path d="m35 14.686h2v4h-2z" transform="matrix(.707 -.707 .707 .707 -1.256 30.34)"/><path d="m37.828 11.858h2v4h-2z" transform="matrix(.707 -.707 .707 .707 1.575 31.518)"/><path d="m40.657 9.029h2v4h-2z" transform="matrix(.707 -.707 .707 .707 4.402 32.686)"/></g></svg>