<?xml version="1.0" standalone="no"?>
<!DOCTYPE svg PUBLIC "-//W3C//DTD SVG 1.1//EN" "http://www.w3.org/Graphics/SVG/1.1/DTD/svg11.dtd" >
<svg xmlns="http://www.w3.org/2000/svg" xmlns:xlink="http://www.w3.org/1999/xlink" version="1.1">
<metadata>
Created by FontForge 20160405 at Fri Aug 24 17:09:30 2018
 By www-data
Copyright (c) 2017 by Ana Parracho. All rights reserved.
</metadata>
<defs>
<font id="APompadourSample" horiz-adv-x="555" >
  <font-face 
    font-family="A Pompadour Sample"
    font-weight="400"
    font-stretch="normal"
    units-per-em="1000"
    panose-1="2 0 0 0 0 0 0 0 0 0"
    ascent="750"
    descent="-250"
    x-height="500"
    cap-height="700"
    bbox="-75 -252 863 775"
    underline-thickness="50"
    underline-position="-150"
    unicode-range="U+0020-FB02"
  />
<missing-glyph horiz-adv-x="250" 
 />
    <glyph glyph-name="fi" unicode="fi" horiz-adv-x="468" 
d="M333 420h-148v-420h-85v420h-100v80h100v88q0 77 41.5 120.5t122.5 43.5q41 0 73.5 -7.5t69.5 -24.5l-38 -77q-26 9 -50.5 14t-53.5 5q-42 0 -61 -21.5t-19 -61.5v-79h233v-500h-85v420z" />
    <glyph glyph-name="fl" unicode="fl" horiz-adv-x="478" 
d="M332 646q-31 16 -67 16q-42 0 -61 -21.5t-19 -61.5v-79h115v-80h-115v-420h-85v420h-100v80h100v88q0 77 42 120.5t123 43.5q42 0 80 -9.5t73 -26.5v-716h-85z" />
    <glyph glyph-name=".notdef" horiz-adv-x="250" 
 />
    <glyph glyph-name=".null" horiz-adv-x="0" 
 />
    <glyph glyph-name="nonmarkingreturn" horiz-adv-x="250" 
 />
    <glyph glyph-name="space" unicode=" " horiz-adv-x="250" 
 />
    <glyph glyph-name="space" unicode="&#xa0;" horiz-adv-x="250" 
 />
    <glyph glyph-name="exclam" unicode="!" horiz-adv-x="280" 
d="M100 62q0 28 19 47.5t46 19.5t46 -19.5t19 -47.5t-19 -47.5t-46 -19.5t-46 19.5t-19 47.5zM132 225l-10 525h85l-10 -525h-65z" />
    <glyph glyph-name="quotedbl" unicode="&#x22;" horiz-adv-x="372" 
d="M111 550l-11 151v74h86v-74l-10 -151h-65zM247 550l-11 151v74h86v-74l-10 -151h-65z" />
    <glyph glyph-name="ampersand" unicode="&#x26;" horiz-adv-x="633" 
d="M562 156q32 -33 44 -68t12 -74v-14h-97v5q0 27 -11 51.5t-33 41.5q-6 -8 -13 -16.5t-14 -14.5q-37 -35 -80 -52t-91 -17q-49 0 -94.5 18t-80.5 53q-34 33 -55 78.5t-23 87.5q-2 57 14 97.5t49 72.5q15 14 32.5 26t40.5 21q-17 35 -26.5 70t-9.5 70q0 33 11 63t37 56
q44 44 110 44q30 0 54 -9.5t43 -26.5q20 -17 30.5 -41t10.5 -52q0 -64 -44 -106q-9 -9 -20.5 -17.5t-23.5 -13.5q-25 24 -43 56q19 15 31 30t12 39q0 20 -12.5 35t-36.5 16q-26 2 -43 -15q-10 -10 -16.5 -23.5t-6.5 -28.5q0 -45 25.5 -93t69.5 -105q36 -48 68 -85.5
t57 -60.5q0 29 -6 49.5t-18 37.5q-5 8 -11 15t-11 15l81 41q27 -31 41.5 -72t15.5 -80q1 -22 -0.5 -36t-6.5 -32q11 -11 20 -19t18 -17zM202 384q-24 -8 -44 -30q-18 -20 -28.5 -45.5t-10.5 -53.5q0 -31 13.5 -63t36.5 -55q22 -23 49 -35t56 -12q41 0 73.5 16.5t55.5 46.5
q-35 33 -61.5 61t-49.5 54t-44 53t-46 63z" />
    <glyph glyph-name="quotesingle" unicode="'" horiz-adv-x="211" 
d="M111 550l-11 151v74h86v-74l-10 -151h-65z" />
    <glyph glyph-name="parenleft" unicode="(" horiz-adv-x="306" 
d="M276 665q-50 -23 -82 -72.5t-50.5 -109.5t-26 -121.5t-7.5 -106.5q0 -49 7.5 -111t26.5 -122.5t52.5 -111.5t84.5 -78l-33 -69q-67 33 -110 90t-68.5 125.5t-35 142t-8.5 139.5q1 67 12.5 140t37.5 138.5t69 118t106 80.5z" />
    <glyph glyph-name="parenright" unicode=")" horiz-adv-x="306" 
d="M30 -165q33 15 58 43t43.5 63.5t31 76t20 81t10.5 78.5t3 68q0 49 -7.5 111t-26.5 122.5t-52.5 111.5t-84.5 78l33 69q67 -33 110 -90t68.5 -125.5t35 -142t8.5 -139.5q-1 -68 -12.5 -140.5t-38 -138t-69 -118t-105.5 -80.5z" />
    <glyph glyph-name="comma" unicode="," horiz-adv-x="223" 
d="M65 -143q21 34 33 69.5t11 73.5q-27 0 -43 19.5t-16 45.5q0 28 20 47.5t47 19.5q22 0 38 -9t25.5 -23t13.5 -33t3 -38q-1 -27 -9 -56.5t-20 -57.5t-26 -52.5t-27 -40.5z" />
    <glyph glyph-name="hyphen" unicode="-" horiz-adv-x="485" 
d="M100 300h300v-80h-300v80z" />
    <glyph glyph-name="period" unicode="." horiz-adv-x="205" 
d="M50 62q0 28 19 47.5t46 19.5t46 -19.5t19 -47.5t-19 -47.5t-46 -19.5t-46 19.5t-19 47.5z" />
    <glyph glyph-name="zero" unicode="0" horiz-adv-x="550" 
d="M25 349q0 78 18 143.5t51.5 112.5t80.5 73.5t104 26.5t103 -26.5t77.5 -73.5t48.5 -112.5t17 -143.5t-18 -143t-51 -112t-79.5 -73t-103.5 -26t-103 26t-78.5 73t-49.5 112t-17 143zM115 349q0 -57 11 -105t32 -82.5t50.5 -54t66.5 -19.5t66.5 19.5t50.5 54t32 82.5
t11 105t-11 106t-31.5 84.5t-49.5 55.5t-66 20t-67 -20t-51 -55.5t-32.5 -84.5t-11.5 -106z" />
    <glyph glyph-name="one" unicode="1" horiz-adv-x="300" 
d="M25 700h175v-700h-90v620h-85v80z" />
    <glyph glyph-name="two" unicode="2" horiz-adv-x="472" 
d="M25 55q40 45 78.5 91.5t77.5 95.5q24 30 50.5 62.5t48.5 66.5t36.5 67.5t14.5 65.5q0 47 -28 77.5t-76 30.5q-43 0 -72.5 -21.5t-48.5 -57.5l-76 49q32 55 83.5 87.5t117.5 32.5q42 0 78 -13.5t62.5 -38t41.5 -58.5t15 -76q0 -45 -16.5 -88t-41.5 -84t-54.5 -78.5
t-54.5 -70.5q-23 -29 -46 -57.5t-49 -57.5h281v-80h-422v55z" />
    <glyph glyph-name="three" unicode="3" horiz-adv-x="495" 
d="M181 429q17 0 27 0.5t21 2.5q47 5 75 32.5t28 72.5q0 19 -7.5 33.5t-19.5 24.5t-27.5 15t-30.5 5q-39 0 -63 -14.5t-51 -39.5l-58 64q13 16 26.5 27t33.5 22q30 17 59 24t64 7q36 0 66.5 -12t53 -33.5t35 -51t12.5 -64.5q0 -36 -20 -74t-58 -62q63 -21 93 -71t30 -118
q0 -52 -17.5 -93.5t-48 -70.5t-73 -44.5t-91.5 -15.5q-69 0 -126.5 35t-88.5 92l72 57q20 -42 57.5 -67t85.5 -25q60 0 98 33t38 97q0 57 -34 91t-93 38q-14 1 -26.5 1h-41.5v82z" />
    <glyph glyph-name="four" unicode="4" horiz-adv-x="540" 
d="M25 267l345 433h45v-420h100v-80h-100v-200h-90v200h-300v67zM325 280v239l-188 -239h188z" />
    <glyph glyph-name="five" unicode="5" horiz-adv-x="507" 
d="M230 88q35 0 65 12t52 35q21 22 33 51t12 64q0 36 -11 66t-31 52q-19 20 -44.5 32t-57.5 12q-73 0 -116 -45l-81 30l59 303h322v-80h-248l-27 -140q20 10 46.5 16t50.5 6q50 0 90.5 -16.5t69.5 -46.5q33 -33 50.5 -81t17.5 -108q0 -53 -18.5 -98.5t-52.5 -79.5
q-34 -35 -80 -54.5t-101 -19.5q-61 0 -114 25.5t-91 78.5l71 56q24 -31 56 -50t78 -20z" />
    <glyph glyph-name="six" unicode="6" horiz-adv-x="532" 
d="M25 252q0 100 37.5 190.5t114.5 161.5q21 19 45 37.5t50.5 33.5t54.5 25t58 13v-81q-58 -19 -101.5 -54.5t-76.5 -87.5q14 3 32.5 6.5t33.5 3.5q56 0 100.5 -20t75.5 -55q58 -67 58 -175q0 -53 -18.5 -99t-51 -80t-76 -53.5t-94.5 -19.5t-95 20t-76.5 54.5t-51.5 80.5
t-19 99zM117 250q0 -34 11.5 -63.5t31.5 -51.5t47.5 -34.5t59.5 -12.5t59.5 12.5t47.5 34.5t31.5 51.5t11.5 63.5q0 37 -12 68.5t-35 53.5q-40 38 -107 38q-32 0 -59 -12t-46.5 -33.5t-30 -51t-10.5 -63.5z" />
    <glyph glyph-name="seven" unicode="7" horiz-adv-x="480" 
d="M43 0l287 606h-305v94h430v-40l-312 -660h-100z" />
    <glyph glyph-name="eight" unicode="8" horiz-adv-x="513" 
d="M253 705q39 0 73 -12t59 -33.5t39 -51t14 -64.5q0 -36 -20.5 -75.5t-58.5 -63.5q61 -20 95 -70.5t34 -117.5q0 -52 -20 -93t-52.5 -69.5t-74.5 -44t-86 -15.5q-47 0 -89 15t-73.5 43.5t-49.5 69t-18 92.5q0 66 32.5 114.5t89.5 74.5q-38 24 -58 64t-20 76q0 35 15 64.5
t40.5 51t59 33.5t69.5 12zM250 87q63 0 103.5 34t40.5 96q0 27 -9.5 52.5t-27.5 44.5t-43.5 30.5t-58.5 11.5t-58.5 -11.5t-43 -30.5t-26 -45t-8.5 -54q0 -27 11 -50.5t29 -40.5t41.5 -27t49.5 -10zM345 533q0 36 -27.5 59t-65.5 23q-17 0 -33.5 -6t-29 -17t-20 -26
t-7.5 -33q0 -40 25.5 -65t65.5 -25q41 0 66.5 25t25.5 65z" />
    <glyph glyph-name="nine" unicode="9" horiz-adv-x="532" 
d="M507 448q0 -100 -37.5 -190.5t-114.5 -161.5q-21 -19 -45 -37.5t-50.5 -33.5t-54.5 -25t-58 -13v81q116 38 178 142q-14 -3 -32.5 -6.5t-33.5 -3.5q-56 0 -100.5 20t-75.5 55q-58 67 -58 175q0 53 18.5 99t51 80t76 53.5t94.5 19.5t95 -20t76.5 -54.5t51.5 -80.5t19 -99z
M415 450q0 34 -11.5 63.5t-31.5 51.5t-47.5 34.5t-59.5 12.5t-59.5 -12.5t-47.5 -34.5t-31.5 -51.5t-11.5 -63.5q0 -37 12 -68.5t35 -53.5q40 -38 107 -38q32 0 59 12t46.5 33.5t30 51t10.5 63.5z" />
    <glyph glyph-name="colon" unicode=":" horiz-adv-x="231" 
d="M76 62q0 28 19 47.5t46 19.5t46 -19.5t19 -47.5t-19 -47.5t-46 -19.5t-46 19.5t-19 47.5zM75 438q0 28 19 47.5t46 19.5t46 -19.5t19 -47.5t-19 -47.5t-46 -19.5t-46 19.5t-19 47.5z" />
    <glyph glyph-name="semicolon" unicode=";" horiz-adv-x="248" 
d="M77 438q0 28 19 47.5t46 19.5t46 -19.5t19 -47.5t-19 -47.5t-46 -19.5t-46 19.5t-19 47.5zM90 -143q21 34 33 69.5t11 73.5q-27 0 -43 19.5t-16 45.5q0 28 20 47.5t47 19.5q22 0 38 -9t25.5 -23t13.5 -33t3 -38q-1 -27 -9 -56.5t-20 -57.5t-26 -52.5t-27 -40.5z" />
    <glyph glyph-name="question" unicode="?" horiz-adv-x="462" 
d="M45 633q19 35 49 62q65 57 153 57q82 0 135 -51q29 -28 42 -60.5t13 -65.5q0 -40 -15 -71t-38 -56t-50.5 -45t-54.5 -39l-14 -139h-66l-10 165q34 24 62 43.5t48 38.5t30.5 40t10.5 48q0 45 -28.5 73.5t-73.5 28.5q-47 0 -80.5 -27.5t-48.5 -64.5zM167 62q1 28 20 47.5
t46 19.5q27 -1 46 -20.5t18 -47.5q0 -28 -19.5 -47.5t-46.5 -18.5q-27 0 -45.5 19.5t-18.5 47.5z" />
    <glyph glyph-name="A" unicode="A" horiz-adv-x="710" 
d="M705 0h-100l-93 207h-314l-93 -207h-100l324 700h56zM241 297h228l-114 253z" />
    <glyph glyph-name="B" unicode="B" horiz-adv-x="525" 
d="M100 700h123q39 0 76 -9.5t66 -30t47 -53.5t18 -79q0 -41 -21.5 -73t-56.5 -53q31 -6 58.5 -22.5t47 -40t31 -54t11.5 -65.5q0 -54 -18 -95t-50.5 -69t-78 -42t-101.5 -14h-152v700zM192 90h68q29 0 54.5 8t44 23.5t29.5 39t11 55.5q0 23 -8.5 44.5t-23.5 38t-37 26
t-49 9.5h-89v-244zM192 426h55q36 0 59.5 25.5t23.5 67.5q0 45 -24 67.5t-66 22.5h-48v-183z" />
    <glyph glyph-name="C" unicode="C" horiz-adv-x="599" 
d="M493 577q-27 16 -63.5 27.5t-73.5 10.5q-50 0 -92.5 -21t-73 -57t-48 -84t-16.5 -103q1 -57 17.5 -105.5t47 -84t73 -55.5t95.5 -20q51 1 92 16.5t82 45.5l51 -76q-56 -42 -108 -61t-116 -20q-76 -1 -137.5 25t-105 73t-67 113.5t-24.5 146.5q-1 68 21 132.5t64 115.5
t102 82t135 32q51 1 100 -12t97 -48z" />
    <glyph glyph-name="D" unicode="D" horiz-adv-x="675" 
d="M100 700h214q72 0 133.5 -26t106.5 -72.5t70.5 -110.5t25.5 -141t-25.5 -141t-70.5 -110.5t-106.5 -72.5t-133.5 -26h-214v700zM192 610v-520h125q52 0 94.5 19t73.5 53.5t48 82.5t17 105t-17 104.5t-48 82t-73.5 54t-94.5 19.5h-125z" />
    <glyph glyph-name="E" unicode="E" horiz-adv-x="519" 
d="M100 700h334v-91h-243l1 -2v-182l-1 -2h212v-90h-212l1 -2v-238l-1 -2h278v-91h-369v700z" />
    <glyph glyph-name="F" unicode="F" horiz-adv-x="474" 
d="M100 700h334v-91h-243l1 -2v-207l-1 -2h213v-90h-213l1 -2v-306h-92v700z" />
    <glyph glyph-name="G" unicode="G" horiz-adv-x="684" 
d="M495 569q-30 23 -63 34.5t-73 11.5q-51 0 -94 -22.5t-74 -59.5t-48.5 -84.5t-17.5 -98.5q0 -54 18 -102t49 -84t73.5 -57.5t92.5 -21.5q45 0 81.5 16t62 43.5t39 65t13.5 81.5h-218v91h323v-39q0 -84 -23.5 -149.5t-64.5 -111t-96.5 -69t-119.5 -23.5q-72 0 -132.5 28.5
t-104.5 77t-68.5 114t-24.5 140.5q0 68 22.5 132.5t65.5 115t104.5 81.5t138.5 31q111 0 192 -63z" />
    <glyph glyph-name="H" unicode="H" horiz-adv-x="604" 
d="M411 306l1 2h-221l1 -2v-306h-92v700h92v-300l-1 -2h221l-1 2v300h93v-700h-93v306z" />
    <glyph glyph-name="I" unicode="I" horiz-adv-x="293" 
d="M100 700h93v-700h-93v700z" />
    <glyph glyph-name="J" unicode="J" horiz-adv-x="501" 
d="M110 170q6 -19 17 -34.5t26 -27t32.5 -17.5t34.5 -6q21 0 41.5 7t36.5 22t25.5 38.5t9.5 57.5v490h92l1 -485q0 -105 -54.5 -165t-151.5 -60q-37 0 -68 10.5t-56 29t-43 43t-28 52.5z" />
    <glyph glyph-name="K" unicode="K" horiz-adv-x="532" 
d="M249 375l-57 -75v-300h-92v700h92v-265l210 265h100l-185 -242l210 -458h-101z" />
    <glyph glyph-name="L" unicode="L" horiz-adv-x="508" 
d="M100 700h94l-1 -610l-1 -3h291v-87h-383v700z" />
    <glyph glyph-name="M" unicode="M" horiz-adv-x="888" 
d="M745 700l118 -700h-100l-80 488l-209 -488h-64l-206 488l-79 -488h-100l120 700h75l225 -535l225 535h75z" />
    <glyph glyph-name="N" unicode="N" horiz-adv-x="754" 
d="M192 496v-496h-92v700h57l405 -498v498h92v-700h-57z" />
    <glyph glyph-name="O" unicode="O" horiz-adv-x="710" 
d="M125 350q0 -54 18 -102t49 -84t73.5 -57.5t92.5 -21.5q49 0 91 21t72 57t47 84t17 103t-17 103t-47 84t-72 57t-91 21q-50 0 -92.5 -21t-73.5 -57t-49 -84t-18 -103zM25 350q0 77 24.5 143t68.5 114t104.5 75.5t132.5 27.5t132.5 -27.5t104.5 -75.5t68.5 -114t24.5 -143
t-24.5 -143t-68.5 -114t-104.5 -75.5t-132.5 -27.5t-132.5 28.5t-104.5 77t-68.5 114t-24.5 140.5z" />
    <glyph glyph-name="P" unicode="P" horiz-adv-x="525" 
d="M192 376h88q26 0 47.5 10t37 26.5t24 38.5t8.5 45q0 21 -8 41.5t-22 36.5t-33.5 26t-43.5 10h-98v-234zM500 496q0 -49 -19 -88t-50 -66.5t-70.5 -42t-80.5 -14.5h-88v-285h-92v700h190q45 0 83.5 -16t66.5 -43.5t44 -65t16 -79.5z" />
    <glyph glyph-name="Q" unicode="Q" horiz-adv-x="712" 
d="M580 -31l-53 69q-77 -48 -172 -48q-72 0 -132.5 28.5t-104.5 77t-68.5 114t-24.5 140.5q0 77 24.5 143t68.5 114t104.5 75.5t132.5 27.5t132.5 -27.5t104.5 -75.5t68.5 -114t24.5 -143t-24.5 -142.5t-68.5 -113.5l95 -125h-107zM125 350q0 -55 17 -103t47.5 -84t73.5 -57
t95 -21q64 0 111 29l-117 155h107l73 -97q26 35 39.5 80t13.5 98q0 57 -16.5 105.5t-46.5 84t-71.5 55.5t-92.5 20q-52 0 -95 -20t-73.5 -55.5t-47.5 -84t-17 -105.5z" />
    <glyph glyph-name="R" unicode="R" horiz-adv-x="557" 
d="M500 499q0 -47 -16.5 -85t-45.5 -66q-11 -11 -22 -19.5t-25 -16.5l141 -312h-103l-130 287h-107v-287h-92v700h190q46 0 85 -15t66.5 -42t43 -64t15.5 -80zM192 378h88q27 0 49 10.5t37 27.5t23 38.5t8 43.5q0 21 -7 41.5t-20.5 36t-33.5 25t-46 9.5h-98v-232z" />
    <glyph glyph-name="S" unicode="S" horiz-adv-x="469" 
d="M249 615q-27 -1 -50.5 -15t-23.5 -45q1 -22 12.5 -42.5t30 -40.5t41.5 -40.5t46 -41.5q24 -21 47.5 -42.5t42 -46t30.5 -53t13 -64.5q1 -44 -14 -79.5t-41 -61t-62.5 -39t-79.5 -14.5q-66 -2 -117.5 21.5t-93.5 65.5l56 76q31 -29 70.5 -49.5t84.5 -18.5q42 1 69.5 27.5
t26.5 65.5q-1 33 -28.5 64t-63.5 63q-29 25 -59 51.5t-55 55.5t-41.5 62.5t-17.5 72.5q-1 37 13 67t37.5 51t54 33t62.5 12q57 0 97 -14t71 -34l-44 -80q-23 12 -50 22.5t-64 10.5z" />
    <glyph glyph-name="T" unicode="T" horiz-adv-x="456" 
d="M25 700h406v-91h-159l1 -2v-607h-93v607l1 2h-156v91z" />
    <glyph glyph-name="U" unicode="U" horiz-adv-x="592" 
d="M542 326q0 -165 -60.5 -250.5t-185.5 -85.5q-128 0 -187 84.5t-59 239.5v386h92v-350q0 -60 7 -109t25 -83.5t47.5 -53.5t74.5 -19t74.5 19t47.5 53.5t25 83.5t7 109v350h92v-374z" />
    <glyph glyph-name="V" unicode="V" horiz-adv-x="660" 
d="M5 700h100l225 -535l225 535h100l-293 -700h-64z" />
    <glyph glyph-name="W" unicode="W" horiz-adv-x="860" 
d="M430 475l-128 -475h-89l-208 700h100l152 -525l142 525h62l146 -525l148 525h100l-208 -700h-89z" />
    <glyph glyph-name="X" unicode="X" horiz-adv-x="521" 
d="M260 458l141 242h100l-188 -333l208 -367h-100l-162 277l-159 -277h-100l207 367l-187 333h100z" />
    <glyph glyph-name="Y" unicode="Y" horiz-adv-x="502" 
d="M497 700l-200 -461v-239h-92v230l-200 470h100l146 -345l146 345h100z" />
    <glyph glyph-name="Z" unicode="Z" horiz-adv-x="440" 
d="M70 700h335v-40l-265 -570h275v-90h-390v60l255 550h-210v90z" />
    <glyph glyph-name="a" unicode="a" 
d="M420 70q-30 -30 -71 -51t-86 -21q-52 0 -95.5 19t-75 53t-49.5 80t-18 100q0 52 19 97.5t51.5 80t76 54.5t93.5 20q45 0 85 -21t70 -51v70h85v-500h-85v70zM115 250q0 -33 12 -62.5t32 -51.5t47.5 -35t58.5 -13q33 0 61 13t47.5 35t30.5 51.5t11 62.5t-11 62.5
t-30.5 51.5t-47.5 35t-61 13q-31 0 -58.5 -13t-47.5 -35t-32 -51.5t-12 -62.5z" />
    <glyph glyph-name="b" unicode="b" 
d="M135 0h-85v750h85v-320q30 30 72 51t87 21q53 0 96.5 -19t74.5 -53t48 -80t17 -100t-18 -100t-50 -80t-75.5 -53t-94.5 -19q-45 0 -86 21t-71 51v-70zM440 250q0 33 -11 62.5t-30.5 51.5t-47 35t-59.5 13q-33 0 -61 -13t-48.5 -35t-31.5 -51.5t-11 -62.5t11 -62.5
t30.5 -51.5t47.5 -35t61 -13t61 12.5t47.5 34.5t30.5 51.5t11 63.5z" />
    <glyph glyph-name="c" unicode="c" horiz-adv-x="451" 
d="M353 380q-19 14 -41.5 23t-48.5 9q-32 0 -59 -14t-47 -36.5t-31 -52t-11 -61.5q0 -33 12.5 -62.5t33 -51t48 -34t58.5 -12.5t57.5 12.5t46.5 34.5l65 -63q-32 -34 -75 -54t-93 -20q-52 0 -96 18.5t-76.5 52t-51 79.5t-19.5 100q0 53 19 99.5t53 81.5q32 35 74 53.5
t92 19.5q74 0 139 -45z" />
    <glyph glyph-name="d" unicode="d" 
d="M420 70q-30 -30 -71 -51t-86 -21q-52 0 -95.5 19t-75 53t-49.5 80t-18 100q0 52 19 97.5t51.5 80t76 54.5t93.5 20q45 0 85 -21t70 -51v320h85v-750h-85v70zM115 250q0 -33 12 -62.5t32 -51.5t47.5 -35t58.5 -13q33 0 61 13t47.5 35t30.5 51.5t11 62.5t-11 62.5
t-30.5 51.5t-47.5 35t-61 13q-31 0 -58.5 -13t-47.5 -35t-32 -51.5t-12 -62.5z" />
    <glyph glyph-name="e" unicode="e" horiz-adv-x="509" 
d="M120 209q14 -52 53 -86.5t91 -34.5q34 0 63.5 10t50.5 30l63 -60q-32 -34 -77.5 -52t-99.5 -18q-50 0 -92 18t-74 50q-35 35 -54 83t-19 103q0 52 19 97.5t51.5 79.5t76 53.5t93.5 19.5q46 0 85 -17t69 -46q25 -24 45 -65t20 -111q0 -24 -3 -54h-361zM261 412
q-54 0 -92.5 -35t-49.5 -88h279q-8 54 -45.5 88.5t-91.5 34.5z" />
    <glyph glyph-name="f" unicode="f" horiz-adv-x="322" 
d="M332 646q-31 16 -67 16q-42 0 -61 -21.5t-19 -61.5v-79h115v-80h-115v-420h-85v420h-100v80h100v88q0 77 42 120.5t123 43.5q32 0 57 -6.5t50 -20.5z" />
    <glyph glyph-name="g" unicode="g" 
d="M146 -102q20 -27 53.5 -42.5t69.5 -15.5q32 0 61 13t50 36q19 20 29.5 45.5t10.5 54.5v81q-30 -30 -72.5 -51t-87.5 -21q-52 0 -95 19.5t-74 53t-48.5 80t-17.5 100.5t17.5 100t48.5 79.5t73.5 52.5t93.5 19q45 0 88.5 -21t73.5 -51v70h85l-1 -491q0 -60 -16.5 -106
t-54.5 -84q-32 -32 -73.5 -50.5t-90.5 -18.5q-54 0 -103.5 22.5t-82.5 61.5zM115 251q0 -34 11 -64t30.5 -52t46.5 -34.5t59 -12.5q33 0 61.5 12.5t48.5 34.5t31.5 51.5t11.5 63.5q0 33 -11.5 62.5t-32 51.5t-49 35t-61.5 13t-60 -12.5t-46 -34t-29.5 -51t-10.5 -63.5z" />
    <glyph glyph-name="h" unicode="h" horiz-adv-x="484" 
d="M135 0h-85v750h85v-325q32 34 78.5 55.5t94.5 21.5q33 0 60.5 -12t47.5 -33.5t31.5 -50.5t11.5 -63v-343h-85v302q0 54 -23.5 83.5t-71.5 29.5q-28 0 -53.5 -10.5t-45 -29.5t-31.5 -44t-12 -53z" />
    <glyph glyph-name="i" unicode="i" horiz-adv-x="200" 
d="M57 500h85v-500h-85v500zM50 650q0 21 14.5 35.5t35.5 14.5t35.5 -14.5t14.5 -35.5t-14.5 -35.5t-35.5 -14.5t-35.5 14.5t-14.5 35.5z" />
    <glyph glyph-name="j" unicode="j" horiz-adv-x="245" 
d="M-35 -146q16 -8 30 -12t33 -4q39 0 57.5 24t18.5 76v562h85v-573q0 -88 -40 -133.5t-121 -45.5q-32 0 -55 6.5t-48 20.5zM95 650q0 21 14.5 35.5t35.5 14.5t35.5 -14.5t14.5 -35.5t-14.5 -35.5t-35.5 -14.5t-35.5 14.5t-14.5 35.5z" />
    <glyph glyph-name="k" unicode="k" horiz-adv-x="460" 
d="M182 245l-47 -45v-200h-85v750h85v-450l215 200h95l-203 -202l218 -298h-96z" />
    <glyph glyph-name="l" unicode="l" horiz-adv-x="205" 
d="M60 750h85v-750h-85v750z" />
    <glyph glyph-name="m" unicode="m" horiz-adv-x="808" 
d="M135 0h-85v500h85v-75q32 34 77.5 55.5t93.5 21.5q40 0 77.5 -22.5t56.5 -64.5q17 19 39 35t46.5 27.5t50 18t49.5 6.5q33 0 61.5 -11.5t50 -32.5t34 -50.5t12.5 -64.5v-343h-85v302q0 54 -23.5 83.5t-71.5 29.5q-28 0 -53.5 -10.5t-45 -29.5t-31.5 -44t-12 -53l-2 -278
h-85v302q0 54 -23.5 83.5t-71.5 29.5q-28 0 -53.5 -10.5t-45 -29.5t-31.5 -44t-12 -53z" />
    <glyph glyph-name="n" unicode="n" horiz-adv-x="484" 
d="M135 0h-85v500h85v-75q32 34 78.5 55.5t94.5 21.5q33 0 60.5 -12t47.5 -33.5t31.5 -50.5t11.5 -63v-343h-85v302q0 54 -23.5 83.5t-71.5 29.5q-28 0 -53.5 -10.5t-45 -29.5t-31.5 -44t-12 -53z" />
    <glyph glyph-name="o" unicode="o" horiz-adv-x="530" 
d="M25 250q0 53 18.5 99t51 80t76 53.5t94.5 19.5t94.5 -19.5t76 -53.5t51 -80t18.5 -99t-18.5 -99t-51 -80t-76 -53.5t-94.5 -19.5t-94.5 19.5t-76 53.5t-51 80t-18.5 99zM115 250q0 -34 11.5 -63.5t31.5 -51.5t47.5 -34.5t59.5 -12.5t59.5 12.5t47.5 34.5t31.5 51.5
t11.5 63.5t-11.5 63.5t-31.5 51.5t-47.5 34.5t-59.5 12.5t-59.5 -12.5t-47.5 -34.5t-31.5 -51.5t-11.5 -63.5z" />
    <glyph glyph-name="p" unicode="p" 
d="M135 430q30 30 73.5 51t88.5 21q51 0 93.5 -19t73.5 -52.5t48.5 -79.5t17.5 -100t-17.5 -100.5t-49 -80t-74.5 -53t-95 -19.5q-45 0 -87 21t-72 51v-320h-85v750h85v-70zM440 251q0 34 -10.5 63.5t-29.5 51t-46 34t-60 12.5q-35 0 -63 -12.5t-48.5 -34.5t-31.5 -51.5
t-11 -63.5q0 -33 11 -62.5t31.5 -51.5t48.5 -35t61 -13q32 0 59.5 12.5t47 34.5t30.5 52t11 64z" />
    <glyph glyph-name="q" unicode="q" 
d="M420 500h85v-750h-85v320q-30 -30 -72.5 -51t-87.5 -21q-52 0 -95 19.5t-74 53t-48.5 80t-17.5 100.5t17.5 100t48.5 79.5t73.5 52.5t93.5 19q45 0 88.5 -21t73.5 -51v70zM115 251q0 -34 11 -64t30.5 -52t46.5 -34.5t59 -12.5q33 0 61.5 12.5t48.5 34.5t31.5 51.5
t11.5 63.5q0 33 -11.5 62.5t-32 51.5t-49 35t-61.5 13t-60 -12.5t-46 -34t-29.5 -51t-10.5 -63.5z" />
    <glyph glyph-name="r" unicode="r" horiz-adv-x="338" 
d="M332 406q-11 5 -24.5 7t-28.5 2q-28 0 -53.5 -10.5t-45 -29.5t-31.5 -44t-12 -53l-2 -278h-85v500h85v-75q32 34 74 55.5t90 21.5q37 0 64 -14z" />
    <glyph glyph-name="s" unicode="s" horiz-adv-x="382" 
d="M246 284q18 -13 37.5 -28.5t35.5 -34t26.5 -41t10.5 -49.5q1 -26 -9 -50t-31 -43q-26 -23 -53 -33t-69 -10q-40 0 -86 19.5t-83 50.5l52 70q17 -12 31.5 -22t29.5 -18q14 -8 31 -12.5t35 -4.5q16 0 28.5 4.5t23.5 16.5q11 14 11 34q0 10 -7.5 21.5t-19 22.5t-25.5 21.5
l-26 19.5q-21 15 -41.5 30.5t-42.5 35.5q-24 22 -35 45.5t-11 55.5q0 28 12 50.5t32.5 38t46 23.5t52.5 8q60 0 117 -31l-36 -76q-23 9 -39 15.5t-40 6.5q-7 0 -16 -1.5t-17.5 -5t-14.5 -9.5t-7 -16q-3 -28 26 -50q20 -16 36 -28t35 -26z" />
    <glyph glyph-name="t" unicode="t" horiz-adv-x="330" 
d="M15 500h100v150h85v-150h115v-80h-115v-420h-85v420h-100v80z" />
    <glyph glyph-name="u" unicode="u" horiz-adv-x="460" 
d="M435 500v-234q0 -83 -17.5 -133.5t-49.5 -82.5q-26 -25 -60.5 -38.5t-77.5 -13.5q-94 0 -146 53q-29 28 -44 77t-15 135v237h85v-259q0 -48 10 -76.5t27 -44.5q35 -32 83 -32q24 0 48 8.5t41 27.5q14 14 22.5 43t8.5 74v259h85z" />
    <glyph glyph-name="v" unicode="v" horiz-adv-x="490" 
d="M275 0h-60l-210 500h95l147 -349l143 349h95z" />
    <glyph glyph-name="w" unicode="w" horiz-adv-x="849" 
d="M633 0h-54l-155 359l-154 -359h-54l-211 500h95l145 -349l150 349h59l151 -349l145 349h94z" />
    <glyph glyph-name="x" unicode="x" horiz-adv-x="450" 
d="M120 500l107 -161l103 161h100l-151 -235l166 -265h-100l-120 194l-120 -194h-100l167 263l-152 237h100z" />
    <glyph glyph-name="y" unicode="y" horiz-adv-x="490" 
d="M162 -250h-95l128 295l-190 455h95l145 -346l145 346h95z" />
    <glyph glyph-name="z" unicode="z" horiz-adv-x="408" 
d="M55 500h333v-39l-240 -381h245v-80h-368v45l238 375h-208v80z" />
    </font>
</defs>
</svg>
